<?xml version="1.0" encoding="UTF-8"?>
<svg width="43px" height="49px" viewBox="0 0 43 49" version="1.1" xmlns="http://www.w3.org/2000/svg" xmlns:xlink="http://www.w3.org/1999/xlink">
    <!-- Generator: Sketch 43 (38999) - http://www.bohemiancoding.com/sketch -->
    <title>e</title>
    <desc>Created with Sketch.</desc>
    <defs></defs>
    <g id="Introduction" stroke="none" stroke-width="1" fill="none" fill-rule="evenodd">
        <g id="Artboard" transform="translate(-141.000000, -395.000000)" fill="#ECF5FF">
            <path d="M147.86,438.185 C144.199982,434.374981 142.190002,429.170033 141.83,422.57 L141.74,419.51 L141.83,416.54 C142.190002,410.059968 144.199982,404.900019 147.86,401.06 C151.520019,397.219981 156.40997,395.3 162.53,395.3 C169.130033,395.3 174.244982,397.399979 177.875,401.6 C181.505019,405.800021 183.32,411.499964 183.32,418.7 L183.32,420.32 C183.32,420.920003 183.125002,421.414998 182.735,421.805 C182.344999,422.195002 181.850003,422.39 181.25,422.39 L150.02,422.39 L150.02,423.2 C150.200001,427.10002 151.399989,430.429986 153.62,433.19 C155.840012,435.950014 158.779982,437.33 162.44,437.33 C165.260015,437.33 167.554992,436.775006 169.325,435.665 C171.095009,434.554994 172.429996,433.400006 173.33,432.2 C173.870003,431.479996 174.289999,431.045001 174.59,430.895 C174.890002,430.744999 175.399997,430.67 176.12,430.67 L180.08,430.67 C180.620003,430.67 181.084999,430.819998 181.475,431.12 C181.865002,431.420002 182.06,431.809998 182.06,432.29 C182.06,433.610007 181.250009,435.199991 179.63,437.06 C178.009992,438.920009 175.715015,440.524993 172.745,441.875 C169.774986,443.225007 166.37002,443.9 162.53,443.9 C156.40997,443.9 151.520019,441.995019 147.86,438.185 Z M175.13,416.27 L175.13,416 C175.13,411.799979 173.990012,408.380013 171.71,405.74 C169.429989,403.099987 166.37002,401.78 162.53,401.78 C158.629981,401.78 155.570012,403.099987 153.35,405.74 C151.129989,408.380013 150.02,411.799979 150.02,416 L150.02,416.27 L175.13,416.27 Z" id="e"></path>
        </g>
    </g>
</svg>