<?xml version="1.0" encoding="UTF-8"?>
<svg width="49px" height="63px" viewBox="0 0 49 63" version="1.1" xmlns="http://www.w3.org/2000/svg" xmlns:xlink="http://www.w3.org/1999/xlink">
    <!-- Generator: Sketch 43 (38999) - http://www.bohemiancoding.com/sketch -->
    <title>H</title>
    <desc>Created with Sketch.</desc>
    <defs></defs>
    <g id="Introduction" stroke="none" stroke-width="1" fill="none" fill-rule="evenodd">
        <g id="Artboard" transform="translate(-84.000000, -380.000000)" fill="#ECF5FF">
            <path d="M84.8150005,442.415 C84.4549987,442.024998 84.2750005,441.530003 84.2750005,440.93 L84.2750005,382.16 C84.2750005,381.499997 84.4549987,380.975002 84.8150005,380.585 C85.1750023,380.194998 85.6549975,380 86.2550005,380 L90.5750005,380 C91.2350038,380 91.7599985,380.194998 92.1500005,380.585 C92.5400024,380.975002 92.7350005,381.499997 92.7350005,382.16 L92.7350005,407.18 L124.055,407.18 L124.055,382.16 C124.055,381.499997 124.249999,380.975002 124.64,380.585 C125.030002,380.194998 125.524997,380 126.125,380 L130.445,380 C131.105004,380 131.629999,380.194998 132.02,380.585 C132.410002,380.975002 132.605,381.499997 132.605,382.16 L132.605,440.93 C132.605,441.530003 132.395003,442.024998 131.975,442.415 C131.554998,442.805002 131.045003,443 130.445,443 L126.125,443 C125.524997,443 125.030002,442.805002 124.64,442.415 C124.249999,442.024998 124.055,441.530003 124.055,440.93 L124.055,415.01 L92.7350005,415.01 L92.7350005,440.93 C92.7350005,441.530003 92.5250026,442.024998 92.1050005,442.415 C91.6849984,442.805002 91.1750035,443 90.5750005,443 L86.2550005,443 C85.6549975,443 85.1750023,442.805002 84.8150005,442.415 Z" id="H"></path>
        </g>
    </g>
</svg>