<?xml version="1.0" encoding="UTF-8"?>
<svg width="100px" height="63px" viewBox="0 0 100 63" version="1.1" xmlns="http://www.w3.org/2000/svg" xmlns:xlink="http://www.w3.org/1999/xlink">
    <!-- Generator: Sketch 43 (38999) - http://www.bohemiancoding.com/sketch -->
    <title>Group 2</title>
    <desc>Created with Sketch.</desc>
    <defs></defs>
    <g id="Introduction" stroke="none" stroke-width="1" fill="none" fill-rule="evenodd">
        <g id="Artboard" transform="translate(-84.000000, -351.000000)" stroke="#ECF5FF" stroke-width="6">
            <g id="Group" transform="translate(84.000000, 350.000000)">
                <g id="Group-2" transform="translate(0.000000, 1.000000)">
                    <path d="M3,60 L3,3 L5.46,3 L5.46,27.18 L5.46,30.18 L8.46,30.18 L39.78,30.18 L42.78,30.18 L42.78,27.18 L42.78,3 L45.33,3 L45.33,60 L42.78,60 L42.78,35.01 L42.78,32.01 L39.78,32.01 L8.46,32.01 L5.46,32.01 L5.46,35.01 L5.46,60 L3,60 Z" id="H"></path>
                    <path d="M61.0013221,38.2118133 L61.0886235,35.3308674 C61.4077538,29.6037006 63.1533887,25.1223692 66.2916067,21.8298126 C69.361052,18.609411 73.4600206,17 78.79,17 C84.5576698,17 88.8356312,18.7563478 91.8652602,22.2617037 C94.9868645,25.8734773 96.58,30.8767126 96.58,37.4 L96.58,38.09 L66.28,38.09 L63.28,38.09 L63.28,41.09 L63.28,41.9 L63.2831902,42.0383143 C63.4918096,46.5584026 64.9124363,50.5006414 67.5423596,53.7702759 C70.3373372,57.2451129 74.1399227,59.03 78.7,59.03 C82.0471016,59.03 84.8886022,58.3428397 87.1788671,56.9065719 C89.2397137,55.6141766 90.847848,54.2228694 91.99,52.7 C92.0840655,52.5745793 92.1699498,52.464736 92.2463626,52.371291 C92.2882597,52.370449 92.3328392,52.37 92.38,52.37 L94.7196815,52.37 C94.4534906,52.7788211 94.0931773,53.2552843 93.6277552,53.7896578 C92.3124182,55.2998595 90.3663783,56.6608155 87.7635912,57.8439006 C85.2010809,59.008678 82.2181897,59.6 78.79,59.6 C73.4553406,59.6 69.352746,58.00175 66.283481,54.8066954 C63.1547609,51.5497491 61.4085194,47.0277655 61.0855471,41.1066065 L61.0013221,38.2118133 Z M69.5404449,44.09 C69.405851,43.3676002 69.3190488,42.614125 69.28,41.8282594 L69.28,41.09 L66.28,41.09 L66.28,44.09 L69.5404449,44.09 Z M94.39,34.97 L94.39,34.7 C94.39,29.8129128 93.0170859,25.6941704 90.240469,22.4791404 C87.3741407,19.1602339 83.4790531,17.48 78.79,17.48 C74.0336021,17.48 70.1252944,19.1659367 67.3139137,22.5092002 C64.6126077,25.7215642 63.28,29.8274365 63.28,34.7 L63.28,34.97 L63.28,37.97 L66.28,37.97 L91.39,37.97 L94.39,37.97 L94.39,34.97 Z" id="e"></path>
                </g>
            </g>
        </g>
    </g>
</svg>