<svg width="405px" height="129px" viewBox="0 0 410 135" version="1.1" xmlns="http://www.w3.org/2000/svg" xmlns:xlink="http://www.w3.org/1999/xlink">
    <clipPath id="clip">
        <path d="M1.08,126.83 C0.3599964,126.049996 0,125.060006 0,123.86 L0,6.32 C0,4.9999934 0.3599964,3.9500039 1.08,3.17 C1.8000036,2.3899961 2.759994,2 3.96,2 L12.6,2 C13.9200066,2 14.9699961,2.3899961 15.75,3.17 C16.5300039,3.9500039 16.92,4.9999934 16.92,6.32 L16.92,56.36 L79.56,56.36 L79.56,6.32 C79.56,4.9999934 79.9499961,3.9500039 80.73,3.17 C81.5100039,2.3899961 82.499994,2 83.7,2 L92.34,2 C93.6600066,2 94.7099961,2.3899961 95.49,3.17 C96.2700039,3.9500039 96.66,4.9999934 96.66,6.32 L96.66,123.86 C96.66,125.060006 96.2400042,126.049996 95.4,126.83 C94.5599958,127.610004 93.540006,128 92.34,128 L83.7,128 C82.499994,128 81.5100039,127.610004 80.73,126.83 C79.9499961,126.049996 79.56,125.060006 79.56,123.86 L79.56,72.02 L16.92,72.02 L16.92,123.86 C16.92,125.060006 16.5000042,126.049996 15.66,126.83 C14.8199958,127.610004 13.800006,128 12.6,128 L3.96,128 C2.759994,128 1.8000036,127.610004 1.08,126.83 Z" id="H"></path>
        <path d="M128.24,115.77 C120.919963,108.149962 116.900004,97.740066 116.18,84.54 L116,78.42 L116.18,72.48 C116.900004,59.5199352 120.919963,49.2000384 128.24,41.52 C135.560037,33.8399616 145.339939,30 157.58,30 C170.780066,30 181.009964,34.199958 188.27,42.6 C195.530036,51.000042 199.16,62.399928 199.16,76.8 L199.16,80.04 C199.16,81.240006 198.770004,82.2299961 197.99,83.01 C197.209996,83.7900039 196.220006,84.18 195.02,84.18 L132.56,84.18 L132.56,85.8 C132.920002,93.600039 135.319978,100.259972 139.76,105.78 C144.200022,111.300028 150.079963,114.06 157.4,114.06 C163.040028,114.06 167.629982,112.950011 171.17,110.73 C174.710018,108.509989 177.379991,106.200012 179.18,103.8 C180.260005,102.359993 181.099997,101.490001 181.7,101.19 C182.300003,100.889998 183.319993,100.74 184.76,100.74 L192.68,100.74 C193.760005,100.74 194.689996,101.039997 195.47,101.64 C196.250004,102.240003 196.64,103.019995 196.64,103.98 C196.64,106.620013 195.020016,109.799981 191.78,113.52 C188.539984,117.240019 183.95003,120.449986 178.01,123.15 C172.06997,125.850014 165.260038,127.2 157.58,127.2 C145.339939,127.2 135.560037,123.390038 128.24,115.77 Z M182.78,71.94 L182.78,71.4 C182.78,62.999958 180.500023,56.1600264 175.94,50.88 C171.379977,45.5999736 165.260038,42.96 157.58,42.96 C149.779961,42.96 143.660022,45.5999736 139.22,50.88 C134.779978,56.1600264 132.56,62.999958 132.56,71.4 L132.56,71.94 L182.78,71.94 Z" id="e"></path>
        <path d="M217.17,126.63 C216.389996,125.849996 216,124.860006 216,123.66 L216,4.14 C216,2.8199934 216.389996,1.8000036 217.17,1.08 C217.950004,0.3599964 218.939994,0 220.14,0 L228.06,0 C229.260006,0 230.249996,0.3899961 231.03,1.17 C231.810004,1.9500039 232.2,2.939994 232.2,4.14 L232.2,123.66 C232.2,124.860006 231.810004,125.849996 231.03,126.63 C230.249996,127.410004 229.260006,127.8 228.06,127.8 L220.14,127.8 C218.939994,127.8 217.950004,127.410004 217.17,126.63 Z" id="l"></path>
        <path d="M255.17,126.63 C254.389996,125.849996 254,124.860006 254,123.66 L254,4.14 C254,2.8199934 254.389996,1.8000036 255.17,1.08 C255.950004,0.3599964 256.939994,0 258.14,0 L266.06,0 C267.260006,0 268.249996,0.3899961 269.03,1.17 C269.810004,1.9500039 270.2,2.939994 270.2,4.14 L270.2,123.66 C270.2,124.860006 269.810004,125.849996 269.03,126.63 C268.249996,127.410004 267.260006,127.8 266.06,127.8 L258.14,127.8 C256.939994,127.8 255.950004,127.410004 255.17,126.63 Z" id="l"></path>
        <path d="M299.61,116.04 C292.469964,108.599963 288.660002,98.7000618 288.18,86.34 L288,78.6 L288.18,70.86 C288.660002,58.4999382 292.529964,48.6000372 299.79,41.16 C307.050036,33.7199628 317.159935,30 330.12,30 C343.080065,30 353.189964,33.7199628 360.45,41.16 C367.710036,48.6000372 371.579998,58.4999382 372.06,70.86 C372.300001,73.5000132 372.42,76.0799874 372.42,78.6 C372.42,81.1200126 372.300001,83.6999868 372.06,86.34 C371.579998,98.7000618 367.770036,108.599963 360.63,116.04 C353.489964,123.480037 343.320066,127.2 330.12,127.2 C316.919934,127.2 306.750036,123.480037 299.61,116.04 Z M348.39,106.41 C352.890022,101.549976 355.319998,94.5600456 355.68,85.44 C355.800001,84.239994 355.86,81.9600168 355.86,78.6 C355.86,75.2399832 355.800001,72.960006 355.68,71.76 C355.319998,62.6399544 352.890022,55.6500243 348.39,50.79 C343.889977,45.9299757 337.800038,43.5 330.12,43.5 C322.439962,43.5 316.350023,45.9299757 311.85,50.79 C307.349978,55.6500243 304.920002,62.6399544 304.56,71.76 L304.38,78.6 L304.56,85.44 C304.920002,94.5600456 307.349978,101.549976 311.85,106.41 C316.350023,111.270024 322.439962,113.7 330.12,113.7 C337.800038,113.7 343.889977,111.270024 348.39,106.41 Z" id="o"></path>
        <path d="M385.17,127.71 C384.389996,126.929996 384,125.940006 384,124.74 L384,112.32 C384,111.119994 384.389996,110.100004 385.17,109.26 C385.950004,108.419996 386.939994,108 388.14,108 L400.56,108 C401.760006,108 402.749996,108.419996 403.53,109.26 C404.310004,110.100004 404.7,111.119994 404.7,112.32 L404.7,124.74 C404.7,125.940006 404.310004,126.929996 403.53,127.71 C402.749996,128.490004 401.760006,128.88 400.56,128.88 L388.14,128.88 C386.939994,128.88 385.950004,128.490004 385.17,127.71 Z" id="."></path>
    </clipPath>
    <g clip-path="url(#clip)" stroke="#ff0000" fill="none" stroke-linecap="round" stroke-linejoin="round" stroke-width="2">
        <path d="M1.08,126.83 C0.3599964,126.049996 0,125.060006 0,123.86 L0,6.32 C0,4.9999934 0.3599964,3.9500039 1.08,3.17 C1.8000036,2.3899961 2.759994,2 3.96,2 L12.6,2 C13.9200066,2 14.9699961,2.3899961 15.75,3.17 C16.5300039,3.9500039 16.92,4.9999934 16.92,6.32 L16.92,56.36 L79.56,56.36 L79.56,6.32 C79.56,4.9999934 79.9499961,3.9500039 80.73,3.17 C81.5100039,2.3899961 82.499994,2 83.7,2 L92.34,2 C93.6600066,2 94.7099961,2.3899961 95.49,3.17 C96.2700039,3.9500039 96.66,4.9999934 96.66,6.32 L96.66,123.86 C96.66,125.060006 96.2400042,126.049996 95.4,126.83 C94.5599958,127.610004 93.540006,128 92.34,128 L83.7,128 C82.499994,128 81.5100039,127.610004 80.73,126.83 C79.9499961,126.049996 79.56,125.060006 79.56,123.86 L79.56,72.02 L16.92,72.02 L16.92,123.86 C16.92,125.060006 16.5000042,126.049996 15.66,126.83 C14.8199958,127.610004 13.800006,128 12.6,128 L3.96,128 C2.759994,128 1.8000036,127.610004 1.08,126.83 Z" id="H"></path>
        <path d="M128.24,115.77 C120.919963,108.149962 116.900004,97.740066 116.18,84.54 L116,78.42 L116.18,72.48 C116.900004,59.5199352 120.919963,49.2000384 128.24,41.52 C135.560037,33.8399616 145.339939,30 157.58,30 C170.780066,30 181.009964,34.199958 188.27,42.6 C195.530036,51.000042 199.16,62.399928 199.16,76.8 L199.16,80.04 C199.16,81.240006 198.770004,82.2299961 197.99,83.01 C197.209996,83.7900039 196.220006,84.18 195.02,84.18 L132.56,84.18 L132.56,85.8 C132.920002,93.600039 135.319978,100.259972 139.76,105.78 C144.200022,111.300028 150.079963,114.06 157.4,114.06 C163.040028,114.06 167.629982,112.950011 171.17,110.73 C174.710018,108.509989 177.379991,106.200012 179.18,103.8 C180.260005,102.359993 181.099997,101.490001 181.7,101.19 C182.300003,100.889998 183.319993,100.74 184.76,100.74 L192.68,100.74 C193.760005,100.74 194.689996,101.039997 195.47,101.64 C196.250004,102.240003 196.64,103.019995 196.64,103.98 C196.64,106.620013 195.020016,109.799981 191.78,113.52 C188.539984,117.240019 183.95003,120.449986 178.01,123.15 C172.06997,125.850014 165.260038,127.2 157.58,127.2 C145.339939,127.2 135.560037,123.390038 128.24,115.77 Z M182.78,71.94 L182.78,71.4 C182.78,62.999958 180.500023,56.1600264 175.94,50.88 C171.379977,45.5999736 165.260038,42.96 157.58,42.96 C149.779961,42.96 143.660022,45.5999736 139.22,50.88 C134.779978,56.1600264 132.56,62.999958 132.56,71.4 L132.56,71.94 L182.78,71.94 Z" id="e"></path>
        <path d="M217.17,126.63 C216.389996,125.849996 216,124.860006 216,123.66 L216,4.14 C216,2.8199934 216.389996,1.8000036 217.17,1.08 C217.950004,0.3599964 218.939994,0 220.14,0 L228.06,0 C229.260006,0 230.249996,0.3899961 231.03,1.17 C231.810004,1.9500039 232.2,2.939994 232.2,4.14 L232.2,123.66 C232.2,124.860006 231.810004,125.849996 231.03,126.63 C230.249996,127.410004 229.260006,127.8 228.06,127.8 L220.14,127.8 C218.939994,127.8 217.950004,127.410004 217.17,126.63 Z" id="l"></path>
        <path d="M255.17,126.63 C254.389996,125.849996 254,124.860006 254,123.66 L254,4.14 C254,2.8199934 254.389996,1.8000036 255.17,1.08 C255.950004,0.3599964 256.939994,0 258.14,0 L266.06,0 C267.260006,0 268.249996,0.3899961 269.03,1.17 C269.810004,1.9500039 270.2,2.939994 270.2,4.14 L270.2,123.66 C270.2,124.860006 269.810004,125.849996 269.03,126.63 C268.249996,127.410004 267.260006,127.8 266.06,127.8 L258.14,127.8 C256.939994,127.8 255.950004,127.410004 255.17,126.63 Z" id="l"></path>
        <path d="M299.61,116.04 C292.469964,108.599963 288.660002,98.7000618 288.18,86.34 L288,78.6 L288.18,70.86 C288.660002,58.4999382 292.529964,48.6000372 299.79,41.16 C307.050036,33.7199628 317.159935,30 330.12,30 C343.080065,30 353.189964,33.7199628 360.45,41.16 C367.710036,48.6000372 371.579998,58.4999382 372.06,70.86 C372.300001,73.5000132 372.42,76.0799874 372.42,78.6 C372.42,81.1200126 372.300001,83.6999868 372.06,86.34 C371.579998,98.7000618 367.770036,108.599963 360.63,116.04 C353.489964,123.480037 343.320066,127.2 330.12,127.2 C316.919934,127.2 306.750036,123.480037 299.61,116.04 Z M348.39,106.41 C352.890022,101.549976 355.319998,94.5600456 355.68,85.44 C355.800001,84.239994 355.86,81.9600168 355.86,78.6 C355.86,75.2399832 355.800001,72.960006 355.68,71.76 C355.319998,62.6399544 352.890022,55.6500243 348.39,50.79 C343.889977,45.9299757 337.800038,43.5 330.12,43.5 C322.439962,43.5 316.350023,45.9299757 311.85,50.79 C307.349978,55.6500243 304.920002,62.6399544 304.56,71.76 L304.38,78.6 L304.56,85.44 C304.920002,94.5600456 307.349978,101.549976 311.85,106.41 C316.350023,111.270024 322.439962,113.7 330.12,113.7 C337.800038,113.7 343.889977,111.270024 348.39,106.41 Z" id="o"></path>
        <path d="M385.17,127.71 C384.389996,126.929996 384,125.940006 384,124.74 L384,112.32 C384,111.119994 384.389996,110.100004 385.17,109.26 C385.950004,108.419996 386.939994,108 388.14,108 L400.56,108 C401.760006,108 402.749996,108.419996 403.53,109.26 C404.310004,110.100004 404.7,111.119994 404.7,112.32 L404.7,124.74 C404.7,125.940006 404.310004,126.929996 403.53,127.71 C402.749996,128.490004 401.760006,128.88 400.56,128.88 L388.14,128.88 C386.939994,128.88 385.950004,128.490004 385.17,127.71 Z" id="."></path>
    </g>            
    <g data-ignore="true"> 
        <rect clip-path="url(#clip)" class="fill-rect" fill-opacity="0" width="100%" height="100%" fill="#f00" />
    </g>
</svg>