<?xml version="1.0" encoding="UTF-8"?>
<svg width="1619px" height="516px" viewBox="0 0 1619 516" version="1.1" xmlns="http://www.w3.org/2000/svg" xmlns:xlink="http://www.w3.org/1999/xlink">
    <!-- Generator: Sketch 43 (38999) - http://www.bohemiancoding.com/sketch -->
    <title>Group 2</title>
    <desc>Created with Sketch.</desc>
    <defs></defs>
    <g id="Introduction" stroke="none" stroke-width="1" fill="none" fill-rule="evenodd">
        <g id="Artboard-3" transform="translate(-286.000000, -281.000000)" stroke-width="48" stroke="#000000">
            <g id="Group" transform="translate(286.000000, 281.000000)">
                <g id="Group-2">
                    <path d="M24,488 L24,32 L43.68,32 L43.68,225.44 L43.68,249.44 L67.68,249.44 L318.24,249.44 L342.24,249.44 L342.24,225.44 L342.24,32 L362.64,32 L362.64,488 L342.24,488 L342.24,288.08 L342.24,264.08 L318.24,264.08 L67.68,264.08 L43.68,264.08 L43.68,288.08 L43.68,488 L24,488 Z" id="H"></path>
                    <path d="M488.700594,337.147325 L488.010693,313.69069 L488.699632,290.955688 C491.321392,244.677387 505.280423,208.923018 530.332854,182.638501 C554.888416,156.875288 587.680165,144 630.32,144 C676.461358,144 710.68505,158.050782 734.922082,186.093629 C759.894916,214.987818 772.64,255.013701 772.64,307.2 L772.64,312.72 L530.24,312.72 L506.24,312.72 L506.24,336.72 L506.24,343.2 L506.24,343.753552 L506.265521,344.306514 C507.934477,380.46722 519.29949,412.005132 540.338877,438.162207 C562.698698,465.960903 593.119382,480.24 629.6,480.24 C656.376813,480.24 679.108817,474.742718 697.430937,463.252575 C713.917709,452.913413 726.782784,441.782955 735.92,429.6 C736.672524,428.596634 737.359598,427.717888 737.970901,426.970328 C738.306077,426.963592 738.662714,426.96 739.04,426.96 L757.721162,426.96 C755.525996,430.372687 752.629683,434.175156 749.022042,438.317262 C738.499346,450.398876 722.931026,461.286524 702.108729,470.751205 C681.608647,480.069424 657.745518,484.8 630.32,484.8 C587.642725,484.8 554.821968,472.014 530.267848,446.453563 C505.289979,420.452011 491.326128,384.37208 488.700594,337.147325 Z M556.323559,360.72 C555.246808,354.940801 554.552391,348.913 554.24,342.626075 L554.24,336.72 L530.24,336.72 L530.24,360.72 L556.323559,360.72 Z M755.12,287.76 L755.12,285.6 C755.12,246.503302 744.136687,213.553363 721.923752,187.833123 C698.993125,161.281871 667.832425,147.84 630.32,147.84 C592.268817,147.84 561.002356,161.327493 538.51131,188.073602 C516.900861,213.772513 506.24,246.619492 506.24,285.6 L506.24,287.76 L506.24,311.76 L530.24,311.76 L731.12,311.76 L755.12,311.76 L755.12,287.76 Z" id="e"></path>
                    <path d="M888,487.2 L888,24 L904.8,24 L904.8,487.2 L888,487.2 Z" id="l"></path>
                    <path d="M1040,487.2 L1040,24 L1056.8,24 L1056.8,487.2 L1040,487.2 Z" id="l"></path>
                    <path d="M1176.70907,344.610939 L1176.00649,314.4 L1176.70907,284.18914 C1178.43822,240.516227 1191.69594,206.653583 1216.33708,181.401503 C1240.55314,156.585044 1274.75604,144 1320.48,144 C1366.20396,144 1400.40686,156.585044 1424.62292,181.401503 C1449.29832,206.688688 1462.55862,240.610394 1464.25808,284.371337 L1464.28223,284.993141 L1464.33856,285.612858 C1465.2337,295.459406 1465.68,305.054775 1465.68,314.4 C1465.68,323.745225 1465.2337,333.340594 1464.33856,343.187142 L1464.28223,343.806859 L1464.25808,344.428663 C1462.55569,388.265187 1449.477,422.24918 1425.20391,447.542143 C1401.51855,472.222685 1367.1338,484.8 1320.48,484.8 C1273.8262,484.8 1239.44145,472.222685 1215.75609,447.542143 C1191.51665,422.284247 1178.4406,388.359405 1176.70907,344.610939 Z M1446.67389,343.379135 C1447.20631,337.471579 1447.44,328.010609 1447.44,314.4 C1447.44,300.789391 1447.20631,291.328421 1446.67389,285.420865 C1444.9267,243.944134 1433.32293,210.779091 1411.17026,186.854207 C1388.42402,162.288272 1357.62749,150 1320.48,150 C1283.33251,150 1252.53598,162.288272 1229.78974,186.854207 C1207.51748,210.908257 1195.90832,244.302508 1194.25868,286.093369 L1194.25246,286.25097 L1194.24831,286.40864 L1193.52831,313.76864 L1193.51169,314.4 L1193.52831,315.03136 L1194.24831,342.39136 L1194.25246,342.54903 L1194.25868,342.706631 C1195.90832,384.497492 1207.51748,417.891743 1229.78974,441.945793 C1252.53598,466.511728 1283.33251,478.8 1320.48,478.8 C1357.62749,478.8 1388.42402,466.511728 1411.17026,441.945793 L1411.17026,441.945793 C1433.32293,418.020909 1444.9267,384.855866 1446.67389,343.379135 Z" id="o"></path>
                    <path d="M1560,491.52 L1560,456 L1594.8,456 L1594.8,491.52 L1560,491.52 Z" id="."></path>
                </g>
            </g>
        </g>
    </g>
</svg>