<?xml version="1.0" encoding="UTF-8"?>
<svg width="374px" height="129px" viewBox="0 0 374 129" version="1.1" xmlns="http://www.w3.org/2000/svg" xmlns:xlink="http://www.w3.org/1999/xlink">
    <!-- Generator: Sketch 43 (38999) - http://www.bohemiancoding.com/sketch -->
    <title>Group 2</title>
    <desc>Created with Sketch.</desc>
    <defs></defs>
    <g id="Introduction" stroke="none" stroke-width="1" fill="none" fill-rule="evenodd">
        <g id="Artboard" transform="translate(0.000000, -317.000000)" stroke="#ECF5FF" stroke-width="12">
            <g id="Group" transform="translate(84.000000, 350.000000)">
                <g id="Group-2" transform="translate(-102.000000, -33.000000)">
                    <path d="M6,122 L6,8 L10.92,8 L10.92,56.36 L10.92,62.36 L16.92,62.36 L79.56,62.36 L85.56,62.36 L85.56,56.36 L85.56,8 L90.66,8 L90.66,122 L85.56,122 L85.56,72.02 L85.56,66.02 L79.56,66.02 L16.92,66.02 L10.92,66.02 L10.92,72.02 L10.92,122 L6,122 Z" id="H"></path>
                    <path d="M122.175148,84.2868311 L122.002673,78.4226726 L122.174908,72.7389219 C122.830348,61.1693467 126.320106,52.2307546 132.583213,45.6596253 C138.722104,39.218822 146.920041,36 157.58,36 C169.11534,36 177.671262,39.5126956 183.73052,46.5234073 C189.973729,53.7469545 193.16,63.7534252 193.16,76.8 L193.16,78.18 L132.56,78.18 L126.56,78.18 L126.56,84.18 L126.56,85.8 L126.56,85.9383879 L126.56638,86.0766286 C126.983619,95.1168051 129.824873,103.001283 135.084719,109.540552 C140.674674,116.490226 148.279845,120.06 157.4,120.06 C164.094203,120.06 169.777204,118.685679 174.357734,115.813144 C178.479427,113.228353 181.695696,110.445739 183.98,107.4 C184.168131,107.149159 184.3399,106.929472 184.492725,106.742582 C184.576519,106.740898 184.665678,106.74 184.76,106.74 L189.430291,106.74 C188.881499,107.593172 188.157421,108.543789 187.25551,109.579316 C184.624836,112.599719 180.732757,115.321631 175.527182,117.687801 C170.402162,120.017356 164.436379,121.2 157.58,121.2 C146.910681,121.2 138.705492,118.0035 132.566962,111.613391 C126.322495,105.113003 122.831532,96.0930199 122.175148,84.2868311 Z M139.08089,90.18 C138.811702,88.7352003 138.638098,87.2282501 138.56,85.6565189 L138.56,84.18 L132.56,84.18 L132.56,90.18 L139.08089,90.18 Z M188.78,71.94 L188.78,71.4 C188.78,61.6258256 186.034172,53.3883409 180.480938,46.9582808 C174.748281,40.3204677 166.958106,36.96 157.58,36.96 C148.067204,36.96 140.250589,40.3318733 134.627827,47.0184004 C129.225215,53.4431283 126.56,61.6548729 126.56,71.4 L126.56,71.94 L126.56,77.94 L132.56,77.94 L182.78,77.94 L188.78,77.94 L188.78,71.94 Z" id="e"></path>
                    <path d="M222,121.8 L222,6 L226.2,6 L226.2,121.8 L222,121.8 Z" id="l"></path>
                    <path d="M260,121.8 L260,6 L264.2,6 L264.2,121.8 L260,121.8 Z" id="l"></path>
                    <path d="M294.001616,78.6002857 L294.178378,70.9994972 C294.600344,60.1525985 297.91542,51.672172 304.084269,45.3503758 C310.138285,39.1462611 318.68901,36 330.12,36 C341.55099,36 350.101715,39.1462611 356.155731,45.3503758 C362.32458,51.672172 365.639656,60.1525985 366.064519,71.0928342 L366.070556,71.2482852 L366.084641,71.4032145 C366.308426,73.8648515 366.42,76.2636937 366.42,78.6 C366.42,80.9363063 366.308426,83.3351485 366.084641,85.7967855 L366.070556,85.9517148 L366.064519,86.1071658 C365.638922,97.0662967 362.36925,105.562295 356.300978,111.885536 C350.379639,118.055671 341.78345,121.2 330.12,121.2 C318.45655,121.2 309.860361,118.055671 303.939022,111.885536 C297.87075,105.562295 294.601078,97.0662967 294.175481,86.1071658 L294.001616,78.6002857 Z M361.668472,85.8447836 C361.801578,84.3678948 361.86,82.0026523 361.86,78.6 C361.86,75.1973477 361.801578,72.8321052 361.668472,71.3552164 C361.231675,60.9860335 358.330732,52.6947727 352.792564,46.7135518 C347.106005,40.572068 339.406872,37.5 330.12,37.5 C320.833128,37.5 313.133995,40.572068 307.447436,46.7135518 C301.879369,52.7270642 298.977079,61.0756269 298.564669,71.5233422 L298.382076,78.4421599 L298.377923,78.6 L298.382076,78.7578401 L298.562076,85.5978401 C298.977079,96.1243731 301.879369,104.472936 307.447436,110.486448 C313.133995,116.627932 320.833128,119.7 330.12,119.7 C339.406872,119.7 347.106005,116.627932 352.792564,110.486448 L352.792564,110.486448 C358.330732,104.505227 361.231675,96.2139665 361.668472,85.8447836 Z" id="o"></path>
                    <path d="M390,122.88 L390,114 L398.7,114 L398.7,122.88 L390,122.88 Z" id="."></path>
                </g>
            </g>
        </g>
    </g>
</svg>