<?xml version="1.0" encoding="UTF-8"?>
<svg width="185px" height="85px" viewBox="0 0 185 85" version="1.1" xmlns="http://www.w3.org/2000/svg" xmlns:xlink="http://www.w3.org/1999/xlink">
    <!-- Generator: Sketch 43 (38999) - http://www.bohemiancoding.com/sketch -->
    <title>Group 3</title>
    <desc>Created with Sketch.</desc>
    <defs>
        <path d="M5.64,25.62 C6.6000048,27.1800078 7.08,28.4199954 7.08,29.34 C7.08,30.2600046 6.8600022,31.0799964 6.42,31.8 C5.9799978,32.5200036 5.4000036,32.88 4.68,32.88 C3.3199932,32.88 2.2000044,31.7200116 1.32,29.4 C0.4399956,27.0799884 0,24.6400128 0,22.08 C0,18.2399808 1.4199858,14.8000152 4.26,11.76 C7.1000142,8.7199848 10.719978,7.2 15.12,7.2 C18.0800148,7.2 20.2999926,8.6199858 21.78,11.46 C23.2600074,14.3000142 24,17.519982 24,21.12 C24,24.720018 23.900001,28.0999842 23.7,31.26 C23.499999,34.4200158 23.3200008,36.8599914 23.16,38.58 C22.9999992,40.3000086 22.6800024,43.0199814 22.2,46.74 C21.7199976,50.4600186 21.4000008,53.0399928 21.24,54.48 C27.640032,54.48 34.3599648,51.2400324 41.4,44.76 C42.3600048,33.2399424 43.6999914,24.2200326 45.42,17.7 C47.1400086,11.1799674 48.8799912,6.6000132 50.64,3.96 C52.4000088,1.3199868 54.2999898,0 56.34,0 C58.3800102,0 60.0599934,0.9199908 61.38,2.76 C62.7000066,4.6000092 63.36,6.7999872 63.36,9.36 C63.36,18.8000472 59.160042,28.9999452 50.76,39.96 C50.2799976,46.2800316 50.04,52.0999734 50.04,57.42 C50.04,62.7400266 50.8199922,67.899975 52.38,72.9 C53.9400078,77.900025 54.72,80.699997 54.72,81.3 C54.72,81.900003 54.2800044,82.3799982 53.4,82.74 C52.5199956,83.1000018 51.5600052,83.28 50.52,83.28 C47.719986,83.28 45.4400088,82.5600072 43.68,81.12 C42.7999956,80.3999964 42.0800028,77.9600208 41.52,73.8 C40.9599972,69.6399792 40.68,65.7400182 40.68,62.1 C40.68,58.4599818 40.7999988,54.5200212 41.04,50.28 C33.9199644,56.3600304 27.160032,59.5199988 20.76,59.76 C20.6799996,60.8800056 20.6000004,62.739987 20.52,65.34 C20.4399996,67.940013 20.3200008,69.8599938 20.16,71.1 C19.9999992,72.3400062 19.6800024,73.759992 19.2,75.36 C18.399996,78.3200148 16.4800152,79.8 13.44,79.8 C11.5999908,79.8 10.68,78.2200158 10.68,75.06 C10.68,71.8999842 11.1599952,66.4000392 12.12,58.56 C8.519982,57.0399924 6.72,54.3600192 6.72,50.52 C6.72,47.719986 7.4399928,45.3400098 8.88,43.38 C10.3200072,41.4199902 12.0799896,40.44 14.16,40.44 C14.8800036,33.0799632 15.24,27.40002 15.24,23.4 C15.24,16.199964 14.1200112,12.6 11.88,12.6 C6.7599744,12.6 4.2,15.199974 4.2,20.4 C4.2,22.3200096 4.6799952,24.0599922 5.64,25.62 Z M59.52,11.4 C59.52,10.199994 59.3400018,9.100005 58.98,8.1 C58.6199982,7.099995 58.1600028,6.6 57.6,6.6 C55.3599888,6.6 53.3200092,15.2799132 51.48,32.64 C56.8400268,24.4799592 59.52,17.40003 59.52,11.4 Z M13.8,44.28 C12.6799944,45.080004 12.12,46.1599932 12.12,47.52 C12.12,48.8800068 12.4399968,49.9999956 13.08,50.88 L13.8,44.28 Z M75.18,79.8 C70.6999776,79.8 67.1400132,78.100017 64.5,74.7 C61.8599868,71.299983 60.54,67.4400216 60.54,63.12 C60.54,54.3999564 62.3799816,47.8000224 66.06,43.32 C69.7400184,38.8399776 74.4999708,36.6 80.34,36.6 C83.0600136,36.6 85.2999912,37.3399926 87.06,38.82 C88.8200088,40.3000074 89.7,42.3199872 89.7,44.88 C89.7,49.680024 87.6800202,53.6999838 83.64,56.94 C79.5999798,60.1800162 74.6600292,61.8799992 68.82,62.04 C69.1400016,65.1600156 70.199991,67.8599886 72,70.14 C73.800009,72.4200114 75.899988,73.56 78.3,73.56 C80.700012,73.56 82.8599904,73.0000056 84.78,71.88 C86.7000096,70.7599944 88.459992,69.1600104 90.06,67.08 C91.579777,65.0898159 92.7652551,63.8306866 94.0886184,61.5950143 C94.0886184,66.4181322 94.2550311,67.646825 94.0886184,67.9044753 C88.897971,75.9409532 82.6989795,79.8 75.18,79.8 Z M68.82,59.16 C73.5400236,58.359996 76.999989,56.8400112 79.2,54.6 C81.400011,52.3599888 82.5,49.440018 82.5,45.84 C82.5,42.239982 81.3400116,40.44 79.02,40.44 C76.219986,40.44 73.8600096,42.3799806 71.94,46.26 C70.0199904,50.1400194 68.9800008,54.4399764 68.82,59.16 Z M102.84,79.8 C101.079991,79.8 99.4600074,79.5800022 97.98,79.14 C96.4999926,78.6999978 95.6000016,78.280002 95.28,77.88 C94.479996,76.9199952 94.08,71.940045 94.08,62.94 C94.08,53.939955 95.07999,41.7200772 97.08,26.28 C98.7600084,13.5599364 102.679969,7.2 108.84,7.2 C110.280007,7.2 111.319997,7.9799922 111.96,9.54 C112.600003,11.1000078 112.92,12.5999928 112.92,14.04 C112.92,24.440052 109.760032,36.0799356 103.44,48.96 C103.199999,55.6000332 103.08,61.3799754 103.08,66.3 C103.08,71.2200246 103.519996,73.68 104.4,73.68 C105.760007,73.5999996 107.639988,71.9000166 110.04,68.58 C111.198609,66.9772578 112.352548,65.1554636 113.501826,63.114603 C113.501826,64.7275228 113.501826,68.5623417 113.501826,69.9822077 C109.37561,76.8931801 105.937817,79.8 102.84,79.8 Z M109.92,15.12 C109.92,12.5599872 109.600003,11.28 108.96,11.28 C106.559988,11.28 104.800006,21.2399004 103.68,41.16 C107.840021,30.1999452 109.92,21.520032 109.92,15.12 Z M122.22,79.8 C120.459991,79.8 118.840007,79.5800022 117.36,79.14 C115.879993,78.6999978 114.980002,78.280002 114.66,77.88 C113.859996,76.9199952 113.46,71.940045 113.46,62.94 C113.46,53.939955 114.45999,41.7200772 116.46,26.28 C118.140008,13.5599364 122.059969,7.2 128.22,7.2 C129.660007,7.2 130.699997,7.9799922 131.34,9.54 C131.980003,11.1000078 132.3,12.5999928 132.3,14.04 C132.3,24.440052 129.140032,36.0799356 122.82,48.96 C122.579999,55.6000332 122.46,61.3799754 122.46,66.3 C122.46,71.2200246 122.899996,73.68 123.78,73.68 C125.140007,73.5999996 127.019988,71.9000166 129.42,68.58 C130.631202,66.9045043 131.837301,64.9896182 133.038306,62.8353254 C133.357709,65.6945922 133.336469,65.6499248 134.047136,68.1110073 C129.501132,76.1743069 125.566126,79.8 122.22,79.8 Z M129.3,15.12 C129.3,12.5599872 128.980003,11.28 128.34,11.28 C125.939988,11.28 124.180006,21.2399004 123.06,41.16 C127.220021,30.1999452 129.3,21.520032 129.3,15.12 Z M170.4,53.16 C173.600016,52.1199948 175.819994,51.2200038 177.06,50.46 C178.300006,49.6999962 179.239997,49.120002 179.88,48.72 L181.32,47.88 C181.720002,47.6399988 182.039999,47.52 182.28,47.52 C182.920003,47.52 183.24,47.8799964 183.24,48.6 C183.24,49.3200036 182.000012,50.579991 179.52,52.38 C177.039988,54.180009 173.960018,55.7999928 170.28,57.24 C169.719997,63.9600336 167.600018,69.3999792 163.92,73.56 C160.239982,77.7200208 155.000034,79.8 148.2,79.8 C143.239975,79.8 139.440013,77.8200198 136.8,73.86 C134.159987,69.8999802 132.84,65.2600266 132.84,59.94 C132.84,54.6199734 134.419984,49.6000236 137.58,44.88 C140.740016,40.1599764 144.799975,37.8 149.76,37.8 C152.000011,36.199992 154.659985,35.4 157.74,35.4 C160.820015,35.4 163.679987,37.0399836 166.32,40.32 C168.960013,43.6000164 170.32,47.8799736 170.4,53.16 Z M162.6,59.28 L158.28,59.52 C154.599982,59.52 151.480013,58.420011 148.92,56.22 C146.359987,54.019989 145.08,51.6000132 145.08,48.96 C145.08,46.3199868 145.519996,44.0400096 146.4,42.12 C142.959983,44.8400136 141.24,50.19996 141.24,58.2 C141.24,62.0400192 142.039992,65.6999826 143.64,69.18 C145.240008,72.6600174 147.759983,74.4 151.2,74.4 C154.640017,74.4 157.31999,72.9400146 159.24,70.02 C161.16001,67.0999854 162.279998,63.5200212 162.6,59.28 Z M155.16,39.36 C153.879994,39.36 152.880004,39.9399942 152.16,41.1 C151.439996,42.2600058 151.08,43.5199932 151.08,44.88 C151.08,47.8400148 152.09999,50.2399908 154.14,52.08 C156.18001,53.9200092 158.559986,54.84 161.28,54.84 L162.72,54.84 C162.559999,50.9199804 161.900006,47.360016 160.74,44.16 C159.579994,40.959984 157.720013,39.36 155.16,39.36 Z" id="path-1"></path>
    </defs>
    <g id="Introduction" stroke="none" stroke-width="1" fill="none" fill-rule="evenodd">
        <g id="Artboard-3" transform="translate(-1218.000000, -1211.000000)">
            <g id="Group-3" transform="translate(1219.000000, 1212.000000)">
                <mask id="mask-2" fill="white">
                    <use xlink:href="#path-1"></use>
                </mask>
                <use id="Mask" stroke="#000000" xlink:href="#path-1"></use>
                <path d="M6.48519563,31.9595792 C6.48519563,31.9595792 3.62899603,28.6016948 2.76597044,25.9319935 C1.90294486,23.2622922 2.76597044,17.0763813 2.76597044,17.0763813 C2.76597044,17.0763813 6.5076855,11.8221474 9.15039546,10.7339374 C11.7931054,9.64572742 16.2446009,9.79446045 18.8759159,13.621637 C21.507231,17.4488136 14.0178036,79.3385439 14.0178036,79.3385439 C14.0178036,79.3385439 14.7482721,63.4716057 15.6319767,55.4620958 C16.5156813,47.4525859 18.5643562,41.3456526 18.5643562,41.3456526 C18.5643562,41.3456526 13.20427,42.4812412 11.7574215,43.2575916 C10.310573,44.033942 9.61068819,45.7248806 9.70274673,48.8797599 C9.79480528,52.0346392 10.341759,53.6260226 10.7999526,53.9975553 C11.2581463,54.369088 17.8917591,56.2201544 17.8917591,56.2201544 C17.8917591,56.2201544 20.9563329,57.5877671 23.7365996,57.0925557 C26.5168663,56.5973443 37.5816193,46.2556696 40.9569524,46.2556696" id="Path-3" stroke="#979797" stroke-width="10" mask="url(#mask-2)"></path>
                <path d="M39.1091769,49.1992422 C39.1091769,49.1992422 43.6662575,45.5065609 46.3375126,42.5816788 C49.0087677,39.6567967 55.4875268,29.509717 55.4875268,29.509717 C55.4875268,29.509717 59.5754178,24.2458023 60.9212537,18.0363869 C62.2670896,11.8269714 60.6235247,5.99552045 60.6235247,5.99552045" id="Path-4" stroke="#979797" stroke-width="4" mask="url(#mask-2)"></path>
                <path d="M61.1871594,7.69696668 C61.1871594,7.69696668 60.4042317,5.63652144 59.5780056,4.76134809 C58.7517794,3.88617473 56.1130814,2.61445471 54.511955,3.82243788 C52.9108286,5.03042105 51.5253719,7.69620165 50.3244561,13.1603266 C49.1235403,18.6244517 46.2372834,32.4668528 45.9505156,41.9907737 C45.6637479,51.5146946 44.7392247,61.3968733 49.3210466,85.2220238" id="Path-5" stroke="#979797" stroke-width="12" mask="url(#mask-2)"></path>
                <path d="M57.8487439,60.7908706 C57.8487439,60.7908706 63.8639834,61.100223 70.1600197,60.3920439 C76.456056,59.6838647 80.6760993,57.7068646 84.8495019,52.0238221 C89.0229044,46.3407796 87.6408129,40.2336862 81.5118269,38.9305985 C75.3828409,37.6275108 70.0757806,42.1174047 67.7275575,46.4264464 C65.3793345,50.7354881 64.7228316,55.9696828 64.7228316,61.7869367 C64.7228316,67.6041905 65.8584642,73.484038 72.0468297,75.8984149 C78.2351952,78.3127918 82.0891261,76.1157151 85.8946372,73.9854665 C89.7001483,71.855218 89.3274172,64.0428598 89.3274172,64.0428598" id="Path-6" stroke="#979797" stroke-width="10" stroke-linecap="round" stroke-linejoin="bevel" mask="url(#mask-2)"></path>
                <path d="M93.484229,65.6923158 C93.484229,65.6923158 98.1852507,57.8279538 104.039594,44.1640546 C109.893936,30.5001554 111.291174,23.4165687 111.291174,18.9816813 C111.291174,14.5467939 112.10245,12.3928026 110.389342,10.0398034 C108.76068,7.80279405 105.824741,10.0032083 103.462004,14.4475162 C101.099267,18.8918241 99.4738663,33.7142757 99.4738663,38.7944682 C99.4738663,52.1538837 98.3988409,64.3048534 99.2608178,73.5032591 C100.122795,82.7016648 110.635362,73.6173922 116.140927,61.151518 C121.646492,48.6856439 130.978958,28.8482187 131.119541,18.0504999 C131.178341,13.5343277 130.532982,11.0146638 129.59545,9.91911917 C127.008575,6.8962509 123.421171,13.2634303 122.109908,16.0214665 C120.798645,18.7795026 118.417067,28.2653017 118.417067,38.7944682 C118.417067,67.6658024 117.832623,69.8330155 118.417067,74.4137282 C118.566708,75.586569 119.412124,78.1360362 122.109908,77.714176 C124.807692,77.2923158 126.049386,75.2684254 127.5,73 C129.5229,69.8366511 128,65 128,65" id="Path-2" stroke="#979797" stroke-width="11" stroke-linecap="round" stroke-linejoin="bevel" mask="url(#mask-2)"></path>
                <path d="M133,66.5 C133,66.5 136.5,64 137.5,54.5 C138.5,45 145.5,40.5 145.5,40.5 C145.5,40.5 141.585791,44.0415547 138,51.5 C134.414209,58.9584453 137.5,64 139,69 C140.5,74 146.5,77.5 152.5,77 C158.5,76.5 160.5,75.5 164,68.5 C167.5,61.5 166,52.5 165.5,47.5 C165,42.5 160.5,39 159.5,38.5 C158.5,38 155.375,37 152.5,38 C149.625,39 148,43 148,47.5 C148,52 150,55.5 156,56.5 C158.573805,56.9289676 163.957639,57.3565955 169,55.5 C173.250679,53.9349017 180.5079,49.6863288 182.5,48.5" id="Path-7" stroke="#979797" stroke-width="11" mask="url(#mask-2)"></path>
            </g>
        </g>
    </g>
</svg>