<?xml version="1.0" encoding="UTF-8"?>
<svg width="389px" height="506px" viewBox="0 0 389 506" version="1.1" xmlns="http://www.w3.org/2000/svg" xmlns:xlink="http://www.w3.org/1999/xlink">
    <!-- Generator: Sketch 43 (38999) - http://www.bohemiancoding.com/sketch -->
    <title>H</title>
    <desc>Created with Sketch.</desc>
    <defs></defs>
    <g id="Introduction" stroke="none" stroke-width="1" fill="none" fill-rule="evenodd">
        <g id="Artboard-3" transform="translate(-285.000000, -288.000000)" stroke="#000000">
            <g id="Group" transform="translate(286.000000, 281.000000)">
                <g id="Group-2">
                    <path d="M4.32,507.32 C1.4399856,504.199984 0,500.240024 0,495.44 L0,25.28 C0,19.9999736 1.4399856,15.8000156 4.32,12.68 C7.2000144,9.5599844 11.039976,8 15.84,8 L50.4,8 C55.6800264,8 59.8799844,9.5599844 63,12.68 C66.1200156,15.8000156 67.68,19.9999736 67.68,25.28 L67.68,225.44 L318.24,225.44 L318.24,25.28 C318.24,19.9999736 319.799984,15.8000156 322.92,12.68 C326.040016,9.5599844 329.999976,8 334.8,8 L369.36,8 C374.640026,8 378.839984,9.5599844 381.96,12.68 C385.080016,15.8000156 386.64,19.9999736 386.64,25.28 L386.64,495.44 C386.64,500.240024 384.960017,504.199984 381.6,507.32 C378.239983,510.440016 374.160024,512 369.36,512 L334.8,512 C329.999976,512 326.040016,510.440016 322.92,507.32 C319.799984,504.199984 318.24,500.240024 318.24,495.44 L318.24,288.08 L67.68,288.08 L67.68,495.44 C67.68,500.240024 66.0000168,504.199984 62.64,507.32 C59.2799832,510.440016 55.200024,512 50.4,512 L15.84,512 C11.039976,512 7.2000144,510.440016 4.32,507.32 Z" id="H"></path>
                </g>
            </g>
        </g>
    </g>
</svg>