<?xml version="1.0" encoding="UTF-8"?>
<svg width="9px" height="64px" viewBox="0 0 9 64" version="1.1" xmlns="http://www.w3.org/2000/svg" xmlns:xlink="http://www.w3.org/1999/xlink">
    <!-- Generator: Sketch 43 (38999) - http://www.bohemiancoding.com/sketch -->
    <title>l</title>
    <desc>Created with Sketch.</desc>
    <defs></defs>
    <g id="Introduction" stroke="none" stroke-width="1" fill="none" fill-rule="evenodd">
        <g id="Artboard" transform="translate(-210.000000, -379.000000)" fill="#ECF5FF">
            <path d="M211.475,442.415 C211.084999,442.024998 210.89,441.530003 210.89,440.93 L210.89,381.17 C210.89,380.509997 211.084999,380.000002 211.475,379.64 C211.865002,379.279998 212.359997,379.1 212.96,379.1 L216.92,379.1 C217.520003,379.1 218.014999,379.294998 218.405,379.685 C218.795002,380.075002 218.99,380.569997 218.99,381.17 L218.99,440.93 C218.99,441.530003 218.795002,442.024998 218.405,442.415 C218.014999,442.805002 217.520003,443 216.92,443 L212.96,443 C212.359997,443 211.865002,442.805002 211.475,442.415 Z" id="l"></path>
        </g>
    </g>
</svg>