<?xml version="1.0" encoding="UTF-8"?>
<svg width="44px" height="49px" viewBox="0 0 44 49" version="1.1" xmlns="http://www.w3.org/2000/svg" xmlns:xlink="http://www.w3.org/1999/xlink">
    <!-- Generator: Sketch 43 (38999) - http://www.bohemiancoding.com/sketch -->
    <title>o</title>
    <desc>Created with Sketch.</desc>
    <defs></defs>
    <g id="Introduction" stroke="none" stroke-width="1" fill="none" fill-rule="evenodd">
        <g id="Artboard" transform="translate(-227.000000, -396.000000)" fill="#ECF5FF">
            <path d="M233.64,439.32 C230.069983,435.599981 228.165002,430.650031 227.925,424.47 L227.835,420.6 L227.925,416.73 C228.165002,410.549969 230.099982,405.600019 233.73,401.88 C237.360019,398.159981 242.414968,396.3 248.895,396.3 C255.375033,396.3 260.429982,398.159981 264.06,401.88 C267.690019,405.600019 269.624999,410.549969 269.865,416.73 C269.985001,418.050007 270.045,419.339994 270.045,420.6 C270.045,421.860006 269.985001,423.149993 269.865,424.47 C269.624999,430.650031 267.720018,435.599981 264.15,439.32 C260.579983,443.040019 255.495033,444.9 248.895,444.9 C242.294967,444.9 237.210018,443.040019 233.64,439.32 Z M258.03,434.505 C260.280012,432.074988 261.495,428.580023 261.675,424.02 C261.735001,423.419997 261.765,422.280008 261.765,420.6 C261.765,418.919992 261.735001,417.780003 261.675,417.18 C261.495,412.619977 260.280012,409.125012 258.03,406.695 C255.779989,404.264988 252.73502,403.05 248.895,403.05 C245.054981,403.05 242.010012,404.264988 239.76,406.695 C237.509989,409.125012 236.295001,412.619977 236.115,417.18 L236.025,420.6 L236.115,424.02 C236.295001,428.580023 237.509989,432.074988 239.76,434.505 C242.010012,436.935012 245.054981,438.15 248.895,438.15 C252.73502,438.15 255.779989,436.935012 258.03,434.505 Z" id="o"></path>
        </g>
    </g>
</svg>