<svg width="204px" height="97px" viewBox="0 0 204 97" version="1.1" xmlns="http://www.w3.org/2000/svg" xmlns:xlink="http://www.w3.org/1999/xlink">
    <clipPath id="clip-h-3">
        <path d="M45.2773943,49.900652 C45.9397226,44.7707531 46.6786935,32.2039594 48.4699285,24.3951089 C50.2611635,16.5862583 51.7874398,11.9396938 53.6771288,7.58267222 C55.5668178,3.22565066 58.4116539,0.376197739 61.211953,0.2065225 C64.0122521,0.0368472612 67.06258,1.86907678 68.5836785,6.49156119 C68.5836785,6.49156119 65.4627963,11.6939987 64.9876157,9.97295271 C63.6344888,5.07209272 61.5790879,7.93551405 61.0869087,9.38852112 C57.9558097,18.6321237 55.7003804,40.9499431 55.2276662,47.4110668 C54.754952,53.8721906 54.7490448,58.7432689 54.7490448,64.0632955 C54.7490448,69.3833221 55.6823363,74.3150082 57.2423441,79.3150332 C58.8023519,84.3150582 59.8719067,87.2482601 59.7035959,88.5974419 C59.3952498,91.0691498 50.8562635,91.4105523 47.5690465,87.7181472 C46.2868243,86.2778759 46.2954574,84.8098 45.7318103,81.8381709 C43.8290548,71.8065683 44.615066,55.0305508 45.2773943,49.900652 Z" id="H-3"></path>
    </clipPath>
    <clipPath id="clip-h-2">
        <path d="M30.961672,57.9317664 C36.813041,55.9853502 49.2112671,47.7082884 58.5304211,32.1982874 C61.5309926,27.2043934 64.6533306,20.1594252 65.1277332,14.3708387 C65.5244383,9.53030438 64.1365406,7.71171276 63.61096,7.320416 C64.7901119,4.7411641 64.4037631,4.82314246 68.160323,5.4313206 C69.4758224,8.70961085 69.0593648,11.5932982 68.7973895,14.8510122 C67.9861424,23.6625951 63.7013388,30.995796 60.3578402,36.4157642 C56.1936397,43.1661288 50.1064434,50.1928379 45.0140644,54.5295086 C39.9216854,58.8661794 35.8882718,61.5329491 30.4958263,63.431927 C25.1033808,65.330905 18.2294559,65.6795047 13.6005661,63.6563489 C9.45380969,61.8439198 7.87714576,59.3090938 7.74077775,54.7056459 C7.65785622,51.9064196 8.57417889,49.1918155 10.2047764,47.05075 C11.7752479,44.9886333 13.6210423,44.0105237 15.8075403,44.0291953 C15.7564739,44.5335063 15.6221128,46.5985344 15.2813701,48.2080486 C12.938638,49.8084796 13.3846834,52.7490904 13.7518609,53.9414356 C14.589753,56.6623445 19.6040638,61.7097937 30.961672,57.9317664 Z" id="H-2"></path>
    </clipPath>
    <clipPath id="clip-h-1">
        <path d="M5.62975843,26.0866415 C6.30410475,27.6755132 7.43655564,29.1500419 7.91164331,30.7981349 C8.38673099,32.446228 8.308342,33.0032658 7.49563613,34.4997917 C6.68293026,35.9963177 4.96501088,36.164483 3.9083705,35.1545986 C2.61155158,33.9151634 1.38812307,32.0023086 0.68834571,26.6414404 C-0.011431649,21.2805723 1.6424354,16.5912494 4.99357778,13.0626798 C8.34472016,9.5341102 12.0569866,8.01904413 17.0093385,8.01387262 C19.9693531,8.01078162 22.5836424,9.57890394 24.2418485,13.0843506 C25.9000545,16.5897973 26.35428,19.6371804 26.380473,23.2362452 C26.4684612,35.3262936 25.2682739,44.6096807 24.7882715,48.3296993 C24.3082691,52.0497179 23.1728184,61.3546897 22.4299814,76.2626438 C22.3045725,78.7794692 21.0473044,83.1321901 20.1052793,84.3955014 C18.7045403,86.2739751 16.3554992,86.7430393 14.6338751,86.6290634 C10.9746616,86.3868143 12.2582833,79.3523094 12.2582833,76.1922936 C12.2582833,73.0322778 13.1355825,67.5847354 14.0955873,59.7446962 C15.4155873,46.6846962 16.0648368,41.4017009 16.0648368,41.4017009 C16.0648368,41.4017009 17.0348951,28.3407005 16.9769752,24.538778 C16.8657123,17.2353571 15.559085,13.9314493 13.4233923,13.839994 C10.3908104,13.7101318 6.2882929,15.2020096 5.30678666,19.2965479 C4.69524271,21.8477188 4.95541211,24.4977697 5.62975843,26.0866415 Z" id="H-1"></path>
    </clipPath>
    <clipPath id="clip-e">
        <path d="M9.49836563,52.5318552 C14.4134059,51.6343651 20.4697654,49.8588289 22.9309065,44.5621611 C23.3732403,43.6102063 23.8602722,42.3793434 24.0850384,41.2126878 C24.3098047,40.0460322 24.4001014,36.835668 24.0592068,35.3162313 C23.7648936,34.0044173 23.041604,33.1153034 22.2046209,32.6197835 C20.7791826,31.7758801 18.0841116,32.4305059 16.7672203,33.4966893 C14.3670582,35.4399119 13.4080515,37.2451376 11.9079501,40.6269636 C10.4078487,44.0087896 9.99593374,47.5792842 9.92688264,48.1001449 C9.66837607,50.0500907 8.53608327,54.9523713 10.5515722,60.2548873 C11.195234,61.9482865 12.6843196,64.3287697 13.7074493,65.351684 C16.0721319,67.7158686 18.6254363,68.275329 20.4368422,68.0879373 C22.7979265,67.8436808 25.7094155,67.6279332 29.0183729,64.7039372 C32.3273304,61.7799411 33.8724179,59.2656448 36.3805868,55.4590976 C36.3731034,55.8721681 36.9833114,54.0436506 39.3524591,50.2560593 C39.8692942,49.4297873 41.5032396,45.6509708 43.3219526,41.508796 C45.1406655,37.3666211 46.0708026,35.6735047 46.8126261,32.9187182 C47.3007449,31.1060727 48.8120858,27.8176378 49.804366,24.5586453 C50.7966463,21.2996527 51.8189873,17.4189582 52.5782065,14.086997 C53.2075492,11.3250206 53.3637295,9.13864234 53.4969224,7.42486313 C53.6301153,5.71108393 53.6754198,3.52431687 53.6758979,3.6011946 C53.676335,3.67148272 55.7674377,1.00341612 56.61009,2.54894546 C57.0620414,3.37788074 56.7627199,7.1223944 56.4678036,9.33436941 C56.3185274,10.4539928 55.9913488,12.9411604 55.5621243,15.2930794 C55.1328999,17.6449984 54.3122891,21.2981588 53.8062938,22.9724298 C53.0683396,25.414222 52.2092612,27.8867102 51.3386011,30.206709 C49.4054425,35.3578876 46.3896333,42.6985476 44.7574811,46.6104351 C43.6359079,49.298584 41.8376992,53.628534 40.62447,56.0668957 C39.4112408,58.5052574 37.6360824,61.0260621 36.4338918,62.7527365 C35.2317012,64.479411 33.997305,66.1706169 32.0310399,68.032924 C30.157122,69.8077664 27.5474476,71.8252383 26.3811138,72.4564676 C23.9909689,73.7500336 20.9227801,74.9724559 16.391069,74.8676169 C11.859358,74.7627779 9.69774363,73.6211366 7.35339679,71.815423 C5.00904996,70.0097094 2.62313538,67.0055207 1.64482212,63.5778377 C0.666508864,60.1501547 0.314288358,59.14792 0.64287411,52.7892625 C0.859449381,48.5981861 1.82102519,44.2916949 3.27801118,40.8352272 C4.73499717,37.3787594 5.38466288,36.8785162 6.53510093,35.3337555 C9.01665809,32.0016231 13.2688905,29.5069151 16.0411459,28.8814678 C18.8134014,28.2560205 22.0345332,27.6302053 25.1637929,28.3963576 C28.2930527,29.1625098 29.2704463,30.4611338 30.4607366,31.7567229 C31.651027,33.0523121 32.3150072,35.9855045 32.0533696,38.5410007 C31.7917319,41.096497 31.1936899,43.2901148 29.3176239,46.1849582 C28.3232503,47.7193157 25.9527523,50.1821744 22.397883,52.2031758 C18.8430138,54.2241771 14.5846866,55.4994974 9.48530674,55.6582641 C9.33890002,54.2284994 9.4444865,53.1772291 9.49836563,52.5318552 Z"></path>
    </clipPath>
    <clipPath id="clip-l1">
        <path d="M17.5041351,7.28648376 C18.9078483,7.93246288 19.3912732,9.50088461 20.740036,6.58018494 C20.7055868,5.69074252 20.3568984,4.42921037 20.1161932,3.67305937 C19.8754879,2.91690838 19.0655743,1.11742059 18.1304917,0.675847016 C17.1954091,0.234273447 16.7833832,0.197533669 15.715367,0.251157688 C14.6473508,0.304781708 12.9639483,0.695809072 11.6656101,1.63140185 C11.3395641,1.86635315 10.2570657,2.73276115 9.9097197,3.13695825 C9.56237374,3.54115535 8.51556656,4.79813792 7.62179738,6.45357967 C6.7280282,8.10902141 5.8846241,10.2512942 5.22770273,12.7943376 C4.57906698,15.3053062 4.18249152,17.1500925 3.76000739,20.0149706 C3.4953026,21.809942 3.17027979,24.6698609 2.7588464,28.1825488 C2.34741302,31.6952368 2.16808504,32.5464916 1.97832654,35.1144465 C1.79300479,37.6223599 1.37924726,40.4599389 1.17678521,43.3043289 C1.08875292,44.5410948 0.758554623,48.6645275 0.587509002,53.2374325 C0.484125257,56.0013971 0.374368323,59.8320292 0.410273952,63.29781 C0.446179581,66.7635909 0.510033568,68.1240697 0.568694873,69.3560581 C0.746977564,73.1003017 1.01818907,75.6150394 1.54437975,76.5528301 C2.07057043,77.4906208 3.96214259,78.0859832 6.4831147,78.5861314 C8.88594103,79.06284 10.197188,78.8909292 11.1041941,78.7108057 C12.0112002,78.5306822 12.9631951,78.0521703 14.5889704,76.7056731 C16.2147458,75.3591759 17.0863317,74.2853677 18.5164222,72.363434 C19.9465127,70.4415004 20.3195556,69.7667184 21.2387912,68.3148062 C23.6363051,64.527986 27.109725,57.6225518 27.9885212,55.6575735 C29.5328787,52.2044075 32.6223355,45.6667722 34.9586554,37.4272108 C35.9692407,33.8631526 37.4720766,30.1622186 38.4499404,26.5165804 C39.4278041,22.8709422 40.737606,17.1630973 40.9192063,14.6332934 C41.2392376,10.1750622 41.6727138,7.51875175 40.93786,4.62095855 C38.9628533,2.83654938 37.9894293,4.87088215 38.0030306,5.88633738 C38.0086507,6.30593062 38.2720338,9.48640042 37.9042883,12.7170395 C37.5365428,15.9476785 36.0963704,22.5640298 35.3729703,25.0655266 C34.1401672,29.3285238 32.7416349,32.7616195 31.4738234,36.8037807 C29.702051,42.45272 30.1078084,41.5216317 27.810867,47.2395578 C25.5139256,52.957484 21.1463234,61.8100055 20.5804772,62.4223097 C18.9464753,64.1904692 16.2742792,69.1351204 14.0039737,71.0126258 C13.4420861,71.4772975 12.163486,72.2790494 11.5990453,72.261112 C11.0346046,72.2431745 10.7678328,71.5350063 10.621323,70.9181595 C10.28716,69.5112404 10.2312816,67.772951 10.1851941,66.720533 C10.1391066,65.668115 10.1790659,60.8907174 10.3373821,53.6646475 C10.4956982,46.4385775 10.6923761,39.6226292 10.9010405,35.5481402 C11.1082475,31.5021071 11.3498884,28.5034705 11.6928891,24.3172863 C12.0358898,20.1311022 12.7639113,14.3620475 13.3013842,11.6856324 C13.4707853,10.8420779 13.7453768,9.5909369 13.8766798,9.06353554 C14.0079827,8.53613419 14.3406501,7.52684033 14.5256159,6.99983182 C14.7105817,6.47282331 15.1253091,5.71098308 15.2966333,5.47896339 C15.7259153,4.89759836 15.9123025,4.78765606 16.3352845,4.66392296 C16.7582666,4.54018986 17.0653521,4.88380756 17.2742885,5.55905762 C17.483225,6.23430768 17.4675029,6.8699481 17.5041351,7.28648376 Z"></path>
    </clipPath>
    <clipPath id="clip-l2">
        <path d="M18.0191368,6.84179536 C19.4816118,6.71157481 21.2386373,6.14260774 21.2386373,6.14260774 C21.2386373,6.14260774 20.5743417,1.19079006 18.1618522,0.448984955 C16.834986,0.040993069 15.6591979,0.276411362 14.4962441,0.55626385 C13.3332903,0.836116339 12.0980308,1.67207703 11.5468543,2.07254249 C10.903139,2.54024342 9.5811714,3.9629295 8.69137637,5.35481633 C7.80158135,6.74670316 6.45504407,10.0482392 5.85029835,12.150115 C5.12603294,14.6673977 4.42979603,18.6216183 4.02602412,22.0509281 C3.6222522,25.4802379 2.69851911,33.0565423 2.06479359,39.8006843 C1.43106807,46.5448263 1.13158411,50.7051287 0.941890235,57.3384996 C0.852342656,60.4698728 0.869856506,62.7106051 0.918083626,64.4271063 C0.966310747,66.1436074 0.985853196,67.51173 1.09946731,70.476819 C1.3146715,76.0931947 1.90978324,76.2540243 2.12608007,76.6268595 C3.06162311,78.2394738 9.75782185,79.3154483 11.687551,78.7147558 C13.756439,78.0707455 15.7996702,76.4199688 17.5441656,74.2443093 C19.288661,72.0686497 20.4999247,70.2393613 21.4704611,68.7100285 C23.5547675,65.4256612 25.4706326,61.8677069 27.5245195,57.4303251 C28.8420407,54.5838466 30.0503106,51.7297157 30.7745876,49.3672581 C31.4988646,47.0048006 31.3750319,46.5857381 31.4941414,46.0765835 C31.629567,45.4976829 32.0088093,44.1946964 32.3740863,43.3491566 C32.7393634,42.5036168 33.3702814,41.187065 33.6996123,40.6905497 C34.1913152,39.9492343 35.10668,38.9269014 36.1405754,37.9921222 C37.1744708,37.057343 35.6435378,37.6775539 33.9225832,38.8340276 C33.316463,39.2413377 31.7555922,40.7763571 30.8623548,42.1952414 C29.9691174,43.6141258 28.2084551,47.804426 28.0644594,48.1975127 C27.8421752,48.8043154 26.4892991,51.3354335 25.2960135,53.8638273 C24.1027278,56.3922211 21.636587,60.7960188 21.664493,61.3061146 C21.2577798,61.9960999 20.155137,63.8984283 19.5547282,64.795828 C18.3620663,66.5784373 16.6852944,68.722087 16.2710162,69.1947194 C15.856738,69.6673519 15.4535904,70.1252679 14.9651838,70.5454463 C14.4767772,70.9656247 14.2087179,71.2460608 13.8175517,71.5361833 C13.1268608,72.0484591 12.6801176,72.162286 12.2797364,72.2432167 C12.0831545,72.2829526 11.8841763,72.2612989 11.6942046,72.0778906 C11.5042329,71.8944823 11.3111416,71.5295528 11.2135916,71.219264 C11.1348493,70.968799 10.8432733,69.5643807 10.7333102,67.8359846 C10.623347,66.1075885 10.6764315,62.1570662 10.6730562,60.3587352 C10.6673268,57.3061884 10.9290732,51.5893274 11.0183965,46.3145022 C11.1077198,41.0396769 11.7142021,25.2113152 12.5184089,20.0830871 C13.3226157,14.9548589 14.1976123,9.25946631 14.9545716,7.20405665 C15.1808478,6.58963733 15.7965739,5.41361615 16.1254923,5.06180882 C16.4544106,4.71000149 17.1501427,4.50159801 17.3834585,4.76846743 C17.6167743,5.03533686 17.7294066,5.24829284 18.0191368,6.84179536 Z"></path>
    </clipPath>
    <clipPath id="clip-o-1">
        <path d="M15.1509735,6.00049546 C15.1509735,6.00049546 18.0099707,2.22103285 18.7105027,1.39880582 C18.8092152,1.30060882 17.3897522,1.37293859 15.9847123,1.62476874 C14.5796724,1.87659889 13.5328461,2.29708881 13.5328461,2.29708881 C13.5328461,2.29708881 11.0314463,3.17196364 9.0933862,4.96856529 C7.15532605,6.76516694 6.12459742,8.106129 5.08380551,9.73199335 C3.27749322,12.5537089 2.59752972,14.4633229 1.96653068,16.0766577 C1.33553164,17.6899924 0.849542743,20.130904 0.587051132,22.0524822 C0.32455952,23.9740604 0.41661714,28.4989527 0.856189502,30.730713 C1.14290512,32.1864017 1.46165005,33.5506262 2.04806426,35.147097 C2.63447847,36.7435677 3.00051878,37.5308306 3.75041016,38.8466279 C5.30018002,41.5659324 6.75682929,42.9993251 7.92119637,43.9194902 C8.53261249,44.4026743 9.81091877,45.2356585 11.2512229,45.811878 C12.691527,46.3880974 13.9954899,46.6161559 15.0764884,46.7468001 C17.3527827,47.0219018 19.7783967,46.76737 20.8473712,46.6538563 C22.0177468,46.5295748 23.7079484,46.1697602 25.1045652,45.7647414 C26.5011821,45.3597226 27.890563,44.8018989 28.781608,44.2778059 C30.4768408,43.2807072 32.9239935,41.7708736 35.0599967,38.9294726 C36.0153639,37.6586032 37.1763046,35.9032195 38.0203822,34.1491414 C38.8644598,32.3950633 39.7060063,29.8488894 39.8746295,29.0309574 C39.9960414,28.4420305 40.3854301,26.9852756 40.6625799,25.2721725 C40.9397296,23.5590694 41.1596083,19.1842868 41.1420447,17.900918 C41.1249139,16.6491765 40.9270597,14.3771739 40.5061261,12.4156736 C40.0851926,10.4541733 39.4153636,8.7074113 39.0994018,7.958169 C38.716073,7.04917911 37.6585492,5.33048243 36.5061973,3.85064771 C35.3538454,2.37081298 34.5057228,1.8525853 33.5382657,0.938858674 C31.1839572,0.66824961 28.4223717,4.38989896 28.7551451,4.84716541 C28.9416343,5.10342168 29.4485111,5.66441551 29.9315051,6.58653711 C30.4144991,7.5086587 30.6417993,8.26900651 31.0120073,9.38618654 C31.8541722,11.9275949 32.5730824,15.9036138 32.6928243,18.3735075 C32.7648306,19.8587673 32.88772,21.7696454 32.772053,23.7627283 C32.6563859,25.7558112 32.445379,28.5968988 30.7622507,32.9704642 C30.0560988,34.8053818 28.3844699,37.646183 26.2232938,39.2175251 C25.0661978,40.0588234 22.8415638,41.1224809 20.195428,41.004922 C19.6827285,40.9821445 18.2008805,40.9450475 16.9632952,40.3851533 C15.7257099,39.825259 14.7420666,39.2286968 14.2162295,38.5251408 C13.986294,38.2174933 13.2173083,37.4345506 12.5465613,36.2444721 C11.8758142,35.0543936 10.257256,31.2288773 9.83149241,27.8247721 C9.49782705,25.1570195 9.47430791,23.040687 9.56896613,21.0972494 C9.66362434,19.1538117 9.90063999,17.2287424 10.2893182,15.2436356 C11.0501873,11.3576289 12.1446622,9.48210848 13.1802211,8.06812661 C14.21578,6.65414474 15.1509735,6.00049546 15.1509735,6.00049546 Z" fill="#FF0000" opacity="0.55247962"></path>
    </clipPath>
    <clipPath id="clip-o-2">
        <path d="M15.7845762,6.87596993 C14.9090577,5.98443128 13.9948488,5.46935191 13.0421485,5.24133271 C12.0894482,5.01331351 11.1131815,4.98017129 10.3517223,5.24564414 C9.89160381,5.40605849 8.99883755,6.00661591 8.5653212,6.60622244 C8.13180486,7.20582896 7.46868816,8.62458026 7.42301483,8.95916698 C7.34679897,9.51749762 6.95401714,12.3604322 7.65298693,14.4394446 C8.35195673,16.5184571 9.46562158,18.5807591 13.3037756,20.7672521 C14.8739862,21.6617588 17.6334451,22.0163547 20.1595948,21.8181104 C22.6857445,21.6198661 25.7848621,20.7693639 26.8991993,20.4319219 C28.7850477,19.8608521 31.8027952,18.8339866 33.9574226,17.7668606 C36.2823544,16.6153877 38.9338007,14.7311923 40.1460694,14.189558 C41.3583381,13.6479237 41.0712045,14.0321142 41.282568,13.974095 C41.947481,13.7915769 42.3371234,15.4657209 41.3431781,16.3214882 C40.0557485,17.4299398 37.9793172,20.2707436 28.1110099,24.4342824 C26.5232171,25.1041882 25.055644,25.8293201 21.4173228,26.3874874 C19.4808426,26.6845694 17.0362224,26.8868128 15.071124,26.8810872 C13.1060256,26.8753616 12.0399074,26.6950258 11.0558792,26.4879476 C9.14258659,26.0853157 7.68188846,25.2929238 6.81402774,24.7635486 C5.94616703,24.2341734 4.86598541,23.453136 4.03932681,22.5853902 C3.16347277,21.6660037 2.49225128,20.9910323 1.81088375,19.7183677 C1.12951623,18.4457031 0.819228842,17.5140094 0.721649345,15.9133195 C0.644088808,14.6410197 0.803995364,13.3686477 0.903726583,12.257856 C1.0034578,11.1470643 1.55570223,9.1667783 2.13113327,8.04650955 C2.59273971,7.14783842 2.97256872,6.32594548 3.5160378,5.60625301 C4.05950688,4.88656054 4.86901422,4.13966704 5.48756266,3.61148032 C6.46766509,2.77455785 8.66226767,1.68023453 9.54627171,1.46002331 C10.4302757,1.2398121 13.6729305,0.301841555 16.3871793,0.98798643 C19.101428,1.67413131 20.2054294,2.72753136 21.0102558,3.36361001 C23.2775446,6.30022225 18.050775,9.18363544 15.7845762,6.87596993 Z"></path>
    </clipPath>
    
    <g id="Introduction" stroke="none" stroke-width="1" fill="none" fill-rule="evenodd">
        <path clip-path="url(#clip-h-1)" d="M5.41590217,32.9305727 C5.41590217,32.9305727 1.42040482,28.31203 2.32845005,22.4328446 C3.23649528,16.5536591 6.71002074,13.6380184 8.74939395,12.6699685 C10.9222656,11.6385496 16.287246,9.80995996 18.8901814,12.6052838 C20.6185381,14.461387 21.423052,18.9291719 21.6122144,22.5781131 C21.8013767,26.2270542 20.6843164,41.3713483 20.64353,44.9557517 C20.6027436,48.5401552 16.4929601,82.9345097 16.4929601,82.9345097" id="H-1-path" stroke="#f5faff" stroke-width="11" stroke-linecap="round" stroke-linejoin="round"></path>
        <path clip-path="url(#clip-h-2)" d="M14.3888442,46.2633007 C14.3888442,46.2633007 10.6252987,50.5428858 10.7694205,53.9550599 C10.9135424,57.3672341 12.7185715,59.7666311 15.5460989,61.0989142 C18.3736262,62.4311974 23.0159432,63.0783534 32.8845809,59.4073156 C42.7532185,55.7362778 57.7131508,37.9304245 60.0622206,33.5506897 C62.4112903,29.1709549 66.1532614,22.5404391 66.3784668,18.2472238 C66.6036721,13.9540086 68.2144628,9.0841023 65.3399139,5.39684209" id="H-2-path" stroke="#f5faff" stroke-width="8"  stroke-linecap="round" stroke-linejoin="round"></path>
        <path clip-path="url(#clip-h-3)" d="M66.2225429,6.65858671 C64.2504215,4.83082006 61.1950767,3.22227362 59.4343807,4.99218338 C57.6736846,6.76209313 54.8655379,15.7382159 54.4547959,17.0054642 C53.7260747,19.2537636 47.8757197,51.7992743 49.8938836,68.2915235 C51.9120475,84.7837727 53.7356389,86.4470772 53.7356389,86.4470772" id="H-3-path" stroke="#f5faff" stroke-width="14"  stroke-linecap="round" stroke-linejoin="round"></path>
        <g id="E" transform="translate(65.000000, 12.000000)" >
            <path clip-path="url(#clip-e)" d="M14.8560366,53.7423031 C14.8560366,53.7423031 21.7857864,53.5391315 25.2242875,47.3977658 C28.6627885,41.2564002 28.4345369,37.185353 27.5032614,34.7243073 C24.9606935,28.0051611 18.9822911,29.8206394 16.8826852,30.7694076 C12.8213059,32.6046603 11.4276301,35.5707155 9.0533129,38.6626009 C6.67899566,41.7544863 4.2508819,50.0264514 4.1284602,53.4999828 C4.0060385,56.9735141 6.1297156,63.319358 8.66074736,66.5683267 C10.1715078,68.5076201 11.8672113,69.3589957 14.7006066,70.4519004 C16.6141013,71.1899786 18.810989,71.9511077 21.696343,71.3424076 C27.576272,70.1019661 28.7886893,68.2457286 30.8278218,66.5941419 C32.8669543,64.9425552 39.3180617,55.851269 40.8748822,52.3585632 C42.4317027,48.8658573 45.3248372,40.1584296 46.0792794,38.4858247 C46.8337216,36.8132198 58.3487361,12.0582247 54.8099378,0.142758401" id="E-path" stroke="#f5faff" stroke-width="11"  stroke-linecap="round" stroke-linejoin="bevel"></path>
        </g>
        <g id="L" transform="translate(101.000000, 8.000000)">
            <path clip-path="url(#clip-l1)" d="M17.0322963,2.84846327 C14.9139938,1.59910753 11.6111291,4.69132235 9.97329153,7.99146116 C8.84892701,10.2569843 7.97985414,13.2720855 7.06109296,22.9721913 C6.14233178,32.672297 5.5190744,33.1490725 5.58135794,40.9916843 C5.78002527,66.007454 3.77583892,72.4678993 6.638747,74.8641406 C9.50165509,77.2603819 15.4718152,73.0194149 19.412374,67.6825562 C23.3529329,62.3456976 41.0694123,26.4135902 39.677419,5.95935431" id="L-path" stroke="#f5faff" stroke-width="13" stroke-linecap="round" stroke-linejoin="round"></path>
        </g>
        <g id="L" transform="translate(121.000000, 8.000000)">
            <path clip-path="url(#clip-l2)" d="M16.7551141,2.90987731 C13.3584257,4.12060697 9.64439729,14.7813 8.59973938,19.0110662 C8.16159848,20.7850762 7.71284152,29.7218397 6.81862023,39.7292913 C5.92439895,49.7367429 5.4603662,67.3898079 6.06198706,73.6431289 C6.39920763,77.1482409 14.0433595,75.8570679 16.3762146,73.0809004 C18.7090697,70.3047328 30.0909195,46.669273 32.6892957,41.8948477" id="L-path" stroke="#f5faff" stroke-width="12" stroke-linecap="round" stroke-linejoin="bevel"></path>
        </g>
        <g id="O" transform="translate(142.000000, 38.000000)">
            <g id="O-1" transform="translate(0.000000, 2.000000)">
                <path clip-path="url(#clip-o-1)" d="M15.2281482,3.77095134 C15.2281482,3.77095134 9.91021574,6.36556932 7.0000626,13.078912 C4.08990946,19.7922546 4.40849327,23.3707152 5.32265242,29.9198663 C6.23681157,36.4690174 9.2499655,40.7430054 14.1127783,42.7063353 C18.975591,44.6696652 26.9691485,43.8434814 30.60488,39.7058115 C34.2406116,35.5681417 36.8417624,30.5128285 37.0969779,21.7203073 C37.3521934,12.9277861 35.0713684,8.63855484 33.5008787,5.71359397" id="O-1-path" stroke="#f5faff" stroke-width="11" stroke-linecap="round" stroke-linejoin="bevel"></path>
            </g>
            <g id="O-2" transform="translate(13.000000, 0.000000)">
                <path clip-path="url(#clip-o-2)" d="M20.3157081,7.08920772 C20.3157081,7.08920772 16.2015151,2.79108358 10.9622841,3.41779082 C5.72305302,4.04449806 3.75292155,11.6457557 4.81495769,17.0682207 C5.87699382,22.4906857 11.7821948,24.6375596 21.2583399,23.8889314 C30.7344851,23.1403033 40.7088497,15.2427759 41.9112589,14.3264237" id="O-2-path" stroke="#f5faff" stroke-width="10"></path>
            </g>
        </g>
            
    </g>
</svg>