<?xml version="1.0" encoding="UTF-8"?>
<svg width="108px" height="149px" viewBox="0 0 108 149" version="1.1" xmlns="http://www.w3.org/2000/svg" xmlns:xlink="http://www.w3.org/1999/xlink">
    <!-- Generator: Sketch 43 (38999) - http://www.bohemiancoding.com/sketch -->
    <title>Group 8</title>
    <desc>Created with Sketch.</desc>
    <defs>
        <linearGradient x1="0%" y1="50%" x2="100%" y2="50%" id="linearGradient-1">
            <stop stop-color="#FFD900" offset="0%"></stop>
            <stop stop-color="#FF9C00" offset="23.0689008%"></stop>
            <stop stop-color="#FE448B" offset="53.1185082%"></stop>
            <stop stop-color="#CA4ADF" offset="77.7239354%"></stop>
            <stop stop-color="#65C9FE" offset="100%"></stop>
        </linearGradient>
        <linearGradient x1="50%" y1="100%" x2="50%" y2="1.41638472e-14%" id="linearGradient-2">
            <stop stop-color="#C34BEA" offset="0%"></stop>
            <stop stop-color="#62CCFE" offset="100%"></stop>
        </linearGradient>
        <linearGradient x1="-19.5165209%" y1="50.0541449%" x2="116.897514%" y2="50.0541449%" id="linearGradient-3">
            <stop stop-color="#FFD900" offset="0%"></stop>
            <stop stop-color="#FF9C00" offset="23.0689008%"></stop>
            <stop stop-color="#FE448B" offset="53.1185082%"></stop>
            <stop stop-color="#CA4ADF" offset="77.7239354%"></stop>
            <stop stop-color="#65C9FE" offset="100%"></stop>
        </linearGradient>
        <linearGradient x1="-63.0857591%" y1="50%" x2="160.710832%" y2="50%" id="linearGradient-4">
            <stop stop-color="#FFD900" offset="0%"></stop>
            <stop stop-color="#FF9C00" offset="23.0689008%"></stop>
            <stop stop-color="#FE448B" offset="53.1185082%"></stop>
            <stop stop-color="#CA4ADF" offset="77.7239354%"></stop>
            <stop stop-color="#65C9FE" offset="100%"></stop>
        </linearGradient>
        <linearGradient x1="-45.5706081%" y1="49.9976486%" x2="141.626395%" y2="49.9976486%" id="linearGradient-5">
            <stop stop-color="#FFD900" offset="0%"></stop>
            <stop stop-color="#FF9C00" offset="23.0689008%"></stop>
            <stop stop-color="#FE448B" offset="53.1185082%"></stop>
            <stop stop-color="#CA4ADF" offset="77.7239354%"></stop>
            <stop stop-color="#65C9FE" offset="100%"></stop>
        </linearGradient>
    </defs>
    <g id="Final-Slide" stroke="none" stroke-width="1" fill="none" fill-rule="evenodd">
        <g id="Artboard" transform="translate(-137.000000, -259.000000)">
            <g id="Group-8" transform="translate(141.185177, 270.334074)">
                <ellipse id="Oval-7" stroke="url(#linearGradient-1)" stroke-width="7.90399955" cx="49.599997" cy="52.0095207" rx="49.599997" ry="49.5904732"></ellipse>
                <g id="Group-7" transform="translate(13.599999, 0.000000)" stroke-width="8.51199951">
                    <polyline id="Path-8" stroke="url(#linearGradient-3)" points="0 88.8999947 35.9902418 0.439607454 71.9804835 88.2952328"></polyline>
                    <path d="M13.2635224,56.8476157 L58.3187502,56.8476157" id="Path-9" stroke="url(#linearGradient-4)"></path>
                </g>
                <path d="M12.9734978,135.639693 L8.54049781,121.255693 C8.51983104,121.193693 8.50949781,121.100694 8.50949781,120.976693 C8.50949781,120.790692 8.57149719,120.630527 8.69549781,120.496193 C8.81949843,120.361859 8.97449688,120.294693 9.16049781,120.294693 L11.5164978,120.294693 C11.7231655,120.294693 11.903997,120.356692 12.0589978,120.480693 C12.2139986,120.604694 12.3121643,120.739026 12.3534978,120.883693 L15.3604978,131.082693 L18.5534978,120.976693 C18.6154981,120.790692 18.723997,120.630527 18.8789978,120.496193 C19.0339986,120.361859 19.2354966,120.294693 19.4834978,120.294693 L21.0644978,120.294693 C21.312499,120.294693 21.513997,120.361859 21.6689978,120.496193 C21.8239986,120.630527 21.9221643,120.790692 21.9634978,120.976693 L25.1874978,131.082693 L28.1944978,120.883693 C28.2358313,120.739026 28.3288304,120.604694 28.4734978,120.480693 C28.6181652,120.356692 28.8041633,120.294693 29.0314978,120.294693 L31.3564978,120.294693 C31.5424987,120.294693 31.7026638,120.361859 31.8369978,120.496193 C31.9713318,120.630527 32.0384978,120.790692 32.0384978,120.976693 L31.9764978,121.255693 L27.5434978,135.639693 C27.4608307,135.887694 27.3419986,136.078859 27.1869978,136.213193 C27.031997,136.347527 26.8201658,136.414693 26.5514978,136.414693 L24.5054978,136.414693 C23.9681618,136.414693 23.6271652,136.156362 23.4824978,135.639693 L20.2894978,125.905693 L17.0654978,135.639693 C16.9001636,136.156362 16.5488338,136.414693 16.0114978,136.414693 L13.9964978,136.414693 C13.4798286,136.414693 13.138832,136.156362 12.9734978,135.639693 Z M34.3324974,136.197693 C34.18783,136.053026 34.1154974,135.877361 34.1154974,135.670693 L34.1154974,115.148693 C34.1154974,114.921359 34.18783,114.740527 34.3324974,114.606193 C34.4771648,114.471859 34.6528297,114.404693 34.8594974,114.404693 L37.6804974,114.404693 C37.9078319,114.404693 38.0886634,114.471859 38.2229974,114.606193 C38.3573314,114.740527 38.4244974,114.921359 38.4244974,115.148693 L38.4244974,122.216693 C39.6645036,120.728686 41.3281537,119.984693 43.4154974,119.984693 C45.3168403,119.984693 46.8358251,120.609854 47.9724974,121.860193 C49.1091698,123.110533 49.6774974,124.810349 49.6774974,126.959693 L49.6774974,135.670693 C49.6774974,135.877361 49.6103314,136.053026 49.4759974,136.197693 C49.3416634,136.342361 49.1608319,136.414693 48.9334974,136.414693 L46.1124974,136.414693 C45.885163,136.414693 45.6991648,136.342361 45.5544974,136.197693 C45.40983,136.053026 45.3374974,135.877361 45.3374974,135.670693 L45.3374974,127.145693 C45.3374974,125.94702 45.0430004,125.011863 44.4539974,124.340193 C43.8649945,123.668523 43.0228362,123.332693 41.9274974,123.332693 C40.8734922,123.332693 40.0261673,123.67369 39.3854974,124.355693 C38.7448276,125.037697 38.4244974,125.967687 38.4244974,127.145693 L38.4244974,135.670693 C38.4244974,135.877361 38.3573314,136.053026 38.2229974,136.197693 C38.0886634,136.342361 37.9078319,136.414693 37.6804974,136.414693 L34.8594974,136.414693 C34.6528297,136.414693 34.4771648,136.342361 34.3324974,136.197693 Z M54.172497,134.864693 C52.8498238,133.624687 52.1368309,131.909371 52.033497,129.718693 L52.002497,128.354693 L52.033497,126.990693 C52.1368309,124.820682 52.860157,123.110533 54.203497,121.860193 C55.5468371,120.609854 57.4171517,119.984693 59.814497,119.984693 C62.1911756,119.984693 64.051157,120.609854 65.394497,121.860193 C66.7378371,123.110533 67.4611632,124.820682 67.564497,126.990693 C67.5851638,127.238694 67.595497,127.693356 67.595497,128.354693 C67.595497,129.01603 67.5851638,129.470692 67.564497,129.718693 C67.4611632,131.909371 66.7481703,133.624687 65.425497,134.864693 C64.1028238,136.104699 62.2325091,136.724693 59.814497,136.724693 C57.3758182,136.724693 55.4951703,136.104699 54.172497,134.864693 Z M62.340997,132.570693 C62.93,131.88869 63.2451635,130.886366 63.286497,129.563693 C63.3071638,129.357025 63.317497,128.954029 63.317497,128.354693 C63.317497,127.755357 63.3071638,127.352361 63.286497,127.145693 C63.2451635,125.82302 62.9248334,124.81553 62.325497,124.123193 C61.7261607,123.430856 60.8891691,123.084693 59.814497,123.084693 C58.7191582,123.084693 57.8718334,123.430856 57.272497,124.123193 C56.6731607,124.81553 56.3528306,125.82302 56.311497,127.145693 L56.280497,128.354693 L56.311497,129.563693 C56.3528306,130.886366 56.6731607,131.88869 57.272497,132.570693 C57.8718334,133.252697 58.7191582,133.593693 59.814497,133.593693 C60.9098359,133.593693 61.7519941,133.252697 62.340997,132.570693 Z M70.1684967,117.442693 C70.0238293,117.298026 69.9514967,117.122361 69.9514967,116.915693 L69.9514967,114.652693 C69.9514967,114.425359 70.0238293,114.239361 70.1684967,114.094693 C70.3131641,113.950026 70.488829,113.877693 70.6954967,113.877693 L73.5474967,113.877693 C73.7748311,113.877693 73.9608293,113.950026 74.1054967,114.094693 C74.2501641,114.239361 74.3224967,114.425359 74.3224967,114.652693 L74.3224967,116.915693 C74.3224967,117.122361 74.2449974,117.298026 74.0899967,117.442693 C73.9349959,117.587361 73.7541644,117.659693 73.5474967,117.659693 L70.6954967,117.659693 C70.488829,117.659693 70.3131641,117.587361 70.1684967,117.442693 Z M70.2924967,136.197693 C70.1478293,136.053026 70.0754967,135.877361 70.0754967,135.670693 L70.0754967,121.038693 C70.0754967,120.811359 70.1478293,120.630527 70.2924967,120.496193 C70.4371641,120.361859 70.612829,120.294693 70.8194967,120.294693 L73.4544967,120.294693 C73.6611644,120.294693 73.8368293,120.367026 73.9814967,120.511693 C74.1261641,120.656361 74.1984967,120.832025 74.1984967,121.038693 L74.1984967,135.670693 C74.1984967,135.877361 74.1261641,136.053026 73.9814967,136.197693 C73.8368293,136.342361 73.6611644,136.414693 73.4544967,136.414693 L70.8194967,136.414693 C70.612829,136.414693 70.4371641,136.342361 70.2924967,136.197693 Z M79.5304963,136.011693 C78.476491,135.536357 77.6963321,134.98353 77.1899963,134.353193 C76.6836604,133.722857 76.4304963,133.180362 76.4304963,132.725693 C76.4304963,132.519025 76.4976623,132.353694 76.6319963,132.229693 C76.7663303,132.105692 76.9264953,132.043693 77.1124963,132.043693 L79.6544963,132.043693 C79.8198304,132.043693 79.9644957,132.126359 80.0884963,132.291693 C80.1918301,132.37436 80.4243278,132.570692 80.7859963,132.880693 C81.1476648,133.190695 81.560994,133.433526 82.0259963,133.609193 C82.4909986,133.784861 83.0024935,133.872693 83.5604963,133.872693 C84.3871671,133.872693 85.058827,133.712528 85.5754963,133.392193 C86.0921655,133.071858 86.3504963,132.612029 86.3504963,132.012693 C86.3504963,131.599358 86.2316641,131.263528 85.9939963,131.005193 C85.7563284,130.746858 85.332666,130.509194 84.7229963,130.292193 C84.1133266,130.075192 83.1988357,129.832361 81.9794963,129.563693 C80.2228208,129.191691 78.9260005,128.623364 78.0889963,127.858693 C77.2519921,127.094023 76.8334963,126.081366 76.8334963,124.820693 C76.8334963,123.994022 77.0814938,123.213863 77.5774963,122.480193 C78.0734988,121.746523 78.8123247,121.147195 79.7939963,120.682193 C80.7756679,120.217191 81.9484895,119.984693 83.3124963,119.984693 C84.7178366,119.984693 85.9268245,120.206858 86.9394963,120.651193 C87.952168,121.095529 88.7219936,121.62769 89.2489963,122.247693 C89.7759989,122.867696 90.0394963,123.415357 90.0394963,123.890693 C90.0394963,124.076694 89.9723303,124.236859 89.8379963,124.371193 C89.7036623,124.505527 89.5434972,124.572693 89.3574963,124.572693 L87.0324963,124.572693 C86.8051618,124.572693 86.6294969,124.490027 86.5054963,124.324693 C86.3608289,124.221359 86.1283312,124.030195 85.8079963,123.751193 C85.4876613,123.472192 85.1311649,123.250027 84.7384963,123.084693 C84.3458276,122.919359 83.8704991,122.836693 83.3124963,122.836693 C82.5478258,122.836693 81.9588317,123.002025 81.5454963,123.332693 C81.1321609,123.663361 80.9254963,124.097357 80.9254963,124.634693 C80.9254963,125.006695 81.023662,125.316692 81.2199963,125.564693 C81.4163306,125.812694 81.8141599,126.045192 82.4134963,126.262193 C83.0128326,126.479194 83.9118236,126.701359 85.1104963,126.928693 C88.8305149,127.65203 90.6904963,129.274347 90.6904963,131.795693 C90.6904963,133.263034 90.0550026,134.451355 88.7839963,135.360693 C87.5129899,136.270031 85.740841,136.724693 83.4674963,136.724693 C81.8968218,136.724693 80.5845015,136.487029 79.5304963,136.011693 Z" id="whois" fill="url(#linearGradient-5)"></path>
            </g>
        </g>
    </g>
</svg>