<?xml version="1.0" encoding="UTF-8"?>
<svg width="34px" height="39px" viewBox="0 0 34 39" version="1.1" xmlns="http://www.w3.org/2000/svg" xmlns:xlink="http://www.w3.org/1999/xlink">
    <!-- Generator: Sketch 43 (38999) - http://www.bohemiancoding.com/sketch -->
    <title>Shape</title>
    <desc>Created with Sketch.</desc>
    <defs></defs>
    <g id="Final-Slide" stroke="none" stroke-width="1" fill="none" fill-rule="evenodd">
        <g id="Artboard" transform="translate(-175.000000, -329.000000)" fill-rule="nonzero" fill="#EE4323">
            <g id="Group-2" transform="translate(-3.755980, 282.800134)">
                <g id="CodeIgniter" transform="translate(163.422214, 33.679839)">
                    <g id="codeigniter" transform="translate(15.776311, 12.429653)">
                        <path d="M10.8458035,38.8066574 C8.53088561,37.8060051 6.36469147,35.2628285 6.35951847,32.6606473 C6.35321387,29.8235796 8.15115501,27.4149011 10.3873463,25.8319628 C10.1185119,26.8476492 9.97188969,27.7766878 10.6379136,28.6851961 C11.2570571,29.5298502 12.3414474,29.9402955 13.3653783,29.7175331 C15.7578912,29.1937668 15.8676559,26.5636191 14.4492837,25.0312792 C13.0469154,23.5138117 11.6902959,21.7997702 12.224085,19.5991433 C12.4913028,18.4960008 13.1686426,17.4626939 14.0267141,16.7240863 C13.3671565,18.457365 15.2413994,20.1667185 16.4762917,21.0181621 C18.6183991,22.4953772 20.9687198,23.6117754 22.9383399,25.3434375 C25.0101267,27.1633639 26.5400418,29.6240958 26.2311166,32.4781374 C25.8963265,35.571592 23.4381811,37.7230754 20.6809716,38.8092439 C26.5073872,37.5232682 32.5276287,33.0012571 32.6509724,26.5395323 C32.7531392,21.2234656 29.1063352,17.1322684 24.5888505,14.7900306 L24.3528323,14.6611906 C24.4768227,14.9620329 24.5173984,15.2179348 24.5127104,15.4470017 C24.5531244,15.2780709 24.580606,15.1044521 24.5883655,14.9253369 C24.5872673,15.1381256 24.5594606,15.3499348 24.5055975,15.5557964 L24.5127104,15.4470017 C24.4456308,15.7292355 24.332637,15.9985311 24.1782435,16.2441288 L24.2445226,16.1728384 C23.3432888,17.667674 20.9034106,17.9922799 19.6981014,16.444421 C17.7604892,13.954591 19.7386771,11.2701268 20.0154327,8.63351287 C20.3618621,5.32909686 18.2895902,2.12118965 15.7202253,0.20152133 C17.1353644,2.4907359 15.2709825,5.5193663 13.77938,7.21255417 C12.3330413,8.85385037 10.5740593,10.2242107 8.97738026,11.7154898 C7.26220713,13.3171803 5.61331308,15.0043868 4.20350867,16.8842877 C1.38389984,20.6469993 -0.342265909,25.3793252 0.926250916,30.0735002 C2.19395946,34.7644422 6.2573517,37.750557 10.8459652,38.8064958 L10.8458035,38.8066574 Z" id="Shape"></path>
                    </g>
                </g>
            </g>
        </g>
    </g>
</svg>