
<svg width="100%" height="100%" viewBox="0 0 139 139" version="1.1" xmlns="http://www.w3.org/2000/svg" xmlns:xlink="http://www.w3.org/1999/xlink">
 
    <defs>
        <linearGradient x1="50%" y1="100%" x2="50%" y2="1.41638472e-14%" id="linearGradient-1">
            <stop stop-color="#C34BEA" offset="0%"></stop>
            <stop stop-color="#62CCFE" offset="100%"></stop>
        </linearGradient>
        <linearGradient x1="-29.1396711%" y1="50%" x2="381.413412%" y2="50%" id="linearGradient-2">
            <stop stop-color="#FFD900" offset="0%"></stop>
            <stop stop-color="#FF9C00" offset="23.0689008%"></stop>
            <stop stop-color="#FE448B" offset="53.1185082%"></stop>
            <stop stop-color="#CA4ADF" offset="77.7239354%"></stop>
            <stop stop-color="#65C9FE" offset="100%"></stop>
        </linearGradient>
        <linearGradient x1="0%" y1="50%" x2="256.506441%" y2="50%" id="linearGradient-3">
            <stop stop-color="#FFD900" offset="0%"></stop>
            <stop stop-color="#FF9C00" offset="23.0689008%"></stop>
            <stop stop-color="#FE448B" offset="53.1185082%"></stop>
            <stop stop-color="#CA4ADF" offset="77.7239354%"></stop>
            <stop stop-color="#65C9FE" offset="100%"></stop>
        </linearGradient>
    </defs>
    <g id="Introduction" stroke="none" stroke-width="1" fill="none" fill-rule="evenodd">
        <g id="Artboard" transform="translate(-118.000000, -164.000000)">
            <g id="Group-11" transform="translate(122.000000, 168.000000)">
                <g id="code" transform="translate(25.560976, 35.146341)" fill-rule="nonzero" fill="url(#linearGradient-2)">
                    <path d="M51.1022453,0.829625075 C51.4911376,0.948709028 51.7819818,1.18013041 51.9765065,1.52373233 C52.1711883,1.86749115 52.2082705,2.23368607 52.0890102,2.62184642 L35.3553312,60.4527169 C35.2360709,60.8402496 35.0041497,61.1306639 34.660039,61.3256854 C34.3160855,61.5199225 33.9645897,61.5575775 33.605709,61.4373952 L30.8243832,60.675509 C30.4350196,60.5562681 30.1438611,60.3248467 29.9494935,59.9812448 C29.755126,59.6382705 29.7177295,59.2720756 29.8371469,58.8837583 L46.5703546,1.05382925 C46.689772,0.665668908 46.9221645,0.374313307 47.2662752,0.180233135 C47.609286,-0.0136901407 47.9620388,-0.0511882498 48.3201339,0.0680525993 L51.1022453,0.829625075 Z M26.0785854,12.0892323 C26.0785854,12.478016 25.9294904,12.8223268 25.6303589,13.121222 L8.02083604,30.7533631 L25.630202,48.3867614 C25.9288627,48.6856565 26.0784284,49.0298102 26.0784284,49.4181224 C26.0784284,49.8073776 25.9288627,50.1516884 25.630202,50.4505835 L23.3895407,52.6927685 C23.091037,52.9918207 22.7478048,53.1412683 22.3589024,53.1412683 C21.9700001,53.1412683 21.6267679,52.9922922 21.3282642,52.6927685 L0.448226422,31.7851956 C0.149565749,31.4863004 0,31.1421468 0,30.7533631 C0,30.3645794 0.149094923,30.0204257 0.448226422,29.7213734 L21.3284211,8.81380055 C21.6269248,8.51490542 21.9707848,8.36482927 22.3590594,8.36482927 C22.747334,8.36482927 23.091037,8.51474828 23.3896977,8.81380055 L25.6303589,11.0572427 C25.9290196,11.3561378 26.0785854,11.7004486 26.0785854,12.0892323 Z M81.7242042,29.7211486 C82.0228846,30.0200406 82.1721463,30.3641906 82.1721463,30.7531274 C82.1721463,31.1419069 82.0228846,31.4866856 81.7242042,31.7855776 L60.8421563,52.6927732 C60.5436328,52.9918223 60.199907,53.1412683 59.8120776,53.1412683 C59.4233064,53.1412683 59.0805224,52.9922937 58.7809002,52.6927732 L56.5410323,50.4506119 C56.2423519,50.1517199 56.093561,49.8075698 56.093561,49.4181616 C56.093561,49.0300106 56.2425088,48.6857034 56.5410323,48.3868114 L74.1520349,30.7534416 L56.5410323,13.1210147 C56.2423519,12.8221227 56.093561,12.478287 56.093561,12.0890359 C56.093561,11.6997849 56.2425088,11.3561063 56.5410323,11.0570572 L58.7809002,8.81379583 C59.0805224,8.51490384 59.4231495,8.36482927 59.8120776,8.36482927 C60.19975,8.36482927 60.5436328,8.51490384 60.8421563,8.81379583 L81.7242042,29.7211486 Z" id="Combined-Shape"></path>
                </g>
                <circle id="Oval-7" stroke="url(#linearGradient-3)" stroke-width="7.20000011" cx="65.5" cy="65.5" r="65.5"></circle>
            </g>
        </g>
    </g>
</svg>