<?xml version="1.0" encoding="UTF-8"?>
<svg viewBox="0 0 139 139" version="1.1" xmlns="http://www.w3.org/2000/svg" xmlns:xlink="http://www.w3.org/1999/xlink">
    <!-- Generator: Sketch 43 (38999) - http://www.bohemiancoding.com/sketch -->
    <title>Group 9</title>
    <desc>Created with Sketch.</desc>
    <defs>
        <linearGradient x1="-207.500999%" y1="50%" x2="202.650259%" y2="50%" id="linearGradient-1">
            <stop stop-color="#FFD900" offset="0%"></stop>
            <stop stop-color="#FF9C00" offset="23.0689008%"></stop>
            <stop stop-color="#FE448B" offset="53.1185082%"></stop>
            <stop stop-color="#CA4ADF" offset="77.7239354%"></stop>
            <stop stop-color="#65C9FE" offset="100%"></stop>
        </linearGradient>
        <linearGradient x1="-111.805224%" y1="50.0000358%" x2="136.63824%" y2="50.0000238%" id="linearGradient-2">
            <stop stop-color="#FFD900" offset="0%"></stop>
            <stop stop-color="#FF9C00" offset="23.0689008%"></stop>
            <stop stop-color="#FE448B" offset="53.1185082%"></stop>
            <stop stop-color="#CA4ADF" offset="77.7239354%"></stop>
            <stop stop-color="#65C9FE" offset="100%"></stop>
        </linearGradient>
    </defs>
    <g id="Introduction" stroke="none" stroke-width="1" fill="none" fill-rule="evenodd">
        <g id="Artboard" transform="translate(-112.000000, -166.000000)">
            <g id="Group-9" transform="translate(116.000000, 170.000000)">
                <g id="artistic-brush" transform="translate(31.152439, 35.945122)" fill-rule="nonzero" fill="url(#linearGradient-1)">
                    <path d="M27.138242,32.5574242 C25.8313616,33.9890401 25.5108733,35.0166851 23.7980411,37.7098238 C24.9055064,38.4787858 27.0314125,40.2541312 28.5056589,43.3122611 C31.4505909,41.6290494 32.8251298,41.37391 34.3848398,40.0663202 C44.5763696,31.5262356 69.5317297,0.913044 68.6735331,0.0271430985 C67.7726048,-0.911911857 36.111916,22.7629038 27.138242,32.5574242 Z M20.8566701,40.0875819 C16.4303698,39.3079891 12.0610452,42.0932615 9.14460115,49.052899 C6.22459611,56.0125365 1.01131882,58.7978089 0,58.6277159 C5.44118012,60.5873287 22.0353551,65.5979842 26.158972,46.522766 C24.4069689,41.9479738 20.8566701,40.0875819 20.8566701,40.0875819 Z" id="Shape"></path>
                </g>
                <circle id="Oval-7" stroke="url(#linearGradient-2)" stroke-width="7.20000011" cx="65.5" cy="65.5" r="65.5"></circle>
            </g>
        </g>
    </g>
</svg>