<?xml version="1.0" encoding="UTF-8"?>
<svg width="22px" height="19px" viewBox="0 0 22 19" version="1.1" xmlns="http://www.w3.org/2000/svg" xmlns:xlink="http://www.w3.org/1999/xlink">
    <!-- Generator: Sketch 43 (38999) - http://www.bohemiancoding.com/sketch -->
    <title>Twitter</title>
    <desc>Created with Sketch.</desc>
    <defs></defs>
    <g id="Final-Slide" stroke="none" stroke-width="1" fill="#ffffff" fill-rule="evenodd" >
        <g id="Artboard-2" transform="translate(-828.000000, -785.000000)">
            <g id="Group-2" transform="translate(827.275931, 777.972571)">
                <path d="M16.1988791,7.7571452 L16.5661397,7.83059732 C16.8109866,7.87828321 17.0332759,7.9407755 17.2330077,8.01809352 C17.4327588,8.09541154 17.6260538,8.18562234 17.8128928,8.28870659 C17.9997511,8.39179084 18.1692129,8.49682737 18.3212781,8.60377752 C18.4720483,8.70945193 18.6073548,8.82156306 18.7271977,8.94011091 C18.8457262,9.05995384 19.0306516,9.09088105 19.2819352,9.03289254 C19.5332188,8.97490402 19.8038318,8.89435797 20.0937744,8.79127372 C20.383717,8.68818947 20.6704509,8.57221244 20.9539374,8.44334263 C21.2374432,8.31447282 21.410133,8.23265103 21.4719874,8.19785792 C21.5325468,8.16178906 21.5647691,8.14245956 21.568635,8.1398694 L21.6304701,8.10507629 L21.6884586,8.07028319 L21.6981233,8.1244058 L21.6787938,8.18239431 L21.6497996,8.25004758 C21.6433628,8.26937709 21.6369261,8.29514332 21.6304701,8.3273656 C21.6240333,8.35958789 21.5628168,8.48843837 21.4468398,8.7139557 C21.3308627,8.93947304 21.1858914,9.16819907 21.0119259,9.40015313 C20.8379603,9.63210719 20.6820486,9.80734849 20.5441712,9.92591567 C20.4049988,10.0457586 20.312855,10.1295133 20.2677399,10.1771992 C20.2226442,10.2261609 20.1678837,10.2712566 20.1034392,10.3125058 L20.0067916,10.3762931 L19.952669,10.4091533 L19.9004793,10.4439464 L19.9681326,10.4729407 L20.5093588,10.3569636 C20.8701826,10.2796456 21.2148857,10.1862261 21.5434873,10.0766858 L22.0653839,9.90272026 L22.1523667,9.87372601 L22.2103552,9.84473175 L22.3070027,9.82540224 L22.2838267,9.87952486 L22.2393495,9.92204977 C22.2116503,9.96844058 22.1298285,10.0779616 21.9687364,10.2931763 C21.8076636,10.5096667 21.7206809,10.6191877 21.7077881,10.6217779 C21.6949146,10.6256438 21.6768609,10.6449733 21.6536655,10.6797664 C21.6317651,10.7158352 21.4951635,10.8595308 21.24388,11.1108143 C20.9925964,11.3620979 20.7464931,11.585663 20.5055122,11.7815482 C20.2632555,11.9787091 20.1408224,12.2209658 20.1382516,12.5083375 C20.1343857,12.7944142 20.11956,13.1178742 20.0937744,13.4786787 C20.0680082,13.8395026 20.0196844,14.2293014 19.9488031,14.6481138 C19.8779411,15.0669261 19.7684008,15.540499 19.6202015,16.0688324 C19.4720215,16.5971657 19.2915999,17.1126257 19.0789754,17.6151928 C18.8663508,18.1177599 18.6440615,18.5687753 18.4121075,18.9682581 C18.1801534,19.367741 17.9675288,19.7060074 17.7742338,19.9830572 C17.5809387,20.2601069 17.384435,20.5210553 17.1846839,20.7659021 C16.9849521,21.0107489 16.7323928,21.286523 16.4269866,21.5932049 C16.1202854,21.8986111 15.9527759,22.0661399 15.9244195,22.0957721 C15.8947874,22.1241284 15.7685077,22.2298028 15.5455419,22.4127759 C15.3239098,22.5970441 15.0854996,22.7813123 14.8303502,22.9655998 C14.5764958,23.1485922 14.3432466,23.3012953 14.1306221,23.4237091 C13.9179975,23.5461228 13.6615723,23.6859331 13.3613078,23.8431593 C13.0623577,24.0016613 12.7388977,24.1485655 12.3909666,24.283872 C12.0430355,24.4191786 11.6757749,24.5448203 11.2891848,24.6607974 C10.9025947,24.7767744 10.5288974,24.8669852 10.1680736,24.9314104 C9.80726901,24.9958357 9.39812138,25.0506155 8.94064998,25.0957112 L8.25445255,25.1633645 L6.99803472,25.1730293 L6.83373393,25.1536998 C6.72421296,25.147263 6.63400216,25.140807 6.56312086,25.1343702 C6.49225889,25.1279335 6.22485452,25.0924832 5.7609464,25.028058 C5.29703828,24.9636327 4.93300571,24.8991882 4.66882936,24.8347629 C4.40467235,24.7703377 4.01162619,24.6479046 3.48972956,24.4675023 C2.96783292,24.2871001 2.52132135,24.1047455 2.15019486,23.9204773 C1.78036344,23.7374849 1.54840938,23.6215079 1.45433267,23.5725462 C1.36155105,23.5248604 1.25717172,23.4655961 1.14119469,23.3947148 L0.967229147,23.2884025 L0.909240631,23.2497435 L0.870581621,23.1820902 L0.996223404,23.2014197 C1.05421192,23.2078565 1.21207599,23.2175212 1.46979628,23.230414 C1.7275359,23.2433068 2.00135767,23.2433068 2.29130024,23.230414 C2.58124282,23.2175212 2.87764145,23.188527 3.18045748,23.1434312 C3.48329283,23.0983355 3.84088867,23.0210175 4.25324501,22.9114772 C4.66562067,22.8019369 5.04447897,22.6717913 5.38983923,22.5210212 C5.73390442,22.3689753 5.97873193,22.2555691 6.12436043,22.1808219 C6.26867451,22.1073698 6.48903087,21.9707681 6.78541017,21.7710364 L7.22998878,21.471429 L7.2879773,21.4269712 L7.32278974,21.3805804 L7.17200027,21.3651168 C7.06891602,21.35868 6.96904047,21.352224 6.87239294,21.3457873 C6.77574542,21.3393505 6.6243374,21.3103563 6.41814957,21.2588045 C6.21198107,21.2072527 5.98969176,21.1299347 5.75128165,21.0268504 C5.51289086,20.9237662 5.2809368,20.8013331 5.05541947,20.6595898 C4.82992146,20.5178466 4.66689641,20.3999173 4.56638299,20.3058599 C4.46716464,20.2130589 4.33829483,20.0816376 4.17979289,19.911538 C4.02258602,19.7401626 3.88598441,19.5642448 3.77000738,19.3838425 C3.65403035,19.2034402 3.5432143,18.9953001 3.43755922,18.7594995 L3.277105,18.4077025 L3.2577755,18.349714 L3.51872381,18.349714 C3.6604864,18.3690435 3.88277571,18.3754802 4.18559174,18.3690435 C4.48842709,18.3626068 4.69782362,18.349714 4.81380065,18.3303845 C4.92977768,18.311055 5.00065898,18.2981622 5.02642521,18.2917255 L5.11340798,18.272396 L5.17721468,18.2492005 L5.10374323,18.2240722 L5.02642521,18.2047427 C4.96199997,18.1886412 4.91690423,18.1757484 4.85245966,18.1564189 C4.78803442,18.1370894 4.61406888,18.0662081 4.33056303,17.9437944 C4.04707651,17.8213806 3.82155917,17.7021756 3.65403035,17.5861985 C3.48608624,17.4698853 3.32595195,17.3426819 3.17465862,17.2054073 C3.02388848,17.0662348 2.85831194,16.8871083 2.67789034,16.668047 C2.49748807,16.4489858 2.33641531,16.1944742 2.19465272,15.9045316 C2.05290946,15.614589 1.94659718,15.3375392 1.87571588,15.0733629 C1.80511962,14.8107405 1.75854359,14.5422441 1.73656278,14.2711884 L1.70175034,13.8652688 L1.77906836,13.8942631 L2.1173347,14.0488991 C2.3170858,14.1391099 2.56514134,14.2164279 2.86152064,14.2808532 C3.15791927,14.3452784 3.33509352,14.3807287 3.39308203,14.3871654 L3.4800648,14.3968302 L3.65403035,14.3968302 L3.59604183,14.3485064 L3.53805332,14.3098474 C3.51101134,14.2917937 3.45559365,14.2505638 3.34862417,14.170675 C3.24294977,14.0894911 3.13213371,13.9844739 3.01615668,13.855604 C2.90017965,13.7267342 2.78420262,13.5914277 2.66822559,13.4496844 C2.55203503,13.3076164 2.44854671,13.1556179 2.35895351,12.9954411 C2.26876204,12.8343683 2.17339026,12.6294562 2.07287684,12.3807628 C1.97365849,12.1333451 1.89827342,11.8839945 1.84672163,11.632711 C1.79518917,11.3814274 1.76619491,11.1333719 1.75973885,10.888525 C1.75330213,10.6436782 1.75973885,10.4342817 1.77906836,10.2603161 C1.79839786,10.0863506 1.83705687,9.88982748 1.89504539,9.6707662 C1.9530339,9.45170492 2.03680798,9.21975086 2.14632896,8.97490402 L2.31062975,8.60764343 L2.32995925,8.54965491 L2.39761252,8.58831392 L2.67789034,8.90725075 C2.85185589,9.1005458 3.05804372,9.31639839 3.29643451,9.55478917 C3.53484462,9.79317996 3.66692313,9.91688879 3.69268936,9.92591567 C3.71847492,9.9362183 3.75067787,9.96585043 3.78933688,10.0148314 C3.82799589,10.0625173 3.95686571,10.1765614 4.17592699,10.3569636 C4.3950076,10.5373659 4.68172214,10.7467818 5.03608996,10.9851725 C5.39047711,11.2235633 5.78350393,11.4587454 6.21518977,11.6906995 C6.64689494,11.9226535 7.11080306,12.1320501 7.60691413,12.3189084 C8.10304454,12.5057667 8.45097563,12.6281805 8.65070741,12.686169 C8.85045851,12.7441575 9.19193355,12.8182475 9.67517117,12.9084583 C10.1584088,12.9986691 10.5224607,13.0566576 10.7672882,13.0824238 C11.0121351,13.1081901 11.1796639,13.1230158 11.2698553,13.1268817 L11.4051619,13.1307476 L11.3954971,13.0727591 L11.3568381,12.8311403 C11.3310719,12.6700675 11.3181791,12.4445502 11.3181791,12.1546076 C11.3181791,11.864665 11.3407366,11.59728 11.3858324,11.3524331 C11.4309474,11.1075863 11.4986007,10.8595308 11.5887922,10.6082472 C11.679003,10.3569636 11.7672808,10.1552796 11.8536064,10.0032337 C11.9412464,9.85246355 12.0559283,9.68043096 12.1976716,9.48713591 C12.3394342,9.29384086 12.5230645,9.09410908 12.7485625,8.88792125 C12.9740798,8.68173342 13.2318001,8.49810312 13.5217427,8.33703035 C13.8116853,8.17595759 14.0790896,8.0535245 14.3239171,7.96976976 C14.568764,7.88601501 14.7749518,7.8312352 14.9424613,7.80546897 C15.1099901,7.77970274 15.1937449,7.76487701 15.1937449,7.7610111 L16.1988791,7.7571452 Z"></path>
            </g>
        </g>
    </g>
</svg>