<?xml version="1.0" encoding="UTF-8"?>
<svg width="35px" height="34px" viewBox="0 0 35 34" version="1.1" xmlns="http://www.w3.org/2000/svg" xmlns:xlink="http://www.w3.org/1999/xlink">
    <!-- Generator: Sketch 43 (38999) - http://www.bohemiancoding.com/sketch -->
    <title>design</title>
    <desc>Created with Sketch.</desc>
    <defs></defs>
    <g id="Final-Slide" stroke="none" stroke-width="1" fill="none" fill-rule="evenodd">
        <g id="Artboard" transform="translate(-283.000000, -330.000000)" fill-rule="nonzero">
            <g id="Group-2" transform="translate(-3.755980, 282.800134)">
                <g id="Dreamweaver" transform="translate(267.258231, 30.935426)">
                    <g id="design" transform="translate(20.107585, 16.988363)">
                        <g id="Frame_5_" fill="#84E403">
                            <rect id="Rectangle-path" x="0.0670421994" y="0.0670421994" width="33.5213684" height="32.6480732"></rect>
                        </g>
                        <g id="Background_5_" transform="translate(2.619886, 2.687062)" fill="#2E372E">
                            <rect id="Rectangle-path" x="0.00053741242" y="0.00107482484" width="28.3476319" height="27.405951"></rect>
                        </g>
                        <g id="Shadow2_5_" opacity="0.302" transform="translate(5.172595, 9.270364)" fill="#000000">
                            <g id="Group">
                                <polygon id="Shape" points="23.2430872 4.03059315 20.8919078 6.6504787 17.7346099 4.03059315 15.920843 7.05353802 12.7051686 4.03885587 12.0246029 4.03059315 7.12071457 0.671765525 1.88094347 0 0 13.9727229 9.3375408 20.8247313 25.7957962 20.8247313 25.7957962 6.24741939"></polygon>
                            </g>
                        </g>
                        <g id="Shadow_6_" opacity="0.302" transform="translate(2.619886, 2.687062)" fill="#000000">
                            <g id="Group">
                                <rect id="Rectangle-path" x="0.00053741242" y="6.71765525e-05" width="28.3476319" height="1"></rect>
                            </g>
                        </g>
                        <g id="Dw" transform="translate(5.105418, 9.270364)" fill="#84E403">
                            <g id="Group">
                                <path d="M0.0532038296,0.304847195 C1.0133583,0.120178853 2.24020367,0.0176674333 3.53812185,0.0176674333 C5.77845987,0.0176674333 7.32526717,0.551049261 8.42770158,1.61794727 C9.58340699,2.7054013 10.2946051,4.34672601 10.2946051,6.70616806 C10.2946051,9.16818872 9.5656052,11.014805 8.42770158,12.2047704 C7.23645977,13.4563368 5.33395263,14.0923644 3.00474002,14.0923644 C1.72455646,14.0923644 0.764401991,14.0102746 0.0532038296,13.907696 L0.0532038296,0.304847195 L0.0532038296,0.304847195 Z M2.24020367,12.0201693 C2.54249816,12.081703 3.00474002,12.081703 3.44924727,12.081703 C6.29410709,12.1021918 7.98319433,10.2966876 7.98319433,6.78825781 C8.00099611,3.73125443 6.47185625,1.98728395 3.73373997,1.98728395 C3.04034359,1.98728395 2.54249816,2.04881768 2.24020367,2.13090742 L2.24020367,12.0201693 L2.24020367,12.0201693 Z" id="Shape"></path>
                                <path d="M12.7130282,3.95690047 L13.6197773,8.49111624 C13.8153954,9.55808143 14.0110136,10.6454011 14.1709609,11.7328551 L14.2064973,11.7328551 C14.3842465,10.6454011 14.6688735,9.5375254 14.9177627,8.51167227 L16.0378645,3.95690047 L17.8159607,3.95690047 L18.9005261,8.38860482 C19.1672842,9.55808143 19.3984387,10.6454683 19.5939225,11.7328551 L19.6295932,11.7328551 C19.771806,10.6454011 19.9672898,9.55808143 20.1985115,8.38860482 L21.1586659,3.95690047 L23.309995,3.95690047 L20.5896134,13.9487409 L18.5627624,13.9487409 L17.531468,9.88637324 C17.2647099,8.83996408 17.0690918,7.89620069 16.873608,6.68567922 L16.8380716,6.68567922 C16.6601881,7.91675672 16.4291008,8.90156498 16.1800773,9.88637324 L15.0778444,13.9487409 L13.0330573,13.9487409 L10.4727574,3.95696765 L12.7130282,3.95696765 L12.7130282,3.95690047 Z" id="Shape"></path>
                            </g>
                        </g>
                    </g>
                </g>
            </g>
        </g>
    </g>
</svg>