<?xml version="1.0" encoding="UTF-8"?>
<svg width="72px" height="72px" viewBox="0 0 72 72" version="1.1" xmlns="http://www.w3.org/2000/svg" xmlns:xlink="http://www.w3.org/1999/xlink">
    <!-- Generator: Sketch 43 (38999) - http://www.bohemiancoding.com/sketch -->
    <title>Group 8</title>
    <desc>Created with Sketch.</desc>
    <defs>
        <linearGradient x1="164.113956%" y1="49.9973804%" x2="-43.1115989%" y2="49.9973804%" id="linearGradient-1">
            <stop stop-color="#FFD900" offset="0%"></stop>
            <stop stop-color="#FF9C00" offset="23.0689008%"></stop>
            <stop stop-color="#FE448B" offset="53.1185082%"></stop>
            <stop stop-color="#CA4ADF" offset="77.7239354%"></stop>
            <stop stop-color="#65C9FE" offset="100%"></stop>
        </linearGradient>
        <linearGradient x1="289.397526%" y1="49.963209%" x2="-99.2692801%" y2="49.963209%" id="linearGradient-2">
            <stop stop-color="#FFD900" offset="0%"></stop>
            <stop stop-color="#FF9C00" offset="23.0689008%"></stop>
            <stop stop-color="#FE448B" offset="53.1185082%"></stop>
            <stop stop-color="#CA4ADF" offset="77.7239354%"></stop>
            <stop stop-color="#65C9FE" offset="100%"></stop>
        </linearGradient>
    </defs>
    <g id="Final-Slide" stroke="none" stroke-width="1" fill="none" fill-rule="evenodd">
        <g id="Artboard" transform="translate(-242.000000, -493.000000)">
            <g id="Group-8" transform="translate(243.798545, 494.914102)">
                <circle id="Oval" stroke="url(#linearGradient-1)" stroke-width="4" cx="34" cy="34" r="33.626975"></circle>
                <path d="M43.6817418,30.0513994 C47.2625782,29.2883096 49.941698,25.8133913 49.941698,22.7843223 C49.941698,16.7905741 46.516699,15.9343244 46.516699,15.9343244 C46.516699,22.0707237 44.8713295,23.2656202 44.8041995,23.3550983 L44.8041995,18.5030736 C40.5229509,19.3593233 40.5229509,26.7800973 40.5229509,28.4926824 C40.5229509,29.1275916 40.0593772,29.6550414 39.4531524,29.7576201 C38.9586682,25.9770207 37.6907336,23.6094901 36.5651077,22.1961643 C37.0591638,21.6557851 37.6343924,20.7189623 37.8579592,19.1796821 C38.4218853,18.8995172 38.8104514,18.3192368 38.8104514,17.6468239 C38.8104514,16.701096 38.0436797,15.9343244 37.0979519,15.9343244 C36.1521385,15.9343244 35.3854524,16.701096 35.3854524,17.6468239 C35.3854524,18.2386637 35.6856536,18.7602054 36.1421203,19.0678559 C35.9780629,20.0456931 35.6420705,20.6290561 35.3732081,20.9552016 C34.8689626,20.5287036 34.5292883,20.3583099 34.5292883,20.3583099 C34.5292883,20.3583099 34.1895284,20.5287036 33.6853686,20.9552016 C33.4164205,20.6290561 33.0805138,20.0456931 32.9164563,19.0678559 C33.3728374,18.7602054 33.6731242,18.238578 33.6731242,17.6468239 C33.6731242,16.701096 32.9063526,15.9343244 31.9606247,15.9343244 C31.0148113,15.9343244 30.2481253,16.701096 30.2481253,17.6468239 C30.2481253,18.3193224 30.6366058,18.8995172 31.2006175,19.1796821 C31.4240987,20.7189623 31.9994129,21.6556995 32.493469,22.1961643 C31.3678431,23.6094901 30.0999941,25.9770207 29.6054242,29.7576201 C28.9991994,29.6550414 28.5356258,29.1275916 28.5356258,28.4926824 C28.5356258,26.7801829 28.5356258,19.3593233 24.2543771,18.5030736 L24.2543771,23.3550983 C24.1872471,23.2656202 22.5418776,22.0707237 22.5418776,15.9343244 C22.5418776,15.9343244 19.1168787,16.7905741 19.1168787,22.7843223 C19.1168787,25.813477 21.7959985,29.2883953 25.3768349,30.0513994 C25.976381,31.7551651 27.5290186,33.012996 29.3920468,33.1816772 C29.3920468,33.1885272 29.3918755,33.1951203 29.3918755,33.2019703 L29.3918755,34.4863449 L27.5937511,34.4863449 C26.4134108,34.4863449 25.4531268,33.5260608 25.4531268,32.3457206 L23.7406273,32.3457206 C23.7406273,34.470333 25.4691386,36.1988444 27.5937511,36.1988444 L29.3918755,36.1988444 L29.3918755,37.483219 L27.5937511,37.483219 C25.4691386,37.483219 23.7406273,39.2117303 23.7406273,41.3363428 L25.4531268,41.3363428 C25.4531268,40.1560025 26.4134108,39.1957185 27.5937511,39.1957185 L29.3918755,39.1957185 C29.3918755,39.8888526 29.6669886,40.5174256 30.1132659,40.9795435 C29.6669886,41.4416615 29.3918755,42.0701488 29.3918755,42.7633686 C29.3918755,43.6547246 29.8460304,44.4397343 30.5353971,44.9003967 L28.5355402,48.8999392 C28.5355402,48.8999392 30.1806528,50.8978267 34.5292883,50.8978267 C38.8779239,50.8978267 40.5230365,48.8999392 40.5230365,48.8999392 L38.5233508,44.9004823 C39.2127175,44.43982 39.6667867,43.6548102 39.6667867,42.7634542 C39.6667867,42.0702345 39.3916737,41.4417471 38.9453963,40.9796292 C39.3916737,40.5175112 39.6667867,39.8889382 39.6667867,39.1958041 L41.4649112,39.1958041 C42.6452515,39.1958041 43.6055355,40.1560882 43.6055355,41.3364284 L45.318035,41.3364284 C45.318035,39.211816 43.5896093,37.4833046 41.4649112,37.4833046 L39.6667867,37.4833046 L39.6667867,36.19893 L41.4649112,36.19893 C43.5896093,36.19893 45.318035,34.4704187 45.318035,32.3458062 L43.6055355,32.3458062 C43.6055355,33.5261465 42.6452515,34.4864305 41.4649112,34.4864305 L39.6667867,34.4864305 L39.6667867,33.2020559 C39.6667867,33.1952059 39.6666155,33.1885272 39.6666155,33.1817628 C41.5297293,33.012996 43.0821957,31.7552508 43.6817418,30.0513994 Z" id="Shape" fill="url(#linearGradient-2)" fill-rule="nonzero"></path>
            </g>
        </g>
    </g>
</svg>