<?xml version="1.0" encoding="UTF-8"?>
<svg width="72px" height="72px" viewBox="0 0 72 72" version="1.1" xmlns="http://www.w3.org/2000/svg" xmlns:xlink="http://www.w3.org/1999/xlink">
    <!-- Generator: Sketch 43 (38999) - http://www.bohemiancoding.com/sketch -->
    <title>Web Icon</title>
    <desc>Created with Sketch.</desc>
    <defs>
        <linearGradient x1="-34.641749%" y1="50%" x2="240.987361%" y2="50%" id="linearGradient-1">
            <stop stop-color="#FFD900" offset="0%"></stop>
            <stop stop-color="#FF9C00" offset="23.0689008%"></stop>
            <stop stop-color="#FE448B" offset="53.1185082%"></stop>
            <stop stop-color="#CA4ADF" offset="77.7239354%"></stop>
            <stop stop-color="#65C9FE" offset="100%"></stop>
        </linearGradient>
        <linearGradient x1="0%" y1="50%" x2="190.013645%" y2="50%" id="linearGradient-2">
            <stop stop-color="#FFD900" offset="0%"></stop>
            <stop stop-color="#FF9C00" offset="23.0689008%"></stop>
            <stop stop-color="#FE448B" offset="53.1185082%"></stop>
            <stop stop-color="#CA4ADF" offset="77.7239354%"></stop>
            <stop stop-color="#65C9FE" offset="100%"></stop>
        </linearGradient>
    </defs>
    <g id="Final-Slide" stroke="none" stroke-width="1" fill="none" fill-rule="evenodd">
        <g id="Artboard" transform="translate(-21.000000, -63.000000)">
            <g id="Top-Icons" transform="translate(22.000000, 29.000000)">
                <g id="Web" transform="translate(0.914062, 35.804688)">
                    <g id="Web-Icon" transform="translate(0.124422, 0.358716)">
                        <path d="M20.7027362,48.9646011 C20.7281249,48.9851504 20.7534974,49.0056531 20.7788508,49.02611 C20.6329504,46.7970755 20.7901986,43.5094522 22.1681473,39.8084443 C23.1189318,39.880584 24.0859275,39.7306307 24.9913208,39.3496685 C25.5100779,39.8060126 26.0531518,40.2672201 26.6327008,40.7365332 C28.6209996,42.3106369 30.6044351,43.53539 32.5376159,44.4999541 C32.4371067,45.4831609 32.6835164,46.5052746 33.3222361,47.3514972 C34.6880263,49.1152714 37.2169673,49.444358 38.9823627,48.0964 C39.3495455,47.8151364 39.6397253,47.4755125 39.880461,47.1107614 C42.9847648,47.8020258 45.7031019,47.9328129 47.7351119,47.9366324 C47.1804385,48.4717268 46.5895435,48.9808443 45.9628883,49.4605691 C42.2910605,52.2683421 37.9651124,53.6357535 33.6691549,53.6357535 C29.0138494,53.6357535 24.3982591,52.0395839 20.7027362,48.9646011 Z M17.0289584,44.9595417 C12.1003427,37.9042268 12.2679819,28.7029556 16.9404664,21.9078353 C16.4777744,23.861786 16.3648196,26.653535 17.7587117,30.0079873 C16.122195,32.1494816 16.045192,35.1866425 17.7546589,37.4270248 C17.8973171,37.6126426 18.049702,37.7852915 18.2077608,37.9498348 C17.4720344,40.4557779 17.1370336,42.8743329 17.0289584,44.9595417 Z M19.1307566,19.2440205 C19.808792,18.5499408 20.5451538,17.8958734 21.3389464,17.288711 C22.4160167,16.459921 23.5498837,15.7582609 24.7228598,15.1804757 C26.1380871,17.4878043 28.0362034,19.814754 30.1740288,22.0847828 C30.1780816,22.0896461 30.1829449,22.0936989 30.1878082,22.0985622 C28.3956645,23.3516849 26.4000706,25.0271083 24.5592934,26.9740687 C24.3242316,27.2245311 24.0980859,27.4766147 23.8768035,27.7286982 C22.7768763,27.4984997 21.62021,27.565776 20.5397362,27.9572756 C18.7292097,24.0507288 18.8485586,20.9024037 19.1307566,19.2440205 Z M27.4173486,14.08917 C29.4443267,13.4354061 31.542495,13.1159583 33.6310587,13.1159583 C38.2772626,13.1159583 42.8848483,14.7058926 46.5764633,17.7712458 C43.4426354,17.2923289 38.5893518,17.3556877 33.0466464,20.3039868 L33.0450252,20.3015551 L33.0442147,20.3015551 C31.2019741,18.3730854 29.3268831,16.3068044 27.4173486,14.08917 Z M49.5061107,20.770187 C49.5837627,20.8681239 49.6606792,20.9669695 49.7368464,21.0667219 C53.8241568,26.4004721 54.8455792,33.1138865 53.0859108,39.0995017 C53.1370205,38.920906 53.1863286,38.7413449 53.2360254,38.5593744 C52.4287096,37.9587509 51.336888,37.1182022 49.7587315,35.8391417 C50.2766781,34.4774042 50.1129454,32.8887105 49.1670241,31.6477462 C47.8142028,29.8969409 45.4173828,29.4519445 43.5449938,30.5316078 C41.4813131,28.6802933 39.2141823,26.5582524 36.8230362,24.1825069 C43.966142,20.3408955 49.1202878,20.734255 49.5061107,20.770187 Z M52.7043191,40.2659988 C52.0880394,41.9733509 51.2389478,43.6077291 50.1640122,45.1175715 C50.2558721,44.9856253 50.343425,44.8583299 50.4250102,44.7382581 C49.1816142,44.9984473 45.4943858,45.505046 40.4551466,44.0573894 C40.3335629,43.4916199 40.1009328,42.9420616 39.7272655,42.4524845 C38.4473944,40.7746294 36.1073134,40.4114995 34.3629926,41.5341223 C32.6113767,40.5841483 30.7770839,39.3934386 28.8852415,37.8947168 C28.5034687,37.5923787 28.1370965,37.2908511 27.7836932,36.988513 C28.9395489,35.1671891 29.0627537,32.832782 28.0414506,30.8688 C28.2732702,30.6369804 28.501037,30.4043502 28.7474467,30.1741517 C30.6206462,28.424157 32.3827993,27.0235127 34.0314744,25.8992688 C33.9650086,25.8376664 33.9050273,25.7728217 33.8401827,25.7104088 C33.9058379,25.7712006 33.9674403,25.8336136 34.033906,25.8944054 C34.0330955,25.8944054 34.0330955,25.895216 34.0322849,25.895216 C36.5620365,28.2344864 39.2441729,30.4513626 41.7844618,32.4323664 C41.1125092,33.8573274 41.2178817,35.5927321 42.2399954,36.9285317 C43.7119687,38.847933 46.4435492,39.1948519 48.3524133,37.7423319 C48.452112,37.6661395 48.529115,37.5737358 48.6198975,37.4918695 C50.5725317,38.8673864 51.9285953,39.7752114 52.6929515,40.2955897 C52.6967604,40.2857194 52.7005494,40.2758559 52.7043191,40.2659988 Z" id="Combined-Shape" fill="url(#linearGradient-1)" fill-rule="nonzero"></path>
                        <circle id="Oval" stroke="url(#linearGradient-2)" stroke-width="4" cx="33.6481925" cy="33.8074723" r="33.626975"></circle>
                    </g>
                </g>
            </g>
        </g>
    </g>
</svg>