<?xml version="1.0" encoding="UTF-8"?>
<svg width="100%" height="100%" viewBox="0 0 97 106" version="1.1" xmlns="http://www.w3.org/2000/svg" xmlns:xlink="http://www.w3.org/1999/xlink">
    <!-- Generator: Sketch 43 (38999) - http://www.bohemiancoding.com/sketch -->
    <title>waving-hand</title>
    <desc>Created with Sketch.</desc>
    <defs></defs>
    <g id="Introduction" stroke="none" stroke-width="1" fill="none" fill-rule="evenodd">
        <g id="Artboard" transform="translate(-135.000000, -95.000000)" fill-rule="nonzero">
            <g id="waving-hand" transform="translate(135.000000, 95.000000)">
                <path d="M8.29384402,70.8761684 C11.2054565,72.9167749 15.5870172,72.525579 18.1986569,70.3604887 L15.2002889,74.730799 C12.7899002,78.1816761 13.6531039,81.9150988 17.0972156,84.3346165 C20.5380638,86.7511314 25.2848679,85.9155065 27.6982482,82.4586235 L55.0177999,43.3786205 L55.2342807,43.4749862 L30.2851395,80.2626852 C27.8529939,83.7476863 28.3109759,88.164405 31.7828277,90.6087649 C35.2546794,93.0438432 40.0447253,92.2022124 42.4768709,88.7109326 L74.7194573,42.9901545 C77.1516028,39.5021506 75.9601425,34.725084 72.4885627,32.2837269 C71.8975919,31.8674159 71.2601157,31.5818675 70.6104013,31.3550121 L70.6104013,3 L39.6669717,3 L39.6669717,12.6690624 C39.2119813,13.069813 36.6748588,15.0388958 36.3158705,15.5545755 L6.40317244,60.073375 C3.94954196,63.5802153 4.79724382,68.4162479 8.29384402,70.8761684" id="Shape" fill="#EF9645" transform="translate(40.500000, 47.500000) scale(-1, 1) rotate(-180.000000) translate(-40.500000, -47.500000) "></path>
                <path d="M1.17229979,57.0703021 C1.17229979,57.0703021 -2.33315924,62.1852055 2.77942212,65.6915013 C7.88574373,69.1975247 11.3879368,64.0826213 11.3879368,64.0826213 L27.6483134,40.3428543 C28.2057031,41.279029 28.8218801,42.202943 29.503104,43.1110543 L6.93507848,76.0640775 C6.93507848,76.0640775 3.4328854,81.1759838 8.54220081,84.6820071 C13.6485224,88.1913 17.1507155,83.0761242 17.1507155,83.0761242 L38.38106,52.0853625 C39.1706048,52.7332739 39.975935,53.3781882 40.8120197,54.0135663 L16.2033162,89.942677 C16.2033162,89.942677 12.7011231,95.0545833 17.8074447,98.5606066 C22.9137664,102.0699 26.4159594,96.9547237 26.4159594,96.9547237 L51.0279288,61.0288826 C51.9320542,61.5838849 52.8269261,62.0675025 53.7220701,62.5726445 L30.7232106,96.1520547 C30.7232106,96.1520547 27.2210175,101.263961 32.3303329,104.769984 C37.4366545,108.279277 40.9388476,103.164101 40.9388476,103.164101 L65.2596026,67.6567599 L67.207473,64.8141781 L68.9569365,62.2565902 C53.6349779,51.7382476 52.1764566,31.9418033 60.9305784,19.1604028 C62.683308,16.6028148 65.2378296,18.3544642 65.2378296,18.3544642 C54.7279844,33.6964497 57.9392353,50.9353062 73.2641877,61.4536487 L68.737301,84.0899502 C68.737301,84.0899502 67.0496185,90.0573829 73.007538,91.7469112 C78.9654575,93.4364396 80.6531401,87.472004 80.6531401,87.472004 L85.8710485,71.9597306 C87.9394871,65.8092043 90.1412855,59.6807474 93.0550623,53.8868722 C101.282821,37.5187999 96.3683742,17.1736199 80.8512747,6.52204405 C63.9281814,-5.09376992 40.7965064,-0.778538484 29.1906609,16.1630634 C28.5774777,17.0621835 28.0633619,17.9392342 27.574285,18.8165574 L27.4379314,18.7203788 L1.17229979,57.0703021 Z" id="Shape" fill="#FFDC5D" transform="translate(48.500000, 53.000000) scale(-1, 1) rotate(-180.000000) translate(-48.500000, -53.000000) "></path>
            </g>
        </g>
    </g>
</svg>