<?xml version="1.0" encoding="UTF-8"?>
<svg width="100%" height="100%" viewBox="0 0 256 80" version="1.1" xmlns="http://www.w3.org/2000/svg" xmlns:xlink="http://www.w3.org/1999/xlink">
    <!-- Generator: Sketch 43 (38999) - http://www.bohemiancoding.com/sketch -->
    <title>Group 7</title>
    <desc>Created with Sketch.</desc>
    <defs>
        <rect id="path-1" x="0" y="0" width="256" height="80"></rect>
    </defs>
    <g id="Projects" stroke="none" stroke-width="1" fill="none" fill-rule="evenodd">
        <g id="Artboard" transform="translate(-60.000000, -201.000000)">
            <g id="Group-7" transform="translate(60.000000, 201.000000)">
                <g id="Rectangle-9">
                    <use fill="#FFFFFF" fill-rule="evenodd" xlink:href="#path-1"></use>
                    <rect stroke="#505050" stroke-width="3.5" x="1.75" y="1.75" width="252.5" height="76.5"></rect>
                </g>
                <path d="M203.187554,24.4653351 L200.621148,24.4653351 L200.175835,22.1215851 C199.878959,21.9340842 199.445369,21.7700233 198.875054,21.6293976 C198.304739,21.4887719 197.699276,21.4184601 197.058648,21.4184601 C196.121143,21.4184601 195.396541,21.6157238 194.88482,22.010257 C194.373098,22.4047902 194.117242,22.9145507 194.117242,23.5395539 C194.117242,24.1176817 194.384817,24.5922864 194.919976,24.963382 C195.455135,25.3344776 196.378954,25.7270518 197.69146,26.1411164 C199.574282,26.6645565 201.002002,27.3559558 201.974663,28.2153351 C202.947325,29.0747144 203.433648,30.2036094 203.433648,31.6020539 C203.433648,33.0629987 202.855529,34.2153309 201.699273,35.0590851 C200.543017,35.9028393 199.019595,36.3247101 197.12896,36.3247101 C195.777391,36.3247101 194.5567,36.1098685 193.466851,35.6801789 C192.377002,35.2504892 191.468808,34.6567451 190.742242,33.8989289 L190.742242,30.3364289 L193.390679,30.3364289 L193.75396,32.7622101 C194.097712,33.0434615 194.564504,33.2758811 195.154351,33.4594757 C195.744198,33.6430704 196.402394,33.7348664 197.12896,33.7348664 C198.066465,33.7348664 198.779349,33.543462 199.267632,33.1606476 C199.755916,32.7778332 200.000054,32.2661196 200.000054,31.6254914 C200.000054,30.9692381 199.767635,30.4418996 199.302788,30.0434601 C198.837942,29.6450206 198.023497,29.2700244 196.859429,28.9184601 C194.835981,28.3325197 193.304747,27.6372141 192.265679,26.8325226 C191.226611,26.0278311 190.707085,24.9262796 190.707085,23.5278351 C190.707085,22.1450157 191.293017,21.0141676 192.464898,20.135257 C193.636779,19.2563463 195.10942,18.805179 196.882867,18.7817414 C198.195373,18.7817414 199.390674,18.9809581 200.468804,19.3793976 C201.546935,19.7778371 202.453175,20.3090818 203.187554,20.9731476 L203.187554,24.4653351 Z M204.912867,34.0278351 L206.56521,33.6762726 L206.56521,25.8129914 L204.737085,25.4614289 L204.737085,23.3989289 L209.987085,23.3989289 L209.987085,33.6762726 L211.62771,34.0278351 L211.62771,36.0786164 L204.912867,36.0786164 L204.912867,34.0278351 Z M209.987085,20.3637726 L206.56521,20.3637726 L206.56521,17.7973664 L209.987085,17.7973664 L209.987085,20.3637726 Z M221.15771,34.5317414 C220.759271,35.1176818 220.288572,35.5629898 219.745601,35.8676789 C219.20263,36.1723679 218.583495,36.3247101 217.888179,36.3247101 C216.325671,36.3247101 215.112793,35.7544033 214.249507,34.6137726 C213.386222,33.4731419 212.954585,31.9653445 212.954585,30.0903351 L212.954585,29.8442414 C212.954585,27.8442314 213.388175,26.2309662 214.255367,25.0043976 C215.122558,23.777829 216.341296,23.1645539 217.911617,23.1645539 C218.544432,23.1645539 219.114739,23.3032243 219.622554,23.5805695 C220.130369,23.8579146 220.575677,24.2504888 220.958492,24.7583039 L220.958492,20.2114289 L219.130367,19.8598664 L219.130367,17.7973664 L224.380367,17.7973664 L224.380367,33.6762726 L226.020992,34.0278351 L226.020992,36.0786164 L221.415523,36.0786164 L221.15771,34.5317414 Z M216.37646,30.0903351 C216.37646,31.1997156 216.562005,32.0727538 216.933101,32.7094757 C217.304197,33.3461977 217.911612,33.6645539 218.755367,33.6645539 C219.255369,33.6645539 219.688959,33.5629924 220.056148,33.3598664 C220.423337,33.1567403 220.724115,32.8637745 220.958492,32.4809601 L220.958492,27.1020539 C220.724115,26.6958018 220.42529,26.3813518 220.062007,26.1586945 C219.698724,25.9360371 219.270994,25.8247101 218.778804,25.8247101 C217.942862,25.8247101 217.333494,26.1958001 216.950679,26.9379914 C216.567865,27.6801826 216.37646,28.6489229 216.37646,29.8442414 L216.37646,30.0903351 Z M233.336148,36.3247101 C231.508014,36.3247101 230.047091,35.7387785 228.953335,34.5668976 C227.85958,33.3950167 227.31271,31.9067504 227.31271,30.1020539 L227.31271,29.6333039 C227.31271,27.7504819 227.830283,26.1997162 228.865445,24.9809601 C229.900606,23.762204 231.289264,23.1567413 233.03146,23.1645539 C234.742406,23.1645539 236.070518,23.6801737 237.015835,24.7114289 C237.961153,25.742684 238.433804,27.1372013 238.433804,28.8950226 L238.433804,30.7583039 L230.863492,30.7583039 L230.840054,30.8286164 C230.902554,31.664558 231.181849,32.3520512 231.677945,32.8911164 C232.174041,33.4301815 232.847862,33.6997101 233.699429,33.6997101 C234.457245,33.6997101 235.086145,33.623539 235.586148,33.4711945 C236.08615,33.31885 236.63302,33.078618 237.226773,32.7504914 L238.152554,34.8598664 C237.629114,35.2739309 236.951386,35.6215837 236.119351,35.9028351 C235.287316,36.1840865 234.35959,36.3247101 233.336148,36.3247101 Z M233.03146,25.8012726 C232.398645,25.8012726 231.89865,26.0434577 231.53146,26.5278351 C231.164271,27.0122125 230.937711,27.6489249 230.851773,28.4379914 L230.886929,28.4965851 L235.082242,28.4965851 L235.082242,28.1918976 C235.082242,27.4653315 234.912321,26.8852591 234.572476,26.4516632 C234.232631,26.0180673 233.718964,25.8012726 233.03146,25.8012726 Z" id="Side" fill="#333333"></path>
                <path d="M188.515679,47.2421384 L187.214898,47.4765134 L190.238335,57.7069821 L190.449273,58.6444821 L190.519585,58.6444821 L190.718804,57.7304196 L193.75396,47.4765134 L192.464898,47.2421384 L192.464898,45.1796384 L198.699273,45.1796384 L198.699273,47.2421384 L197.269585,47.4296384 L192.242242,62.2421384 L188.726617,62.2421384 L183.687554,47.4296384 L182.281304,47.2421384 L182.281304,45.1796384 L188.515679,45.1796384 L188.515679,47.2421384 Z M199.873804,60.1913571 L201.526148,59.8397946 L201.526148,51.9765134 L199.698023,51.6249509 L199.698023,49.5624509 L204.948023,49.5624509 L204.948023,59.8397946 L206.588648,60.1913571 L206.588648,62.2421384 L199.873804,62.2421384 L199.873804,60.1913571 Z M204.948023,46.5272946 L201.526148,46.5272946 L201.526148,43.9608884 L204.948023,43.9608884 L204.948023,46.5272946 Z M213.93896,62.4882321 C212.110826,62.4882321 210.649903,61.9023005 209.556148,60.7304196 C208.462392,59.5585388 207.915523,58.0702724 207.915523,56.2655759 L207.915523,55.7968259 C207.915523,53.914004 208.433096,52.3632382 209.468257,51.1444821 C210.503419,49.925726 211.892077,49.3202633 213.634273,49.3280759 C215.345219,49.3280759 216.673331,49.8436957 217.618648,50.8749509 C218.563965,51.906206 219.036617,53.3007233 219.036617,55.0585446 L219.036617,56.9218259 L211.466304,56.9218259 L211.442867,56.9921384 C211.505367,57.82808 211.784661,58.5155732 212.280757,59.0546384 C212.776853,59.5937036 213.450675,59.8632321 214.302242,59.8632321 C215.060058,59.8632321 215.688958,59.787061 216.18896,59.6347165 C216.688963,59.482372 217.235832,59.24214 217.829585,58.9140134 L218.755367,61.0233884 C218.231927,61.4374529 217.554199,61.7851057 216.722163,62.0663571 C215.890128,62.3476085 214.962403,62.4882321 213.93896,62.4882321 Z M213.634273,51.9647946 C213.001457,51.9647946 212.501462,52.2069797 212.134273,52.6913571 C211.767084,53.1757345 211.540523,53.8124469 211.454585,54.6015134 L211.489742,54.6601071 L215.685054,54.6601071 L215.685054,54.3554196 C215.685054,53.6288535 215.515134,53.0487812 215.175288,52.6151852 C214.835443,52.1815893 214.321776,51.9647946 213.634273,51.9647946 Z M238.879117,51.6249509 L237.601773,51.7890134 L234.953335,62.2421384 L232.09396,62.2421384 L229.738492,54.6952634 L229.668179,54.6952634 L227.31271,62.2421384 L224.465054,62.2421384 L221.804898,51.7890134 L220.527554,51.6249509 L220.527554,49.5624509 L226.269742,49.5624509 L226.269742,51.6249509 L224.922085,51.8827634 L226.117398,57.6835446 L226.18771,57.6835446 L228.554898,49.5624509 L230.851773,49.5624509 L233.242398,57.7069821 L233.31271,57.7069821 L234.496304,51.8944821 L233.136929,51.6249509 L233.136929,49.5624509 L238.879117,49.5624509 L238.879117,51.6249509 Z" id="View" fill="#333333"></path>
            </g>
        </g>
    </g>
</svg>