<?xml version="1.0" encoding="UTF-8"?>
<svg width="100%" height="100%" viewBox="0 0 199 113" version="1.1" xmlns="http://www.w3.org/2000/svg" xmlns:xlink="http://www.w3.org/1999/xlink">
    <!-- Generator: Sketch 43 (38999) - http://www.bohemiancoding.com/sketch -->
    <title>Shappy Logo</title>
    <desc>Created with Sketch.</desc>
    <defs>
        <filter x="-2.6%" y="-1.9%" width="105.3%" height="107.7%" filterUnits="objectBoundingBox" id="filter-1">
            <feOffset dx="0" dy="1" in="SourceAlpha" result="shadowOffsetOuter1"></feOffset>
            <feGaussianBlur stdDeviation="0.5" in="shadowOffsetOuter1" result="shadowBlurOuter1"></feGaussianBlur>
            <feColorMatrix values="0 0 0 0 0   0 0 0 0 0   0 0 0 0 0  0 0 0 0.256821784 0" type="matrix" in="shadowBlurOuter1" result="shadowMatrixOuter1"></feColorMatrix>
            <feMerge>
                <feMergeNode in="shadowMatrixOuter1"></feMergeNode>
                <feMergeNode in="SourceGraphic"></feMergeNode>
            </feMerge>
        </filter>
        <radialGradient cx="56.8823167%" cy="91.2736044%" fx="56.8823167%" fy="91.2736044%" r="38.4942193%" gradientTransform="translate(0.568823,0.912736),scale(0.585496,1.000000),rotate(-109.403910),scale(1.000000,3.199705),translate(-0.568823,-0.912736)" id="radialGradient-2">
            <stop stop-color="#CACACE" offset="0%"></stop>
            <stop stop-color="#FFFFFF" offset="100%"></stop>
        </radialGradient>
        <linearGradient x1="50%" y1="0%" x2="50%" y2="100%" id="linearGradient-3">
            <stop stop-color="#75FFE3" offset="0%"></stop>
            <stop stop-color="#8BBDB3" offset="100%"></stop>
        </linearGradient>
        <radialGradient cx="34.9492503%" cy="-5.75109701%" fx="34.9492503%" fy="-5.75109701%" r="54.9328611%" gradientTransform="translate(0.349493,-0.057511),scale(0.726626,1.000000),rotate(-98.647731),translate(-0.349493,0.057511)" id="radialGradient-4">
            <stop stop-color="#9FA09A" offset="0%"></stop>
            <stop stop-color="#D5D6D1" offset="100%"></stop>
        </radialGradient>
        <linearGradient x1="44.8867629%" y1="50%" x2="50%" y2="100%" id="linearGradient-5">
            <stop stop-color="#EEEEEE" offset="0%"></stop>
            <stop stop-color="#A8A6A6" offset="100%"></stop>
        </linearGradient>
        <linearGradient x1="50%" y1="0%" x2="50%" y2="100%" id="linearGradient-6">
            <stop stop-color="#D3A5FF" offset="0%"></stop>
            <stop stop-color="#B49DCA" offset="100%"></stop>
        </linearGradient>
        <radialGradient cx="52.8787464%" cy="44.5931658%" fx="52.8787464%" fy="44.5931658%" r="30.7947518%" gradientTransform="translate(0.528787,0.445932),scale(0.670215,1.000000),rotate(-73.960535),scale(1.000000,2.435740),translate(-0.528787,-0.445932)" id="radialGradient-7">
            <stop stop-color="#F1F1F1" offset="0%"></stop>
            <stop stop-color="#A7A8A2" offset="100%"></stop>
        </radialGradient>
        <radialGradient cx="52.8787464%" cy="44.5931658%" fx="52.8787464%" fy="44.5931658%" r="30.7947518%" gradientTransform="translate(0.528787,0.445932),scale(0.985243,1.000000),rotate(-78.934518),scale(1.000000,2.435740),translate(-0.528787,-0.445932)" id="radialGradient-8">
            <stop stop-color="#F1F1F1" offset="0%"></stop>
            <stop stop-color="#A7A8A2" offset="100%"></stop>
        </radialGradient>
        <linearGradient x1="51.112771%" y1="50%" x2="51.112771%" y2="68.9177454%" id="linearGradient-9">
            <stop stop-color="#EBEBEB" offset="0%"></stop>
            <stop stop-color="#E8E8E8" offset="93.8820128%"></stop>
            <stop stop-color="#CCCBCB" offset="100%"></stop>
        </linearGradient>
    </defs>
    <g id="Projects" stroke="none" stroke-width="1" fill="none" fill-rule="evenodd">
        <g id="Artboard" transform="translate(-90.000000, -199.000000)">
            <g id="Shappy-Logo" transform="translate(90.000000, 199.000000)">
                <g id="Shappy" filter="url(#filter-1)" transform="translate(122.000000, 0.000000)">
                    <path d="M65.1453947,13.6382203 C66.3723201,19.4277996 62.5984644,37.5801099 47.6175005,45.643682 C32.6365366,53.7072541 18.1455353,43.2252522 1.60585833,48.151696 C1.60585833,48.151696 8.81427668,22.5933238 32.868275,17.1703965 C44.7856035,14.4836579 63.9889551,8.18124748 65.1453947,13.6382203 Z" id="Path-2" fill="url(#radialGradient-2)" transform="translate(33.483350, 30.146206) rotate(-5.000000) translate(-33.483350, -30.146206) "></path>
                    <path d="M53.1360328,31.363784 C44.4829729,33.3219662 19.1843756,26.4796001 27.9999931,18.8363877 C51.0113547,-1.11465075 67.9712868,0.887782604 75.8219094,9.17286942 C75.8219094,9.17286942 65.714026,10.1352746 64.3076061,18.8363877 C63.8327982,21.7738864 61.31477,29.5129408 53.1360328,31.363784 Z" id="Path" fill="url(#linearGradient-3)"></path>
                    <path d="M56.7899408,30.0698684 C43.7919699,40.0812901 16.6161395,27.9505008 27.1325182,19.1588218 C47.359165,2.24937107 56.9287613,3.11652239 62.8010136,6.8019155 C66.3691214,8.70004745 64.7725913,15.5202031 63.6322127,20.294312 C62.491834,25.0684209 61.8076068,26.2051135 56.7899408,30.0698684 Z" id="Path" fill="url(#radialGradient-4)" opacity="0.619986007" style="mix-blend-mode: darken;"></path>
                    <path d="M43.6987509,24.6789554 C51.6455284,19.3172117 57.1991471,19.7519126 64.5461063,23.8857353 C64.5461063,23.8857353 63.9050698,36.6875642 49.1214991,45.4119741 C34.3379284,54.136384 18.6815426,43.3748797 2.14186565,48.3013235 C2.14186565,48.3013235 7.57007907,39.6925714 21.8986623,33.4901087 C36.2272455,27.287646 35.7519734,30.0406992 43.6987509,24.6789554 Z" id="Path-2" fill="url(#linearGradient-5)" style="mix-blend-mode: darken;" transform="translate(33.343986, 34.838018) rotate(-5.000000) translate(-33.343986, -34.838018) "></path>
                    <path d="M53.5991763,18.7235017 C53.5991763,18.7235017 51.6920645,13.4800608 42.3708173,13.5023733 C33.04957,13.5246858 22.0658138,8.52308693 13.7736776,1.52242467 C13.7736776,1.52242467 7.08436511,19.6228064 21.7909197,34.3235449 C36.4974742,49.0242834 61.3879495,33.8812104 53.5991763,18.7235017 Z" id="Path-3" fill="url(#linearGradient-6)" transform="translate(33.664946, 20.916938) rotate(3.000000) translate(-33.664946, -20.916938) "></path>
                    <path d="M12.6632189,12.9595516 C12.6632189,12.9595516 19.1799699,42.1901429 52.6946896,31.750646 C52.6946896,31.750646 48.0267133,41.0776583 34.308142,39.6382658 C25.4639798,38.7103106 17.7835232,30.8226907 15.4561122,25.0229702 C13.1287011,19.2232497 12.6632189,12.9595516 12.6632189,12.9595516 Z" id="Path-4" fill="url(#radialGradient-7)" opacity="0.164703825" style="mix-blend-mode: multiply;"></path>
                    <path d="M14.7210256,0.432155333 C14.7210256,0.432155333 26.5908222,38.9422994 52.6578264,31.5186572 C52.6578264,31.5186572 46.1273758,41.8186562 34.5040199,40.1022435 C33.1188933,39.8977028 31.8524987,39.6424415 30.6889465,39.336149 C21.2949456,36.8632802 18.6044464,31.0640824 14.2555434,21.7751267 C9.36798012,11.3356299 14.7210256,0.432155333 14.7210256,0.432155333 Z" id="Path-4" fill="url(#radialGradient-8)" opacity="0.264633862" style="mix-blend-mode: multiply;"></path>
                </g>
                <g id="Title-+-Slogan" transform="translate(0.000000, 37.000000)" fill="url(#linearGradient-9)">
                    <path d="M60.4681411,9.88599949 C60.4681411,8.34599188 59.7641481,6.89400649 58.3561412,5.52999975 C56.3321312,3.59399018 53.5381593,2.62599992 49.9741417,2.62599992 C46.8501262,2.62599992 43.396161,3.30799306 39.6121423,4.6719998 C37.6321325,5.37600328 35.9161498,6.34399354 34.4641426,7.57599963 C32.2201315,9.51200919 31.0981428,11.4479897 31.0981428,13.3839993 C31.0981428,15.9800121 32.7481262,18.3119886 36.0481425,20.3799989 C37.2801486,21.1280026 39.7551237,22.3489903 43.4731421,24.0429986 C47.1911604,25.737007 49.9081331,27.1119932 51.6241416,28.1679984 C54.2201544,29.7520062 56.0131364,31.4459892 57.0031413,33.2499981 C57.9931462,35.054007 58.4881412,36.7259902 58.4881412,38.2659978 C58.4881412,40.4660087 57.7621485,42.7099861 56.3101413,44.9979974 C53.7581287,49.0900176 50.0181663,52.6099822 45.090142,55.5579968 C39.4141139,58.9900137 32.5721828,60.7059965 24.5641432,60.7059965 C16.8641052,60.7059965 10.7481667,58.7480162 6.21614429,54.8319968 C2.6961269,51.839982 0.936144602,47.9900208 0.936144602,43.2819975 C0.936144602,40.2899827 2.02513365,36.9900159 4.20314441,33.3819981 C6.38115517,29.7739803 9.05412828,27.2220059 12.2221439,25.7259985 C12.8821472,25.4619972 13.3771422,25.3739981 13.7071438,25.4619986 C14.0371455,25.549999 13.7621482,25.9679948 12.8821439,26.7159985 C10.9901345,28.2120059 9.47214981,29.8619893 8.32814416,31.6659982 C5.86413199,35.5380173 4.63214438,39.739975 4.63214438,44.2719974 C4.63214438,47.2640122 5.46813597,49.8819859 7.14014423,52.125997 C10.132159,56.1300168 15.3241068,58.395994 22.7161433,58.9239966 C23.5521474,59.011997 24.7951349,59.0559966 26.4451431,59.0559966 C28.0951512,59.0559966 30.3391287,58.7589995 33.1771427,58.1649966 C36.0151567,57.5709937 38.7541291,56.5920035 41.3941422,55.2279968 C47.0701702,52.235982 50.7441333,48.364021 52.4161415,43.6119975 C52.9441441,42.2039905 53.2081415,40.8400042 53.2081415,39.5199977 C53.2081415,36.5279829 51.866155,33.8880095 49.1821417,31.5999982 C47.7301346,30.4559925 44.7711643,28.9270079 40.3051423,27.0129985 C35.8391202,25.098989 32.8361504,23.6360037 31.2961428,22.6239987 C27.9081261,20.3359874 26.2141431,17.6300146 26.2141431,14.5059992 C26.2141431,11.7779857 27.7321278,9.11601251 30.7681428,6.51999969 C35.1241643,2.82398143 41.2841024,0.976000019 49.2481417,0.976000019 C52.9881602,0.976000019 56.0351295,1.53699438 58.3891412,2.65899992 C60.7431528,3.78100546 62.1841383,5.46398853 62.7121409,7.70799962 C62.8001414,8.14800179 62.8441409,8.58799737 62.8441409,9.02799954 C62.8441409,10.744008 62.0521489,12.2839925 60.4681411,13.6479993 C59.3681356,14.5280036 57.8941504,15.2319965 56.0461413,15.7599991 C55.2541374,15.9800002 54.8141418,15.8920011 54.7261414,15.4959992 C54.638141,14.9239963 55.1881354,14.5719999 56.3761413,14.4399992 C58.4881517,14.1759979 59.7861387,13.1200085 60.2701411,11.2719994 C60.4021417,10.787997 60.4681411,10.3260017 60.4681411,9.88599949 Z M75.9781401,51.729997 C75.9781401,52.9620031 76.4181357,53.5779969 77.2981401,53.5779969 C79.3661503,53.5779969 82.2921208,49.7060358 86.0761395,41.9619976 C86.384141,41.3459945 86.6591383,41.103997 86.9011395,41.2359976 C87.1431407,41.3679983 87.2641395,41.5439965 87.2641395,41.7639976 C87.2641395,41.9839987 87.011142,42.6109924 86.5051395,43.6449975 C85.999137,44.6790026 85.4931421,45.6689926 84.9871396,46.6149973 C84.4811371,47.561002 83.7441445,48.8039895 82.7761397,50.3439971 C80.7521297,53.4240123 78.5961514,54.9639968 76.3081401,54.9639968 C74.8121327,54.9639968 73.6241447,54.348003 72.7441403,53.1159969 C72.3481384,52.5439941 72.1501404,51.7630019 72.1501404,50.7729971 C72.1501404,49.7829922 72.3701381,48.5840042 72.8101403,47.1759973 C73.2501425,45.7679903 74.4601303,43.4800133 76.4401401,40.3119977 C76.9241425,39.5199938 77.1661401,38.8930001 77.1661401,38.4309978 C77.1661401,37.9689955 76.7921438,37.7379978 76.0441401,37.7379978 C75.2961364,37.7379978 73.8661508,38.7279879 71.7541404,40.7079977 C68.5861247,43.612012 65.5061557,47.9679682 62.5141409,53.7759969 C62.2061394,54.4360001 61.3921476,54.7659968 60.0721411,54.7659968 C58.8841352,54.8539972 58.1361427,54.9859959 57.8281412,55.1619968 C66.1881825,37.7819109 72.2381217,25.6600329 75.9781401,18.795999 C76.8141443,17.2559913 77.5511368,16.1780022 78.18914,15.5619991 C78.8271431,14.9459961 79.5861355,14.6379992 80.4661399,14.6379992 C80.6861409,14.6379992 81.1481363,14.6929987 81.8521398,14.8029992 C82.5561433,14.9129997 83.0841379,14.9459994 83.4361397,14.9019992 C82.1161332,16.2660059 79.751157,20.038968 76.3411401,26.2209985 C72.9311233,32.4030291 69.6641561,38.6839659 66.5401407,45.0639974 C68.6081509,42.4679846 70.4671322,40.4440049 72.1171404,38.9919978 C73.7671485,37.5399906 75.7801283,36.1650044 78.15614,34.866998 C80.5321517,33.5689916 82.2701343,32.9199981 83.3701397,32.9199981 C83.634141,32.9199981 83.8761386,32.9639977 84.0961396,33.0519981 C78.6841129,42.5560451 75.9781401,48.7819824 75.9781401,51.729997 Z M102.840139,42.1929976 C101.388131,44.9870114 100.51914,47.0769903 100.233139,48.4629972 C99.9471373,49.849004 99.8041387,50.9709927 99.8041387,51.828997 C99.8041387,52.6870012 100.134135,53.1159969 100.794139,53.1159969 C101.630143,53.1159969 102.664132,52.3460047 103.896138,50.805997 C105.700147,48.561986 107.482129,45.6360154 109.242138,42.0279976 C109.418139,41.6319956 109.616137,41.4119978 109.836138,41.3679976 C110.18814,41.235997 110.364138,41.3679956 110.364138,41.7639976 C110.364138,41.9839987 110.298139,42.247996 110.166138,42.5559975 C106.118118,50.740038 102.708152,54.8319968 99.9361387,54.8319968 C98.6601324,54.8319968 97.6261428,54.216003 96.8341389,52.9839969 C96.4381369,52.3239937 96.2401389,51.4440025 96.2401389,50.3439971 C96.2401389,49.2439916 96.4601367,47.9020051 96.9001389,46.3179973 C93.3801215,51.9940254 90.344152,54.8319968 87.7921394,54.8319968 C87.0881359,54.8319968 86.4501424,54.611999 85.8781395,54.1719968 C84.558133,53.2479923 83.8981397,51.6640082 83.8981397,49.4199971 C83.8981397,45.1079758 85.7681208,40.7300199 89.5081393,36.2859979 C91.6201498,33.8219857 94.2161236,32.2160019 97.2961389,31.4679982 C98.132143,31.2479971 98.924135,31.1379982 99.6721387,31.1379982 C101.696149,31.1379982 103.412131,31.8419911 104.820138,33.2499981 C105.260141,33.7340005 105.392139,34.1959958 105.216138,34.635998 C105.040138,35.0760002 104.666141,35.2519984 104.094138,35.163998 C103.610136,33.5799902 102.554147,32.7879981 100.926139,32.7879981 C99.0341293,32.7879981 96.7021528,34.2839831 93.9301391,37.2759979 C92.3461312,39.0360066 90.8721461,41.1039857 89.5081393,43.4799975 C87.7921308,46.3400116 86.9341395,48.6279886 86.9341395,50.3439971 C86.9341395,52.0600056 87.4841339,52.9179969 88.5841394,52.9179969 C91.2241524,52.9179969 94.6781177,48.8700376 98.9461388,40.7739976 C99.7821429,39.1459896 100.486136,38.0350008 101.058139,37.4409978 C101.630141,36.8469949 102.356134,36.5499979 103.236139,36.5499979 C103.412139,36.5499979 103.863135,36.6159972 104.589138,36.7479979 C105.315142,36.8799985 105.854137,36.9019983 106.206138,36.8139979 C105.414134,37.6060018 104.292146,39.3989838 102.840139,42.1929976 Z M129.042137,36.7479979 C129.042137,38.6840075 128.536142,40.817986 127.524137,43.1499975 C126.512132,45.482009 125.115146,47.7259865 123.333137,49.8819971 C121.551129,52.0380078 119.38415,53.5119929 116.832138,54.3039968 C115.864133,54.5679981 114.753144,54.6999968 113.499138,54.6999968 C112.245132,54.6999968 110.870146,54.3040008 109.374138,53.5119969 L103.104139,69.153996 C102.444135,70.5620029 101.828141,71.4859936 101.256139,71.9259958 C100.684136,72.365998 100.134141,72.5859958 99.6061387,72.5859958 L98.6491388,72.5859958 C98.5391382,72.5859958 98.1431422,72.5199964 97.4611388,72.3879958 C96.7791355,72.2559951 96.2621407,72.2119956 95.9101389,72.2559958 C96.8781437,71.3319912 99.331119,66.9430354 103.269139,59.0889966 C107.207158,51.2349578 109.440135,45.944011 109.968138,43.2159975 C109.484136,43.920001 109.02214,44.2939972 108.582138,44.3379974 C108.318137,44.3379974 108.318137,44.085 108.582138,43.5789975 C108.846139,43.072995 109.286135,42.0940048 109.902138,40.6419977 C110.694142,38.7499883 111.090138,37.0010059 111.090138,35.394998 C111.090138,33.78899 110.782141,32.8539994 110.166138,32.5899981 C112.806151,32.149996 114.346136,31.9409981 114.786138,31.9629982 C115.22614,31.9849983 115.501137,32.1719964 115.611138,32.5239981 C115.721138,32.8759999 115.776138,33.2719959 115.776138,33.7119981 C115.776138,36.3960113 115.160144,39.3879812 113.928138,42.6879975 L115.248138,40.5759977 C116.832146,38.0239851 117.987134,36.3740016 118.713138,35.625998 C119.439141,34.8779943 120.220133,34.108002 121.056137,33.3159981 C122.332144,32.083992 123.564131,31.4679982 124.752137,31.4679982 C125.104139,31.4679982 125.434136,31.5119978 125.742137,31.5999982 C127.942148,32.172001 129.042137,33.8879838 129.042137,36.7479979 Z M125.874137,36.0879979 C125.874137,35.3839944 125.731139,34.735001 125.445137,34.140998 C125.159136,33.5469951 124.70814,33.2499981 124.092137,33.2499981 C122.55213,33.2499981 120.759148,34.6799837 118.713138,37.5399978 C116.667127,40.400012 113.730157,45.3939617 109.902138,52.5219969 C110.474141,53.0939998 111.266133,53.3799969 112.278138,53.3799969 C113.290143,53.3799969 114.720129,52.6100046 116.568138,51.069997 C119.516152,48.6059849 121.980127,45.5480156 123.960137,41.8959976 C125.236144,39.5199858 125.874137,37.5840053 125.874137,36.0879979 Z M151.218136,36.7479979 C151.218136,38.6840075 150.712141,40.817986 149.700136,43.1499975 C148.688131,45.482009 147.291145,47.7259865 145.509136,49.8819971 C143.727127,52.0380078 141.560149,53.5119929 139.008136,54.3039968 C138.040132,54.5679981 136.929143,54.6999968 135.675137,54.6999968 C134.42113,54.6999968 133.046144,54.3040008 131.550137,53.5119969 L125.280137,69.153996 C124.620134,70.5620029 124.00414,71.4859936 123.432137,71.9259958 C122.860134,72.365998 122.31014,72.5859958 121.782137,72.5859958 L120.825137,72.5859958 C120.715137,72.5859958 120.319141,72.5199964 119.637138,72.3879958 C118.955134,72.2559951 118.438139,72.2119956 118.086138,72.2559958 C119.054142,71.3319912 121.507118,66.9430354 125.445137,59.0889966 C129.383157,51.2349578 131.616134,45.944011 132.144137,43.2159975 C131.660134,43.920001 131.198139,44.2939972 130.758137,44.3379974 C130.494136,44.3379974 130.494136,44.085 130.758137,43.5789975 C131.022138,43.072995 131.462134,42.0940048 132.078137,40.6419977 C132.870141,38.7499883 133.266137,37.0010059 133.266137,35.394998 C133.266137,33.78899 132.95814,32.8539994 132.342137,32.5899981 C134.98215,32.149996 136.522134,31.9409981 136.962136,31.9629982 C137.402139,31.9849983 137.677136,32.1719964 137.787136,32.5239981 C137.897137,32.8759999 137.952136,33.2719959 137.952136,33.7119981 C137.952136,36.3960113 137.336143,39.3879812 136.104137,42.6879975 L137.424136,40.5759977 C139.008144,38.0239851 140.163133,36.3740016 140.889136,35.625998 C141.61514,34.8779943 142.396132,34.108002 143.232136,33.3159981 C144.508142,32.083992 145.74013,31.4679982 146.928136,31.4679982 C147.280138,31.4679982 147.610134,31.5119978 147.918136,31.5999982 C150.118147,32.172001 151.218136,33.8879838 151.218136,36.7479979 Z M148.050136,36.0879979 C148.050136,35.3839944 147.907137,34.735001 147.621136,34.140998 C147.335134,33.5469951 146.884139,33.2499981 146.268136,33.2499981 C144.728128,33.2499981 142.935146,34.6799837 140.889136,37.5399978 C138.843126,40.400012 135.906156,45.3939617 132.078137,52.5219969 C132.65014,53.0939998 133.442132,53.3799969 134.454137,53.3799969 C135.466142,53.3799969 136.896127,52.6100046 138.744136,51.069997 C141.692151,48.6059849 144.156126,45.5480156 146.136136,41.8959976 C147.412142,39.5199858 148.050136,37.5840053 148.050136,36.0879979 Z M144.486136,75.5559956 C142.550126,75.5559956 141.054142,75.1489997 139.998136,74.3349956 C138.942131,73.5209916 138.414136,72.5420015 138.414136,71.3979958 C138.414136,70.2539902 138.744133,68.9560032 139.404136,67.5039961 C140.548142,65.259985 142.616121,63.4560031 145.608136,62.0919964 C147.852147,61.0359912 150.822117,60.057001 154.518135,59.1549966 C158.214154,58.2529921 160.59013,57.6479982 161.646135,57.3399967 C163.230143,54.567983 165.122124,49.6180328 167.322135,42.4899975 C164.770122,46.9780197 162.636144,50.1239881 160.920135,51.927997 C159.204127,53.7320059 157.466144,54.6339968 155.706135,54.6339968 C153.330124,54.6339968 151.944138,53.6440068 151.548136,51.663997 C151.372135,51.3559955 151.328135,50.8940001 151.416136,50.2779971 C151.504136,49.661994 151.559136,49.2219985 151.581136,48.9579972 C151.603136,48.6939959 151.746134,48.2650002 152.010136,47.6709972 C152.274137,47.0769943 152.450135,46.6479986 152.538136,46.3839973 C153.022138,45.3719923 153.440134,44.5800003 153.792135,44.0079975 C153.088132,44.0079975 152.890134,43.656001 153.198136,42.9519975 L154.386135,40.6419977 C155.882143,37.7819835 157.11413,35.3620079 158.082135,33.3819981 C158.522137,32.4579935 159.380129,31.9959982 160.656135,31.9959982 L164.682135,31.9959982 C164.594134,32.0839986 164.374137,32.2599968 164.022135,32.5239981 C163.230131,33.0520007 162.636137,33.6679946 162.240135,34.371998 C160.656127,37.1000115 158.676147,40.9939723 156.300135,46.0539973 C155.332131,48.1220075 154.848135,49.6399923 154.848135,50.6079971 C154.848135,51.5760018 155.013134,52.257995 155.343135,52.6539969 C155.673137,53.0499989 156.124132,53.2479969 156.696135,53.2479969 C157.532139,53.2479969 158.698128,52.3680058 160.194135,50.6079971 C163.318151,46.955979 166.772116,41.2140368 170.556134,33.3819981 C171.040137,32.4579935 171.898128,31.9959982 173.130134,31.9959982 L176.694134,31.9959982 C175.550128,32.7880021 174.648138,33.788992 173.988134,34.998998 C173.328131,36.209004 172.613138,37.8479875 171.843134,39.9159977 C171.073131,41.9840079 170.10514,44.7339803 168.939135,48.1659972 C167.773129,51.5980142 166.882138,54.1719883 166.266135,55.8879967 C170.402155,54.6559907 173.570123,52.4780126 175.770134,49.3539971 C176.738139,47.9899904 178.124125,45.5700147 179.928134,42.0939976 C180.236135,41.4779945 180.511133,41.235997 180.753134,41.3679976 C180.995135,41.4999983 181.116134,41.6759965 181.116134,41.8959976 C181.116134,42.1159987 180.753138,42.9629901 180.027134,44.4369974 C179.30113,45.9110047 178.564138,47.274991 177.816134,48.5289972 C177.06813,49.7830034 176.10014,51.0699904 174.912134,52.389997 C173.724128,53.7100035 172.404142,54.754993 170.952134,55.5249968 C169.500127,56.2950006 167.564147,57.1199923 165.144135,57.9999966 C161.756118,64.1600271 158.346152,68.6919815 154.914135,71.5959958 C151.70212,74.2360089 148.226155,75.5559956 144.486136,75.5559956 Z M140.658136,69.021996 C140.174134,69.9900007 139.932136,70.8809918 139.932136,71.6949958 C139.932136,72.5089998 140.240133,73.1359935 140.856136,73.5759957 C141.472139,74.0159979 142.242132,74.2359957 143.166136,74.2359957 C145.718149,74.2359957 148.446121,72.9270088 151.350136,70.3089959 C154.25415,67.690983 156.806124,64.8860112 159.006135,61.8939964 L160.458135,59.4519965 C153.198099,61.3440059 148.622145,62.7079922 146.730136,63.5439963 C143.914122,64.7760024 141.890142,66.601984 140.658136,69.021996 Z M185.208134,55.6239968 C184.46013,55.6239968 183.888136,55.3929991 183.492134,54.9309968 C183.096132,54.4689945 182.898134,54.0619986 182.898134,53.7099969 C182.898134,52.521991 183.25013,51.6419999 183.954134,51.069997 C184.658137,50.4979942 185.38413,50.2119971 186.132134,50.2119971 C186.880137,50.2119971 187.452132,50.4429948 187.848133,50.904997 C188.244135,51.3669993 188.442133,51.7739952 188.442133,52.125997 C188.442133,52.4779987 188.398134,52.8849946 188.310133,53.3469969 C188.222133,53.8089992 187.870137,54.3039942 187.254133,54.8319968 C186.63813,55.3599994 185.956137,55.6239968 185.208134,55.6239968 Z" id="Shappy."></path>
                </g>
            </g>
        </g>
    </g>
</svg>