<?xml version="1.0" encoding="UTF-8"?>
<svg width="691px" height="4027px" viewBox="0 0 691 4027" version="1.1" xmlns="http://www.w3.org/2000/svg" xmlns:xlink="http://www.w3.org/1999/xlink">
    <!-- Generator: Sketch 55.2 (78181) - https://sketchapp.com -->
    <title>timeline</title>
    <desc>Created with Sketch.</desc>
    <defs>
        <circle id="path-1" cx="495.75" cy="264.739664" r="17.3933394"></circle>
        <filter x="-27.3%" y="-24.4%" width="154.6%" height="154.6%" filterUnits="objectBoundingBox" id="filter-2">
            <feMorphology radius="3" operator="dilate" in="SourceAlpha" result="shadowSpreadOuter1"></feMorphology>
            <feOffset dx="0" dy="1" in="shadowSpreadOuter1" result="shadowOffsetOuter1"></feOffset>
            <feGaussianBlur stdDeviation="2" in="shadowOffsetOuter1" result="shadowBlurOuter1"></feGaussianBlur>
            <feComposite in="shadowBlurOuter1" in2="SourceAlpha" operator="out" result="shadowBlurOuter1"></feComposite>
            <feColorMatrix values="0 0 0 0 0   0 0 0 0 0   0 0 0 0 0  0 0 0 0.3 0" type="matrix" in="shadowBlurOuter1"></feColorMatrix>
        </filter>
        <circle id="path-3" cx="104.782442" cy="609.743782" r="17.3933394"></circle>
        <filter x="-27.3%" y="-24.4%" width="154.6%" height="154.6%" filterUnits="objectBoundingBox" id="filter-4">
            <feMorphology radius="3" operator="dilate" in="SourceAlpha" result="shadowSpreadOuter1"></feMorphology>
            <feOffset dx="0" dy="1" in="shadowSpreadOuter1" result="shadowOffsetOuter1"></feOffset>
            <feGaussianBlur stdDeviation="2" in="shadowOffsetOuter1" result="shadowBlurOuter1"></feGaussianBlur>
            <feComposite in="shadowBlurOuter1" in2="SourceAlpha" operator="out" result="shadowBlurOuter1"></feComposite>
            <feColorMatrix values="0 0 0 0 0   0 0 0 0 0   0 0 0 0 0  0 0 0 0.3 0" type="matrix" in="shadowBlurOuter1"></feColorMatrix>
        </filter>
        <circle id="path-5" cx="574.692948" cy="1166.9965" r="17.3933394"></circle>
        <filter x="-27.3%" y="-24.4%" width="154.6%" height="154.6%" filterUnits="objectBoundingBox" id="filter-6">
            <feMorphology radius="3" operator="dilate" in="SourceAlpha" result="shadowSpreadOuter1"></feMorphology>
            <feOffset dx="0" dy="1" in="shadowSpreadOuter1" result="shadowOffsetOuter1"></feOffset>
            <feGaussianBlur stdDeviation="2" in="shadowOffsetOuter1" result="shadowBlurOuter1"></feGaussianBlur>
            <feComposite in="shadowBlurOuter1" in2="SourceAlpha" operator="out" result="shadowBlurOuter1"></feComposite>
            <feColorMatrix values="0 0 0 0 0   0 0 0 0 0   0 0 0 0 0  0 0 0 0.3 0" type="matrix" in="shadowBlurOuter1"></feColorMatrix>
        </filter>
        <circle id="path-7" cx="80.4959282" cy="1875.22816" r="17.3933394"></circle>
        <filter x="-27.3%" y="-24.4%" width="154.6%" height="154.6%" filterUnits="objectBoundingBox" id="filter-8">
            <feMorphology radius="3" operator="dilate" in="SourceAlpha" result="shadowSpreadOuter1"></feMorphology>
            <feOffset dx="0" dy="1" in="shadowSpreadOuter1" result="shadowOffsetOuter1"></feOffset>
            <feGaussianBlur stdDeviation="2" in="shadowOffsetOuter1" result="shadowBlurOuter1"></feGaussianBlur>
            <feComposite in="shadowBlurOuter1" in2="SourceAlpha" operator="out" result="shadowBlurOuter1"></feComposite>
            <feColorMatrix values="0 0 0 0 0   0 0 0 0 0   0 0 0 0 0  0 0 0 0.3 0" type="matrix" in="shadowBlurOuter1"></feColorMatrix>
        </filter>
        <circle id="path-9" cx="557.299608" cy="2487.27382" r="17.3933394"></circle>
        <filter x="-27.3%" y="-24.4%" width="154.6%" height="154.6%" filterUnits="objectBoundingBox" id="filter-10">
            <feMorphology radius="3" operator="dilate" in="SourceAlpha" result="shadowSpreadOuter1"></feMorphology>
            <feOffset dx="0" dy="1" in="shadowSpreadOuter1" result="shadowOffsetOuter1"></feOffset>
            <feGaussianBlur stdDeviation="2" in="shadowOffsetOuter1" result="shadowBlurOuter1"></feGaussianBlur>
            <feComposite in="shadowBlurOuter1" in2="SourceAlpha" operator="out" result="shadowBlurOuter1"></feComposite>
            <feColorMatrix values="0 0 0 0 0   0 0 0 0 0   0 0 0 0 0  0 0 0 0.3 0" type="matrix" in="shadowBlurOuter1"></feColorMatrix>
        </filter>
        <circle id="path-11" cx="612.64334" cy="3503.63183" r="17.3933394"></circle>
        <filter x="-27.3%" y="-24.4%" width="154.6%" height="154.6%" filterUnits="objectBoundingBox" id="filter-12">
            <feMorphology radius="3" operator="dilate" in="SourceAlpha" result="shadowSpreadOuter1"></feMorphology>
            <feOffset dx="0" dy="1" in="shadowSpreadOuter1" result="shadowOffsetOuter1"></feOffset>
            <feGaussianBlur stdDeviation="2" in="shadowOffsetOuter1" result="shadowBlurOuter1"></feGaussianBlur>
            <feComposite in="shadowBlurOuter1" in2="SourceAlpha" operator="out" result="shadowBlurOuter1"></feComposite>
            <feColorMatrix values="0 0 0 0 0   0 0 0 0 0   0 0 0 0 0  0 0 0 0.3 0" type="matrix" in="shadowBlurOuter1"></feColorMatrix>
        </filter>
        <circle id="path-13" cx="100.195656" cy="3110.36466" r="17.3933394"></circle>
        <filter x="-27.3%" y="-24.4%" width="154.6%" height="154.6%" filterUnits="objectBoundingBox" id="filter-14">
            <feMorphology radius="3" operator="dilate" in="SourceAlpha" result="shadowSpreadOuter1"></feMorphology>
            <feOffset dx="0" dy="1" in="shadowSpreadOuter1" result="shadowOffsetOuter1"></feOffset>
            <feGaussianBlur stdDeviation="2" in="shadowOffsetOuter1" result="shadowBlurOuter1"></feGaussianBlur>
            <feComposite in="shadowBlurOuter1" in2="SourceAlpha" operator="out" result="shadowBlurOuter1"></feComposite>
            <feColorMatrix values="0 0 0 0 0   0 0 0 0 0   0 0 0 0 0  0 0 0 0.3 0" type="matrix" in="shadowBlurOuter1"></feColorMatrix>
        </filter>
        <circle id="path-15" cx="379.963321" cy="4001.10023" r="17.3933394"></circle>
        <filter x="-27.3%" y="-24.4%" width="154.6%" height="154.6%" filterUnits="objectBoundingBox" id="filter-16">
            <feMorphology radius="3" operator="dilate" in="SourceAlpha" result="shadowSpreadOuter1"></feMorphology>
            <feOffset dx="0" dy="1" in="shadowSpreadOuter1" result="shadowOffsetOuter1"></feOffset>
            <feGaussianBlur stdDeviation="2" in="shadowOffsetOuter1" result="shadowBlurOuter1"></feGaussianBlur>
            <feComposite in="shadowBlurOuter1" in2="SourceAlpha" operator="out" result="shadowBlurOuter1"></feComposite>
            <feColorMatrix values="0 0 0 0 0   0 0 0 0 0   0 0 0 0 0  0 0 0 0.3 0" type="matrix" in="shadowBlurOuter1"></feColorMatrix>
        </filter>
    </defs>
    <g id="Page-2" stroke="none" stroke-width="1" fill="none" fill-rule="evenodd">
        <g id="Artboard-Copy-9" transform="translate(-388.000000, -307.000000)">
            <g id="timeline" transform="translate(391.000000, 308.000000)">
                <path id="Path-10" d="M316.276761,3986.92758 C126.471078,3924.27538 52.7663927,3847.72635 97.5070929,3757.3538 C111.463531,3729.16293 140.31771,3708.70954 184.558501,3692.75086 C218.354342,3680.55992 252.212439,3672.87467 323.685082,3659.47255 C325.20388,3659.18775 334.145359,3657.51276 336.73117,3657.0276 C341.760425,3656.08399 345.860689,3655.3115 349.801406,3654.56414 C391.074648,3646.73658 418.460976,3640.86466 444.764005,3633.76386 C477.610539,3624.89657 504.672565,3614.95391 527.171032,3602.9846 C579.558661,3575.11409 606.588995,3536.35114 606.588995,3480.98079 C606.588995,3432.13112 578.75573,3389.90668 524.304068,3349.3703 C500.943526,3331.97961 472.79068,3314.92311 438.158438,3296.72012 C411.023233,3282.45764 384.369864,3269.61286 337.729477,3247.91657 C333.890917,3246.13094 320.796167,3240.04588 319.098633,3239.25661 C268.826387,3215.88253 241.556293,3202.75426 212.766169,3187.60099 C175.51114,3167.99234 145.105981,3149.46761 119.717148,3130.36398 C59.4474993,3085.01456 28.1379104,3036.5204 28.1379104,2979.44374 C28.1379104,2926.14994 53.0569687,2883.32483 101.393757,2845.65237 C121.959189,2829.62419 146.70912,2814.50319 177.114527,2798.8959 C201.04989,2786.60973 225.10322,2775.55014 265.432067,2757.86611 C268.598913,2756.47747 287.530577,2748.19368 293.012695,2745.78667 C336.053294,2726.88903 362.941236,2714.3941 389.422108,2700.46429 C422.876337,2682.86627 450.332932,2665.41531 473.181669,2646.63092 C526.664779,2602.66142 554.299608,2551.53752 554.299608,2486.97132 C554.299608,2478.5465 553.879603,2470.05092 553.045762,2461.48548 C546.9545,2398.91436 518.933122,2333.14716 471.758886,2264.48659 C431.908221,2206.48524 379.549622,2147.94439 315.793704,2087.52666 C268.115634,2042.34496 227.14119,2007.39075 155.392993,1948.74349 C122.407079,1921.78068 112.103584,1913.24653 100.653093,1903.16834 C85.5884089,1889.90911 77.75509,1881.60049 75.8943493,1876.20647 C73.8901672,1870.39664 69.5326888,1862.58831 61.4499135,1849.86723 C59.9086641,1847.44154 58.2681272,1844.88912 55.9723757,1841.33806 C55.3033568,1840.30322 52.385972,1835.79517 53.0356413,1836.79924 L53.0367187,1836.80091 C51.8377142,1834.94784 50.9390826,1833.55721 50.0472428,1832.17385 C45.0339594,1824.39759 41.197634,1818.32942 37.4406895,1812.17516 C15.4054898,1776.07925 2.25082612,1746.29609 -1.79043023,1717.2316 C-6.60900509,1682.57667 2.75796178,1652.23884 29.051717,1626.79494 C39.044291,1617.12534 49.4881789,1607.83737 60.1514433,1599.10242 C59.1530579,1597.83292 58.1732888,1596.55481 57.2129361,1595.26871 C36.5747322,1567.63008 25.9715581,1537.97488 28.146927,1509.98011 C30.4119825,1480.83117 46.2159249,1460.52067 75.4231332,1445.86589 C98.5540417,1434.25991 126.155551,1426.97068 178.676652,1416.82871 C184.179305,1415.76613 203.481407,1412.0879 204.605577,1411.87257 C215.14572,1409.85367 223.333027,1408.24999 231.360549,1406.61688 C251.908891,1402.43655 269.454187,1398.43438 286.205811,1393.98322 C337.328958,1380.39902 378.818867,1363.02958 414.142333,1338.43259 C502.27315,1277.06397 567.539737,1205.92237 584.608484,1141.7527 C594.672101,1103.91869 587.989184,1069.2095 562.680408,1038.30492 C534.412565,1003.78702 483.238547,974.397919 407.365485,951.065616 C252.014625,903.292488 165.129239,857.154478 123.782703,802.36325 C104.547062,776.872736 94.6885307,749.077211 92.3461523,716.463369 C90.3569086,688.766359 93.5242414,658.527255 101.836501,615.335676 C109.048571,577.860819 133.479039,542.29605 174.115933,505.938705 C205.885972,477.514429 242.905522,451.755268 304.147336,413.398682 C304.011538,413.483734 350.230906,384.704018 362.971214,376.624973 C384.704636,362.8431 401.846424,351.481119 417.112058,340.58735 C455.668918,313.07264 480.915224,289.268685 494.510679,265.904878 C523.97352,215.272945 521.661663,175.307349 491.467677,145.972294 C464.098262,119.38146 414.181463,102.096465 349.283714,95.2038703 C221.243775,81.6051332 152.827519,50.3742156 144.616492,0.487222147 L150.536834,-0.487222147 C158.131811,45.6568903 224.398149,75.906405 349.917392,89.2374265 C416.025927,96.2586153 467.119192,113.950992 495.648666,141.668885 C527.972241,173.072949 530.458747,216.057738 499.696579,268.922566 C485.574589,293.191225 459.789352,317.50332 420.597314,345.471303 C405.228657,356.43859 388.002377,367.856575 366.184417,381.692056 C353.419481,389.786718 307.177648,418.580422 307.332132,418.483667 C246.364007,456.668838 209.560954,482.277355 178.116581,510.410261 C138.369262,545.971714 114.650751,580.500049 107.728383,616.469574 C99.5069916,659.188991 96.3872545,688.973689 98.3307369,716.033547 C100.59274,747.528289 110.057863,774.214627 128.572062,798.749106 C168.95853,852.26808 254.889478,897.899262 409.129085,945.33066 C486.033319,968.980067 538.195825,998.936851 567.322443,1034.5034 C593.886816,1066.9412 600.953673,1103.64447 590.406864,1143.29503 C581.120062,1178.20861 558.32489,1214.80963 524.496707,1251.68287 C495.089754,1283.73691 458.007978,1315.19873 417.570987,1343.35644 C381.600476,1368.40399 339.491503,1386.0326 287.746635,1399.782 C270.867525,1404.26704 253.211978,1408.29436 232.556679,1412.49644 C224.503033,1414.13487 216.295037,1415.7426 205.734321,1417.76544 C204.60378,1417.98199 185.308302,1421.65896 179.814253,1422.71988 C127.835609,1432.7571 100.585524,1439.95352 78.1139288,1451.22869 C50.6647457,1465.00138 36.2173632,1483.56849 34.1288939,1510.44495 C32.077736,1536.84125 42.1889046,1565.1204 62.0205036,1591.67882 C62.9343516,1592.90264 63.8664613,1594.11914 64.8160867,1595.32774 C102.772668,1564.98806 143.055809,1541.89102 175.37631,1533.64022 C227.330006,1520.37746 255.951164,1545.05415 250.600658,1610.17693 C247.841616,1643.75815 232.912972,1664.39609 208.590905,1671.22487 C186.999892,1677.28687 159.075628,1671.94132 130.43229,1657.18307 C105.731709,1644.45629 82.1454423,1625.54062 63.9328551,1603.76379 C53.4069212,1612.38612 43.0922009,1621.55754 33.2241039,1631.10669 C8.36177576,1655.16542 -0.411650867,1683.5809 4.15239737,1716.40528 C8.05452274,1744.46915 20.9195727,1773.59661 42.5618579,1809.04888 C46.288888,1815.15414 50.1011579,1821.18426 55.0901035,1828.92277 C55.9798068,1830.30281 56.8767899,1831.69089 58.0741089,1833.54135 L58.0730266,1833.53968 C57.4226538,1832.53452 60.3412106,1837.04438 61.0110873,1838.08054 C63.3146717,1841.64372 64.9627148,1844.20782 66.5141271,1846.64951 C74.8506888,1859.77001 79.356803,1867.84469 81.5663491,1874.24984 C82.9325943,1878.21039 90.5116454,1886.24931 104.617249,1898.6644 C115.988405,1908.67276 126.275624,1917.19343 159.190255,1944.09798 C231.045676,2002.83288 272.1069,2037.86112 319.920798,2083.17154 C383.958277,2143.85609 436.584851,2202.69655 476.704143,2261.08888 C524.40723,2330.51917 552.815408,2397.19421 559.017532,2460.90413 C559.870015,2469.66107 560.299608,2478.35059 560.299608,2486.97132 C560.299608,2553.464 531.781247,2606.22242 476.992017,2651.2657 C453.791972,2670.33891 426.0038,2688.00062 392.21541,2705.77442 C365.5779,2719.78663 338.585791,2732.32996 295.424824,2751.28045 C289.938443,2753.68933 271.004978,2761.97391 267.841572,2763.36105 C227.617898,2780.99896 203.65187,2792.0184 179.85448,2804.23375 C149.757571,2819.68269 125.314443,2834.61625 105.082108,2850.38482 C58.0994533,2887.0019 34.1379104,2928.18146 34.1379104,2979.44374 C34.1379104,3034.3437 64.4210922,3081.2481 123.324637,3125.56961 C148.42349,3144.45504 178.567546,3162.8207 215.560729,3182.29152 C244.237656,3197.38521 271.44197,3210.48182 321.628273,3233.81594 C323.324794,3234.60473 336.420275,3240.69013 340.260158,3242.47638 C386.984189,3264.21158 413.704429,3277.08859 440.949973,3291.40907 C475.836616,3309.74577 504.243273,3326.95604 527.886941,3344.5575 C583.713974,3386.11777 612.588995,3429.92261 612.588995,3480.98079 C612.588995,3538.74269 584.214304,3579.43352 529.989085,3608.28163 C507.041879,3620.48968 479.575475,3630.5809 446.327791,3639.55649 C419.842239,3646.70656 392.331266,3652.60521 350.91939,3660.45906 C346.974285,3661.20726 342.870399,3661.98042 337.837609,3662.9247 C335.250761,3663.41005 326.308852,3665.08513 324.790893,3665.36977 C253.644698,3678.71068 219.979334,3686.35217 186.594431,3698.39488 C143.671233,3713.87827 116.022813,3733.47696 102.884219,3760.01585 C60.3901618,3845.85036 131.339519,3919.55495 318.075246,3981.20286 L322.258829,3967.88624 L349.600553,3994.29514 L312.068396,4000.32318 L316.276774,3986.92759 Z M53.0367187,1836.80091 L53.0356413,1836.79924 C53.0422427,1836.80944 53.0492124,1836.82021 53.0565565,1836.83156 C53.0499348,1836.82133 53.0433222,1836.81111 53.0367187,1836.80091 Z M68.597935,1599.98933 C86.2856009,1621.11736 109.215102,1639.50148 133.180411,1651.84942 C160.594974,1665.97455 187.054138,1671.03964 206.969029,1665.44824 C228.717993,1659.34189 242.055984,1640.90293 244.620807,1609.68563 C249.636375,1548.63949 224.790846,1527.21808 176.860398,1539.45378 C145.466704,1547.46798 105.933758,1570.15459 68.597935,1599.98933 Z" fill="#D0D0D0" fill-rule="nonzero"></path>
                <g id="Oval">
                    <use fill="black" fill-opacity="1" filter="url(#filter-2)" xlink:href="#path-1"></use>
                    <use stroke="#FFFFFF" stroke-width="6" fill="#3083C0" fill-rule="evenodd" xlink:href="#path-1"></use>
                </g>
                <g id="Oval">
                    <use fill="black" fill-opacity="1" filter="url(#filter-4)" xlink:href="#path-3"></use>
                    <use stroke="#FFFFFF" stroke-width="6" fill="#3083C0" fill-rule="evenodd" xlink:href="#path-3"></use>
                </g>
                <g id="Oval">
                    <use fill="black" fill-opacity="1" filter="url(#filter-6)" xlink:href="#path-5"></use>
                    <use stroke="#FFFFFF" stroke-width="6" fill="#3083C0" fill-rule="evenodd" xlink:href="#path-5"></use>
                </g>
                <g id="Oval">
                    <use fill="black" fill-opacity="1" filter="url(#filter-8)" xlink:href="#path-7"></use>
                    <use stroke="#FFFFFF" stroke-width="6" fill="#3083C0" fill-rule="evenodd" xlink:href="#path-7"></use>
                </g>
                <g id="Oval">
                    <use fill="black" fill-opacity="1" filter="url(#filter-10)" xlink:href="#path-9"></use>
                    <use stroke="#FFFFFF" stroke-width="6" fill="#3083C0" fill-rule="evenodd" xlink:href="#path-9"></use>
                </g>
                <g id="Oval">
                    <use fill="black" fill-opacity="1" filter="url(#filter-12)" xlink:href="#path-11"></use>
                    <use stroke="#FFFFFF" stroke-width="6" fill="#3083C0" fill-rule="evenodd" xlink:href="#path-11"></use>
                </g>
                <g id="Oval">
                    <use fill="black" fill-opacity="1" filter="url(#filter-14)" xlink:href="#path-13"></use>
                    <use stroke="#FFFFFF" stroke-width="6" fill="#3083C0" fill-rule="evenodd" xlink:href="#path-13"></use>
                </g>
                <g id="Oval">
                    <use fill="black" fill-opacity="1" filter="url(#filter-16)" xlink:href="#path-15"></use>
                    <use stroke="#FFFFFF" stroke-width="6" fill="#3083C0" fill-rule="evenodd" xlink:href="#path-15"></use>
                </g>
                <rect id="Rectangle" fill="#FFFFFF" transform="translate(245.356660, 3957.103157) rotate(23.000000) translate(-245.356660, -3957.103157) " x="238.35666" y="3947.60316" width="14" height="19" rx="2"></rect>
                <rect id="Rectangle" fill="#FFFFFF" transform="translate(225.045701, 3945.623243) rotate(23.000000) translate(-225.045701, -3945.623243) " x="218.045701" y="3936.12324" width="14" height="19" rx="2"></rect>
                <rect id="Rectangle" fill="#FFFFFF" transform="translate(204.734742, 3934.143329) rotate(23.000000) translate(-204.734742, -3934.143329) " x="197.734742" y="3924.64333" width="14" height="19" rx="2"></rect>
                <rect id="Rectangle" fill="#FFFFFF" transform="translate(184.423782, 3925.603157) rotate(23.000000) translate(-184.423782, -3925.603157) " x="177.423782" y="3916.10316" width="14" height="19" rx="2"></rect>
                <path d="M644.18466,3516.73499 L644.18466,3514.48099 C645.043331,3513.68365 645.84449,3512.93233 646.58816,3512.22699 C647.331831,3511.52165 647.979658,3510.85849 648.53166,3510.23749 C649.083663,3509.61649 649.516826,3509.02616 649.83116,3508.46649 C650.145495,3507.90682 650.30266,3507.38166 650.30266,3506.89099 C650.30266,3506.23165 650.137829,3505.74482 649.80816,3505.43049 C649.478492,3505.11615 649.04533,3504.95899 648.50866,3504.95899 C648.017991,3504.95899 647.584829,3505.10082 647.20916,3505.38449 C646.833492,3505.66816 646.469329,3505.98632 646.11666,3506.33899 L644.00066,3504.22299 C644.383996,3503.82432 644.759659,3503.47549 645.12766,3503.17649 C645.495662,3502.87749 645.882825,3502.63216 646.28916,3502.44049 C646.695496,3502.24882 647.124825,3502.10699 647.57716,3502.01499 C648.029496,3501.92299 648.523991,3501.87699 649.06066,3501.87699 C649.796664,3501.87699 650.471324,3501.99199 651.08466,3502.22199 C651.697997,3502.45199 652.226992,3502.77399 652.67166,3503.18799 C653.116329,3503.60199 653.461326,3504.10415 653.70666,3504.69449 C653.951995,3505.28483 654.07466,3505.94032 654.07466,3506.66099 C654.07466,3507.24366 653.948162,3507.83782 653.69516,3508.44349 C653.442159,3509.04916 653.116329,3509.65099 652.71766,3510.24899 C652.318992,3510.84699 651.870496,3511.42965 651.37216,3511.99699 C650.873825,3512.56433 650.37933,3513.10099 649.88866,3513.60699 C650.256662,3513.56099 650.674491,3513.51882 651.14216,3513.48049 C651.609829,3513.44216 652.004659,3513.42299 652.32666,3513.42299 L654.76466,3513.42299 L654.76466,3516.73499 L644.18466,3516.73499 Z M660.385438,3517.01099 C659.572768,3517.01099 658.836775,3516.84616 658.177438,3516.51649 C657.518102,3516.18682 656.946941,3515.69999 656.463938,3515.05599 C655.980936,3514.41199 655.609106,3513.61466 655.348438,3512.66399 C655.08777,3511.71332 654.957438,3510.617 654.957438,3509.37499 C654.957438,3508.13298 655.08777,3507.04049 655.348438,3506.09749 C655.609106,3505.15448 655.980936,3504.37249 656.463938,3503.75149 C656.946941,3503.13049 657.518102,3502.66282 658.177438,3502.34849 C658.836775,3502.03415 659.572768,3501.87699 660.385438,3501.87699 C661.182776,3501.87699 661.914935,3502.03415 662.581938,3502.34849 C663.248942,3502.66282 663.823936,3503.13432 664.306938,3503.76299 C664.789941,3504.39166 665.16177,3505.17365 665.422438,3506.10899 C665.683106,3507.04433 665.813438,3508.13298 665.813438,3509.37499 C665.813438,3510.617 665.683106,3511.71332 665.422438,3512.66399 C665.16177,3513.61466 664.789941,3514.41199 664.306938,3515.05599 C663.823936,3515.69999 663.248942,3516.18682 662.581938,3516.51649 C661.914935,3516.84616 661.182776,3517.01099 660.385438,3517.01099 Z M660.385438,3513.97499 C660.615439,3513.97499 660.833937,3513.91749 661.040938,3513.80249 C661.247939,3513.68749 661.428104,3513.46132 661.581438,3513.12399 C661.734772,3512.78665 661.857438,3512.31899 661.949438,3511.72099 C662.041439,3511.12299 662.087438,3510.34099 662.087438,3509.37499 C662.087438,3508.40898 662.041439,3507.63466 661.949438,3507.05199 C661.857438,3506.46932 661.734772,3506.01699 661.581438,3505.69499 C661.428104,3505.37299 661.247939,3505.16216 661.040938,3505.06249 C660.833937,3504.96282 660.615439,3504.91299 660.385438,3504.91299 C660.155437,3504.91299 659.936939,3504.96282 659.729938,3505.06249 C659.522937,3505.16216 659.342772,3505.37299 659.189438,3505.69499 C659.036104,3506.01699 658.913439,3506.46932 658.821438,3507.05199 C658.729438,3507.63466 658.683438,3508.40898 658.683438,3509.37499 C658.683438,3510.34099 658.729438,3511.12299 658.821438,3511.72099 C658.913439,3512.31899 659.036104,3512.78665 659.189438,3513.12399 C659.342772,3513.46132 659.522937,3513.68749 659.729938,3513.80249 C659.936939,3513.91749 660.155437,3513.97499 660.385438,3513.97499 Z M666.512216,3516.73499 L666.512216,3513.56099 L669.640216,3513.56099 L669.640216,3506.01699 L666.880216,3506.01699 L666.880216,3503.57899 C667.70822,3503.41032 668.413546,3503.21866 668.996216,3503.00399 C669.578886,3502.78932 670.146213,3502.50566 670.698216,3502.15299 L673.596216,3502.15299 L673.596216,3513.56099 L676.218216,3513.56099 L676.218216,3516.73499 L666.512216,3516.73499 Z M681.976994,3517.01099 C681.24099,3517.01099 680.55483,3516.91516 679.918494,3516.72349 C679.282157,3516.53182 678.730163,3516.25966 678.262494,3515.90699 C677.794825,3515.55432 677.430662,3515.13266 677.169994,3514.64199 C676.909326,3514.15132 676.778994,3513.60699 676.778994,3513.00899 C676.778994,3512.15032 677.005158,3511.45266 677.457494,3510.91599 C677.909829,3510.37932 678.48099,3509.92699 679.170994,3509.55899 L679.170994,3509.46699 C678.588324,3509.02232 678.120662,3508.52782 677.767994,3507.98349 C677.415325,3507.43915 677.238994,3506.78366 677.238994,3506.01699 C677.238994,3505.37299 677.357826,3504.79416 677.595494,3504.28049 C677.833162,3503.76682 678.170492,3503.33366 678.607494,3502.98099 C679.044496,3502.62832 679.558158,3502.35616 680.148494,3502.16449 C680.73883,3501.97282 681.394324,3501.87699 682.114994,3501.87699 C682.789664,3501.87699 683.406824,3501.97282 683.966494,3502.16449 C684.526163,3502.35616 685.005325,3502.62449 685.403994,3502.96949 C685.802663,3503.31449 686.113159,3503.73999 686.335494,3504.24599 C686.557828,3504.75199 686.668994,3505.31165 686.668994,3505.92499 C686.668994,3506.59966 686.488829,3507.19382 686.128494,3507.70749 C685.768159,3508.22116 685.32733,3508.64665 684.805994,3508.98399 L684.805994,3509.07599 C685.526664,3509.45932 686.124658,3509.95382 686.599994,3510.55949 C687.07533,3511.16516 687.312994,3511.95098 687.312994,3512.91699 C687.312994,3513.49966 687.186495,3514.04015 686.933494,3514.53849 C686.680493,3515.03682 686.320163,3515.46999 685.852494,3515.83799 C685.384825,3516.20599 684.821331,3516.49349 684.161994,3516.70049 C683.502657,3516.90749 682.774331,3517.01099 681.976994,3517.01099 Z M682.850994,3508.04099 C683.280329,3507.42765 683.494994,3506.81433 683.494994,3506.20099 C683.494994,3505.69499 683.364662,3505.30016 683.103994,3505.01649 C682.843326,3504.73282 682.482996,3504.59099 682.022994,3504.59099 C681.670325,3504.59099 681.359829,3504.70215 681.091494,3504.92449 C680.823159,3505.14682 680.688994,3505.51099 680.688994,3506.01699 C680.688994,3506.50766 680.876825,3506.89865 681.252494,3507.18999 C681.628162,3507.48132 682.16099,3507.76499 682.850994,3508.04099 Z M682.068994,3514.29699 C682.513663,3514.29699 682.889326,3514.18199 683.195994,3513.95199 C683.502662,3513.72199 683.655994,3513.33099 683.655994,3512.77899 C683.655994,3512.51832 683.594661,3512.28832 683.471994,3512.08899 C683.349327,3511.88965 683.169162,3511.70949 682.931494,3511.54849 C682.693826,3511.38749 682.406329,3511.23032 682.068994,3511.07699 C681.731659,3510.92365 681.348329,3510.75499 680.918994,3510.57099 C680.704326,3510.83166 680.524161,3511.13449 680.378494,3511.47949 C680.232826,3511.82449 680.159994,3512.18099 680.159994,3512.54899 C680.159994,3513.13166 680.351659,3513.56865 680.734994,3513.85999 C681.118329,3514.15132 681.562991,3514.29699 682.068994,3514.29699 Z" id="2018" fill="#D0D0D0" fill-rule="nonzero"></path>
                <path d="M588.828,2493.60316 L588.828,2491.34916 C589.686671,2490.55182 590.48783,2489.80049 591.2315,2489.09516 C591.97517,2488.38982 592.622997,2487.72666 593.175,2487.10566 C593.727003,2486.48465 594.160165,2485.89433 594.4745,2485.33466 C594.788835,2484.77499 594.946,2484.24983 594.946,2483.75916 C594.946,2483.09982 594.781168,2482.61299 594.4515,2482.29866 C594.121832,2481.98432 593.688669,2481.82716 593.152,2481.82716 C592.661331,2481.82716 592.228169,2481.96899 591.8525,2482.25266 C591.476831,2482.53632 591.112668,2482.85449 590.76,2483.20716 L588.644,2481.09116 C589.027335,2480.69249 589.402998,2480.34366 589.771,2480.04466 C590.139002,2479.74566 590.526165,2479.50032 590.9325,2479.30866 C591.338835,2479.11699 591.768164,2478.97516 592.2205,2478.88316 C592.672836,2478.79116 593.167331,2478.74516 593.704,2478.74516 C594.440004,2478.74516 595.114664,2478.86016 595.728,2479.09016 C596.341336,2479.32016 596.870331,2479.64215 597.315,2480.05616 C597.759669,2480.47016 598.104665,2480.97232 598.35,2481.56266 C598.595335,2482.15299 598.718,2482.80849 598.718,2483.52916 C598.718,2484.11183 598.591501,2484.70599 598.3385,2485.31166 C598.085499,2485.91733 597.759669,2486.51915 597.361,2487.11716 C596.962331,2487.71516 596.513836,2488.29782 596.0155,2488.86516 C595.517164,2489.43249 595.022669,2489.96915 594.532,2490.47516 C594.900002,2490.42916 595.317831,2490.38699 595.7855,2490.34866 C596.253169,2490.31032 596.647998,2490.29116 596.97,2490.29116 L599.408,2490.29116 L599.408,2493.60316 L588.828,2493.60316 Z M605.028778,2493.87916 C604.216107,2493.87916 603.480114,2493.71433 602.820778,2493.38466 C602.161441,2493.05499 601.59028,2492.56816 601.107278,2491.92416 C600.624275,2491.28015 600.252446,2490.48283 599.991778,2489.53216 C599.73111,2488.58149 599.600778,2487.48516 599.600778,2486.24316 C599.600778,2485.00115 599.73111,2483.90866 599.991778,2482.96566 C600.252446,2482.02265 600.624275,2481.24066 601.107278,2480.61966 C601.59028,2479.99865 602.161441,2479.53099 602.820778,2479.21666 C603.480114,2478.90232 604.216107,2478.74516 605.028778,2478.74516 C605.826115,2478.74516 606.558274,2478.90232 607.225278,2479.21666 C607.892281,2479.53099 608.467275,2480.00249 608.950278,2480.63116 C609.43328,2481.25983 609.80511,2482.04182 610.065778,2482.97716 C610.326446,2483.91249 610.456778,2485.00115 610.456778,2486.24316 C610.456778,2487.48516 610.326446,2488.58149 610.065778,2489.53216 C609.80511,2490.48283 609.43328,2491.28015 608.950278,2491.92416 C608.467275,2492.56816 607.892281,2493.05499 607.225278,2493.38466 C606.558274,2493.71433 605.826115,2493.87916 605.028778,2493.87916 Z M605.028778,2490.84316 C605.258779,2490.84316 605.477277,2490.78566 605.684278,2490.67066 C605.891279,2490.55566 606.071444,2490.32949 606.224778,2489.99216 C606.378112,2489.65482 606.500777,2489.18716 606.592778,2488.58916 C606.684778,2487.99115 606.730778,2487.20916 606.730778,2486.24316 C606.730778,2485.27715 606.684778,2484.50283 606.592778,2483.92016 C606.500777,2483.33749 606.378112,2482.88516 606.224778,2482.56316 C606.071444,2482.24116 605.891279,2482.03032 605.684278,2481.93066 C605.477277,2481.83099 605.258779,2481.78116 605.028778,2481.78116 C604.798777,2481.78116 604.580279,2481.83099 604.373278,2481.93066 C604.166277,2482.03032 603.986112,2482.24116 603.832778,2482.56316 C603.679444,2482.88516 603.556778,2483.33749 603.464778,2483.92016 C603.372777,2484.50283 603.326778,2485.27715 603.326778,2486.24316 C603.326778,2487.20916 603.372777,2487.99115 603.464778,2488.58916 C603.556778,2489.18716 603.679444,2489.65482 603.832778,2489.99216 C603.986112,2490.32949 604.166277,2490.55566 604.373278,2490.67066 C604.580279,2490.78566 604.798777,2490.84316 605.028778,2490.84316 Z M611.155556,2493.60316 L611.155556,2490.42916 L614.283556,2490.42916 L614.283556,2482.88516 L611.523556,2482.88516 L611.523556,2480.44716 C612.35156,2480.27849 613.056886,2480.08682 613.639556,2479.87216 C614.222225,2479.65749 614.789553,2479.37383 615.341556,2479.02116 L618.239556,2479.02116 L618.239556,2490.42916 L620.861556,2490.42916 L620.861556,2493.60316 L611.155556,2493.60316 Z M626.114333,2493.87916 C624.918327,2493.87916 623.891004,2493.69516 623.032333,2493.32716 C622.173662,2492.95915 621.468336,2492.45316 620.916333,2491.80916 L622.710333,2489.32516 C623.155002,2489.73916 623.634164,2490.07266 624.147833,2490.32566 C624.661503,2490.57866 625.178998,2490.70516 625.700333,2490.70516 C626.344337,2490.70516 626.857998,2490.59016 627.241333,2490.36016 C627.624669,2490.13016 627.816333,2489.78516 627.816333,2489.32516 C627.816333,2489.04916 627.770334,2488.80382 627.678333,2488.58916 C627.586333,2488.37449 627.410001,2488.19049 627.149333,2488.03716 C626.888665,2487.88382 626.520669,2487.76882 626.045333,2487.69216 C625.569998,2487.61549 624.949004,2487.57716 624.182333,2487.57716 L624.182333,2484.81716 C624.79567,2484.81716 625.305498,2484.77882 625.711833,2484.70216 C626.118169,2484.62549 626.443999,2484.51432 626.689333,2484.36866 C626.934668,2484.22299 627.107166,2484.05049 627.206833,2483.85116 C627.306501,2483.65182 627.356333,2483.42182 627.356333,2483.16116 C627.356333,2482.27182 626.850339,2481.82716 625.838333,2481.82716 C625.347664,2481.82716 624.910669,2481.92682 624.527333,2482.12616 C624.143998,2482.32549 623.722336,2482.62449 623.262333,2483.02316 L621.284333,2480.63116 C622.005004,2480.03315 622.748663,2479.56933 623.515333,2479.23966 C624.282004,2478.90999 625.117662,2478.74516 626.022333,2478.74516 C627.632341,2478.74516 628.916495,2479.10165 629.874833,2479.81466 C630.833172,2480.52766 631.312333,2481.54348 631.312333,2482.86216 C631.312333,2484.27283 630.530341,2485.32315 628.966333,2486.01316 L628.966333,2486.10516 C629.794338,2486.36582 630.468998,2486.78365 630.990333,2487.35866 C631.511669,2487.93366 631.772333,2488.68115 631.772333,2489.60116 C631.772333,2490.29116 631.619002,2490.90065 631.312333,2491.42966 C631.005665,2491.95866 630.595503,2492.40715 630.081833,2492.77516 C629.568164,2493.14316 628.966337,2493.41916 628.276333,2493.60316 C627.58633,2493.78716 626.865671,2493.87916 626.114333,2493.87916 Z" id="2013" fill="#D0D0D0" fill-rule="nonzero"></path>
                <path d="M26.8626909,3116 L26.8626909,3113.746 C27.7213619,3112.94866 28.5225205,3112.19734 29.2661909,3111.492 C30.0098613,3110.78666 30.6576882,3110.1235 31.2096909,3109.5025 C31.7616937,3108.8815 32.194856,3108.29117 32.5091909,3107.7315 C32.8235258,3107.17183 32.9806909,3106.64667 32.9806909,3106.156 C32.9806909,3105.49666 32.8158592,3105.00983 32.4861909,3104.6955 C32.1565226,3104.38117 31.7233603,3104.224 31.1866909,3104.224 C30.6960218,3104.224 30.2628595,3104.36583 29.8871909,3104.6495 C29.5115224,3104.93317 29.1473594,3105.25133 28.7946909,3105.604 L26.6786909,3103.488 C27.0620262,3103.08933 27.4376891,3102.7405 27.8056909,3102.4415 C28.1736928,3102.1425 28.5608556,3101.89717 28.9671909,3101.7055 C29.3735263,3101.51383 29.8028553,3101.372 30.2551909,3101.28 C30.7075265,3101.188 31.2020216,3101.142 31.7386909,3101.142 C32.4746946,3101.142 33.1493545,3101.257 33.7626909,3101.487 C34.3760273,3101.717 34.905022,3102.039 35.3496909,3102.453 C35.7943598,3102.867 36.1393564,3103.36916 36.3846909,3103.9595 C36.6300255,3104.54984 36.7526909,3105.20533 36.7526909,3105.926 C36.7526909,3106.50867 36.6261922,3107.10283 36.3731909,3107.7085 C36.1201897,3108.31417 35.7943596,3108.916 35.3956909,3109.514 C34.9970223,3110.112 34.5485268,3110.69466 34.0501909,3111.262 C33.5518551,3111.82934 33.0573601,3112.366 32.5666909,3112.872 C32.9346928,3112.826 33.3525219,3112.78383 33.8201909,3112.7455 C34.2878599,3112.70717 34.6826893,3112.688 35.0046909,3112.688 L37.4426909,3112.688 L37.4426909,3116 L26.8626909,3116 Z M43.0634687,3116.276 C42.250798,3116.276 41.5148054,3116.11117 40.8554687,3115.7815 C40.1961321,3115.45183 39.6249712,3114.965 39.1419687,3114.321 C38.6589663,3113.677 38.2871367,3112.87967 38.0264687,3111.929 C37.7658008,3110.97833 37.6354687,3109.88201 37.6354687,3108.64 C37.6354687,3107.39799 37.7658008,3106.3055 38.0264687,3105.3625 C38.2871367,3104.4195 38.6589663,3103.6375 39.1419687,3103.0165 C39.6249712,3102.3955 40.1961321,3101.92783 40.8554687,3101.6135 C41.5148054,3101.29917 42.250798,3101.142 43.0634687,3101.142 C43.8608061,3101.142 44.5929654,3101.29917 45.2599687,3101.6135 C45.9269721,3101.92783 46.5019663,3102.39933 46.9849687,3103.028 C47.4679712,3103.65667 47.8398008,3104.43866 48.1004687,3105.374 C48.3611367,3106.30934 48.4914687,3107.39799 48.4914687,3108.64 C48.4914687,3109.88201 48.3611367,3110.97833 48.1004687,3111.929 C47.8398008,3112.87967 47.4679712,3113.677 46.9849687,3114.321 C46.5019663,3114.965 45.9269721,3115.45183 45.2599687,3115.7815 C44.5929654,3116.11117 43.8608061,3116.276 43.0634687,3116.276 Z M43.0634687,3113.24 C43.2934699,3113.24 43.5119677,3113.1825 43.7189687,3113.0675 C43.9259698,3112.9525 44.1061346,3112.72634 44.2594687,3112.389 C44.4128028,3112.05166 44.5354683,3111.584 44.6274687,3110.986 C44.7194692,3110.388 44.7654687,3109.606 44.7654687,3108.64 C44.7654687,3107.674 44.7194692,3106.89967 44.6274687,3106.317 C44.5354683,3105.73433 44.4128028,3105.282 44.2594687,3104.96 C44.1061346,3104.638 43.9259698,3104.42717 43.7189687,3104.3275 C43.5119677,3104.22783 43.2934699,3104.178 43.0634687,3104.178 C42.8334676,3104.178 42.6149698,3104.22783 42.4079687,3104.3275 C42.2009677,3104.42717 42.0208028,3104.638 41.8674687,3104.96 C41.7141346,3105.282 41.5914692,3105.73433 41.4994687,3106.317 C41.4074683,3106.89967 41.3614687,3107.674 41.3614687,3108.64 C41.3614687,3109.606 41.4074683,3110.388 41.4994687,3110.986 C41.5914692,3111.584 41.7141346,3112.05166 41.8674687,3112.389 C42.0208028,3112.72634 42.2009677,3112.9525 42.4079687,3113.0675 C42.6149698,3113.1825 42.8334676,3113.24 43.0634687,3113.24 Z M49.1902466,3116 L49.1902466,3112.826 L52.3182466,3112.826 L52.3182466,3105.282 L49.5582466,3105.282 L49.5582466,3102.844 C50.3862507,3102.67533 51.091577,3102.48367 51.6742466,3102.269 C52.2569161,3102.05433 52.8242438,3101.77067 53.3762466,3101.418 L56.2742466,3101.418 L56.2742466,3112.826 L58.8962466,3112.826 L58.8962466,3116 L49.1902466,3116 Z M64.2870244,3116.276 C63.0910184,3116.276 62.059862,3116.0805 61.1935244,3115.6895 C60.3271867,3115.2985 59.5950274,3114.804 58.9970244,3114.206 L60.7450244,3111.722 C61.1896933,3112.12067 61.6573553,3112.45033 62.1480244,3112.711 C62.6386935,3112.97167 63.152355,3113.102 63.6890244,3113.102 C64.3790278,3113.102 64.9118558,3112.94867 65.2875244,3112.642 C65.6631929,3112.33533 65.8510244,3111.86 65.8510244,3111.216 C65.8510244,3110.58733 65.6670262,3110.11583 65.2990244,3109.8015 C64.9310225,3109.48717 64.455694,3109.33 63.8730244,3109.33 C63.67369,3109.33 63.4973585,3109.3415 63.3440244,3109.3645 C63.1906903,3109.3875 63.0411918,3109.422 62.8955244,3109.468 C62.749857,3109.514 62.5926919,3109.583 62.4240244,3109.675 C62.2553569,3109.767 62.0636921,3109.882 61.8490244,3110.02 L60.1470244,3108.916 L60.5150244,3101.418 L69.1630244,3101.418 L69.1630244,3104.73 L63.9190244,3104.73 L63.7350244,3106.846 C63.9956923,3106.754 64.2295233,3106.69267 64.4365244,3106.662 C64.6435254,3106.63133 64.8696898,3106.616 65.1150244,3106.616 C65.7436942,3106.616 66.3416882,3106.708 66.9090244,3106.892 C67.4763605,3107.076 67.9746889,3107.352 68.4040244,3107.72 C68.8333599,3108.088 69.1745231,3108.55566 69.4275244,3109.123 C69.6805256,3109.69034 69.8070244,3110.35733 69.8070244,3111.124 C69.8070244,3111.93667 69.6575259,3112.665 69.3585244,3113.309 C69.0595229,3113.953 68.6570269,3114.4935 68.1510244,3114.9305 C67.6450218,3115.3675 67.0585277,3115.701 66.3915244,3115.931 C65.724521,3116.161 65.0230281,3116.276 64.2870244,3116.276 Z" id="2015" fill="#D0D0D0" fill-rule="nonzero"></path>
                <path d="M6.18466044,1884.60316 L6.18466044,1882.34916 C7.0433314,1881.55182 7.84449006,1880.80049 8.58816044,1880.09516 C9.33183083,1879.38982 9.97965768,1878.72666 10.5316604,1878.10566 C11.0836632,1877.48465 11.5168255,1876.89433 11.8311604,1876.33466 C12.1454953,1875.77499 12.3026604,1875.24983 12.3026604,1874.75916 C12.3026604,1874.09982 12.1378288,1873.61299 11.8081604,1873.29866 C11.4784921,1872.98432 11.0453298,1872.82716 10.5086604,1872.82716 C10.0179913,1872.82716 9.58482899,1872.96899 9.20916044,1873.25266 C8.8334919,1873.53632 8.46932887,1873.85449 8.11666044,1874.20716 L6.00066044,1872.09116 C6.38399569,1871.69249 6.7596586,1871.34366 7.12766044,1871.04466 C7.49566228,1870.74566 7.88282508,1870.50032 8.28916044,1870.30866 C8.69549581,1870.11699 9.12482485,1869.97516 9.57716044,1869.88316 C10.029496,1869.79116 10.5239911,1869.74516 11.0606604,1869.74516 C11.7966641,1869.74516 12.471324,1869.86016 13.0846604,1870.09016 C13.6979968,1870.32016 14.2269916,1870.64215 14.6716604,1871.05616 C15.1163293,1871.47016 15.4613259,1871.97232 15.7066604,1872.56266 C15.951995,1873.15299 16.0746604,1873.80849 16.0746604,1874.52916 C16.0746604,1875.11183 15.9481617,1875.70599 15.6951604,1876.31166 C15.4421592,1876.91733 15.1163291,1877.51915 14.7176604,1878.11716 C14.3189918,1878.71516 13.8704963,1879.29782 13.3721604,1879.86516 C12.8738246,1880.43249 12.3793296,1880.96915 11.8886604,1881.47516 C12.2566623,1881.42916 12.6744914,1881.38699 13.1421604,1881.34866 C13.6098294,1881.31032 14.0046588,1881.29116 14.3266604,1881.29116 L16.7646604,1881.29116 L16.7646604,1884.60316 L6.18466044,1884.60316 Z M22.3854383,1884.87916 C21.5727675,1884.87916 20.8367749,1884.71433 20.1774383,1884.38466 C19.5181016,1884.05499 18.9469407,1883.56816 18.4639383,1882.92416 C17.9809358,1882.28015 17.6091062,1881.48283 17.3484383,1880.53216 C17.0877703,1879.58149 16.9574383,1878.48516 16.9574383,1877.24316 C16.9574383,1876.00115 17.0877703,1874.90866 17.3484383,1873.96566 C17.6091062,1873.02265 17.9809358,1872.24066 18.4639383,1871.61966 C18.9469407,1870.99865 19.5181016,1870.53099 20.1774383,1870.21666 C20.8367749,1869.90232 21.5727675,1869.74516 22.3854383,1869.74516 C23.1827756,1869.74516 23.9149349,1869.90232 24.5819383,1870.21666 C25.2489416,1870.53099 25.8239358,1871.00249 26.3069383,1871.63116 C26.7899407,1872.25983 27.1617703,1873.04182 27.4224383,1873.97716 C27.6831062,1874.91249 27.8134383,1876.00115 27.8134383,1877.24316 C27.8134383,1878.48516 27.6831062,1879.58149 27.4224383,1880.53216 C27.1617703,1881.48283 26.7899407,1882.28015 26.3069383,1882.92416 C25.8239358,1883.56816 25.2489416,1884.05499 24.5819383,1884.38466 C23.9149349,1884.71433 23.1827756,1884.87916 22.3854383,1884.87916 Z M22.3854383,1881.84316 C22.6154394,1881.84316 22.8339372,1881.78566 23.0409383,1881.67066 C23.2479393,1881.55566 23.4281042,1881.32949 23.5814383,1880.99216 C23.7347724,1880.65482 23.8574378,1880.18716 23.9494383,1879.58916 C24.0414387,1878.99115 24.0874383,1878.20916 24.0874383,1877.24316 C24.0874383,1876.27715 24.0414387,1875.50283 23.9494383,1874.92016 C23.8574378,1874.33749 23.7347724,1873.88516 23.5814383,1873.56316 C23.4281042,1873.24116 23.2479393,1873.03032 23.0409383,1872.93066 C22.8339372,1872.83099 22.6154394,1872.78116 22.3854383,1872.78116 C22.1554371,1872.78116 21.9369393,1872.83099 21.7299383,1872.93066 C21.5229372,1873.03032 21.3427724,1873.24116 21.1894383,1873.56316 C21.0361042,1873.88516 20.9134387,1874.33749 20.8214383,1874.92016 C20.7294378,1875.50283 20.6834383,1876.27715 20.6834383,1877.24316 C20.6834383,1878.20916 20.7294378,1878.99115 20.8214383,1879.58916 C20.9134387,1880.18716 21.0361042,1880.65482 21.1894383,1880.99216 C21.3427724,1881.32949 21.5229372,1881.55566 21.7299383,1881.67066 C21.9369393,1881.78566 22.1554371,1881.84316 22.3854383,1881.84316 Z M28.5122161,1884.60316 L28.5122161,1881.42916 L31.6402161,1881.42916 L31.6402161,1873.88516 L28.8802161,1873.88516 L28.8802161,1871.44716 C29.7082202,1871.27849 30.4135465,1871.08682 30.9962161,1870.87216 C31.5788856,1870.65749 32.1462133,1870.37383 32.6982161,1870.02116 L35.5962161,1870.02116 L35.5962161,1881.42916 L38.2182161,1881.42916 L38.2182161,1884.60316 L28.5122161,1884.60316 Z M38.6409939,1884.60316 L38.6409939,1882.34916 C39.4996648,1881.55182 40.3008235,1880.80049 41.0444939,1880.09516 C41.7881643,1879.38982 42.4359911,1878.72666 42.9879939,1878.10566 C43.5399966,1877.48465 43.973159,1876.89433 44.2874939,1876.33466 C44.6018288,1875.77499 44.7589939,1875.24983 44.7589939,1874.75916 C44.7589939,1874.09982 44.5941622,1873.61299 44.2644939,1873.29866 C43.9348256,1872.98432 43.5016632,1872.82716 42.9649939,1872.82716 C42.4743248,1872.82716 42.0411624,1872.96899 41.6654939,1873.25266 C41.2898253,1873.53632 40.9256623,1873.85449 40.5729939,1874.20716 L38.4569939,1872.09116 C38.8403291,1871.69249 39.215992,1871.34366 39.5839939,1871.04466 C39.9519957,1870.74566 40.3391585,1870.50032 40.7454939,1870.30866 C41.1518292,1870.11699 41.5811583,1869.97516 42.0334939,1869.88316 C42.4858295,1869.79116 42.9803245,1869.74516 43.5169939,1869.74516 C44.2529976,1869.74516 44.9276575,1869.86016 45.5409939,1870.09016 C46.1543303,1870.32016 46.683325,1870.64215 47.1279939,1871.05616 C47.5726628,1871.47016 47.9176593,1871.97232 48.1629939,1872.56266 C48.4083284,1873.15299 48.5309939,1873.80849 48.5309939,1874.52916 C48.5309939,1875.11183 48.4044951,1875.70599 48.1514939,1876.31166 C47.8984926,1876.91733 47.5726625,1877.51915 47.1739939,1878.11716 C46.7753252,1878.71516 46.3268297,1879.29782 45.8284939,1879.86516 C45.3301581,1880.43249 44.835663,1880.96915 44.3449939,1881.47516 C44.7129957,1881.42916 45.1308249,1881.38699 45.5984939,1881.34866 C46.0661629,1881.31032 46.4609923,1881.29116 46.7829939,1881.29116 L49.2209939,1881.29116 L49.2209939,1884.60316 L38.6409939,1884.60316 Z" id="2012" fill="#D0D0D0" fill-rule="nonzero"></path>
                <path d="M610.828,1174.60316 L610.828,1172.34916 C611.686671,1171.55182 612.48783,1170.80049 613.2315,1170.09516 C613.97517,1169.38982 614.622997,1168.72666 615.175,1168.10566 C615.727003,1167.48465 616.160165,1166.89433 616.4745,1166.33466 C616.788835,1165.77499 616.946,1165.24983 616.946,1164.75916 C616.946,1164.09982 616.781168,1163.61299 616.4515,1163.29866 C616.121832,1162.98432 615.688669,1162.82716 615.152,1162.82716 C614.661331,1162.82716 614.228169,1162.96899 613.8525,1163.25266 C613.476831,1163.53632 613.112668,1163.85449 612.76,1164.20716 L610.644,1162.09116 C611.027335,1161.69249 611.402998,1161.34366 611.771,1161.04466 C612.139002,1160.74566 612.526165,1160.50032 612.9325,1160.30866 C613.338835,1160.11699 613.768164,1159.97516 614.2205,1159.88316 C614.672836,1159.79116 615.167331,1159.74516 615.704,1159.74516 C616.440004,1159.74516 617.114664,1159.86016 617.728,1160.09016 C618.341336,1160.32016 618.870331,1160.64215 619.315,1161.05616 C619.759669,1161.47016 620.104665,1161.97232 620.35,1162.56266 C620.595335,1163.15299 620.718,1163.80849 620.718,1164.52916 C620.718,1165.11183 620.591501,1165.70599 620.3385,1166.31166 C620.085499,1166.91733 619.759669,1167.51915 619.361,1168.11716 C618.962331,1168.71516 618.513836,1169.29782 618.0155,1169.86516 C617.517164,1170.43249 617.022669,1170.96915 616.532,1171.47516 C616.900002,1171.42916 617.317831,1171.38699 617.7855,1171.34866 C618.253169,1171.31032 618.647998,1171.29116 618.97,1171.29116 L621.408,1171.29116 L621.408,1174.60316 L610.828,1174.60316 Z M627.028778,1174.87916 C626.216107,1174.87916 625.480114,1174.71433 624.820778,1174.38466 C624.161441,1174.05499 623.59028,1173.56816 623.107278,1172.92416 C622.624275,1172.28015 622.252446,1171.48283 621.991778,1170.53216 C621.73111,1169.58149 621.600778,1168.48516 621.600778,1167.24316 C621.600778,1166.00115 621.73111,1164.90866 621.991778,1163.96566 C622.252446,1163.02265 622.624275,1162.24066 623.107278,1161.61966 C623.59028,1160.99865 624.161441,1160.53099 624.820778,1160.21666 C625.480114,1159.90232 626.216107,1159.74516 627.028778,1159.74516 C627.826115,1159.74516 628.558274,1159.90232 629.225278,1160.21666 C629.892281,1160.53099 630.467275,1161.00249 630.950278,1161.63116 C631.43328,1162.25983 631.80511,1163.04182 632.065778,1163.97716 C632.326446,1164.91249 632.456778,1166.00115 632.456778,1167.24316 C632.456778,1168.48516 632.326446,1169.58149 632.065778,1170.53216 C631.80511,1171.48283 631.43328,1172.28015 630.950278,1172.92416 C630.467275,1173.56816 629.892281,1174.05499 629.225278,1174.38466 C628.558274,1174.71433 627.826115,1174.87916 627.028778,1174.87916 Z M627.028778,1171.84316 C627.258779,1171.84316 627.477277,1171.78566 627.684278,1171.67066 C627.891279,1171.55566 628.071444,1171.32949 628.224778,1170.99216 C628.378112,1170.65482 628.500777,1170.18716 628.592778,1169.58916 C628.684778,1168.99115 628.730778,1168.20916 628.730778,1167.24316 C628.730778,1166.27715 628.684778,1165.50283 628.592778,1164.92016 C628.500777,1164.33749 628.378112,1163.88516 628.224778,1163.56316 C628.071444,1163.24116 627.891279,1163.03032 627.684278,1162.93066 C627.477277,1162.83099 627.258779,1162.78116 627.028778,1162.78116 C626.798777,1162.78116 626.580279,1162.83099 626.373278,1162.93066 C626.166277,1163.03032 625.986112,1163.24116 625.832778,1163.56316 C625.679444,1163.88516 625.556778,1164.33749 625.464778,1164.92016 C625.372777,1165.50283 625.326778,1166.27715 625.326778,1167.24316 C625.326778,1168.20916 625.372777,1168.99115 625.464778,1169.58916 C625.556778,1170.18716 625.679444,1170.65482 625.832778,1170.99216 C625.986112,1171.32949 626.166277,1171.55566 626.373278,1171.67066 C626.580279,1171.78566 626.798777,1171.84316 627.028778,1171.84316 Z M637.847556,1174.87916 C637.034885,1174.87916 636.298892,1174.71433 635.639556,1174.38466 C634.980219,1174.05499 634.409058,1173.56816 633.926056,1172.92416 C633.443053,1172.28015 633.071224,1171.48283 632.810556,1170.53216 C632.549888,1169.58149 632.419556,1168.48516 632.419556,1167.24316 C632.419556,1166.00115 632.549888,1164.90866 632.810556,1163.96566 C633.071224,1163.02265 633.443053,1162.24066 633.926056,1161.61966 C634.409058,1160.99865 634.980219,1160.53099 635.639556,1160.21666 C636.298892,1159.90232 637.034885,1159.74516 637.847556,1159.74516 C638.644893,1159.74516 639.377052,1159.90232 640.044056,1160.21666 C640.711059,1160.53099 641.286053,1161.00249 641.769056,1161.63116 C642.252058,1162.25983 642.623888,1163.04182 642.884556,1163.97716 C643.145224,1164.91249 643.275556,1166.00115 643.275556,1167.24316 C643.275556,1168.48516 643.145224,1169.58149 642.884556,1170.53216 C642.623888,1171.48283 642.252058,1172.28015 641.769056,1172.92416 C641.286053,1173.56816 640.711059,1174.05499 640.044056,1174.38466 C639.377052,1174.71433 638.644893,1174.87916 637.847556,1174.87916 Z M637.847556,1171.84316 C638.077557,1171.84316 638.296055,1171.78566 638.503056,1171.67066 C638.710057,1171.55566 638.890222,1171.32949 639.043556,1170.99216 C639.19689,1170.65482 639.319555,1170.18716 639.411556,1169.58916 C639.503556,1168.99115 639.549556,1168.20916 639.549556,1167.24316 C639.549556,1166.27715 639.503556,1165.50283 639.411556,1164.92016 C639.319555,1164.33749 639.19689,1163.88516 639.043556,1163.56316 C638.890222,1163.24116 638.710057,1163.03032 638.503056,1162.93066 C638.296055,1162.83099 638.077557,1162.78116 637.847556,1162.78116 C637.617554,1162.78116 637.399057,1162.83099 637.192056,1162.93066 C636.985055,1163.03032 636.80489,1163.24116 636.651556,1163.56316 C636.498222,1163.88516 636.375556,1164.33749 636.283556,1164.92016 C636.191555,1165.50283 636.145556,1166.27715 636.145556,1167.24316 C636.145556,1168.20916 636.191555,1168.99115 636.283556,1169.58916 C636.375556,1170.18716 636.498222,1170.65482 636.651556,1170.99216 C636.80489,1171.32949 636.985055,1171.55566 637.192056,1171.67066 C637.399057,1171.78566 637.617554,1171.84316 637.847556,1171.84316 Z M648.620333,1174.87916 C647.88433,1174.87916 647.19817,1174.78332 646.561833,1174.59166 C645.925497,1174.39999 645.373502,1174.12783 644.905833,1173.77516 C644.438164,1173.42249 644.074001,1173.00083 643.813333,1172.51016 C643.552665,1172.01949 643.422333,1171.47516 643.422333,1170.87716 C643.422333,1170.01849 643.648498,1169.32083 644.100833,1168.78416 C644.553169,1168.24749 645.12433,1167.79516 645.814333,1167.42716 L645.814333,1167.33516 C645.231664,1166.89049 644.764002,1166.39599 644.411333,1165.85166 C644.058665,1165.30732 643.882333,1164.65183 643.882333,1163.88516 C643.882333,1163.24115 644.001166,1162.66233 644.238833,1162.14866 C644.476501,1161.63499 644.813831,1161.20183 645.250833,1160.84916 C645.687836,1160.49649 646.201497,1160.22432 646.791833,1160.03266 C647.38217,1159.84099 648.037663,1159.74516 648.758333,1159.74516 C649.433003,1159.74516 650.050164,1159.84099 650.609833,1160.03266 C651.169503,1160.22432 651.648665,1160.49266 652.047333,1160.83766 C652.446002,1161.18266 652.756499,1161.60815 652.978833,1162.11416 C653.201168,1162.62016 653.312333,1163.17982 653.312333,1163.79316 C653.312333,1164.46783 653.132169,1165.06199 652.771833,1165.57566 C652.411498,1166.08933 651.970669,1166.51482 651.449333,1166.85216 L651.449333,1166.94416 C652.170004,1167.32749 652.767998,1167.82199 653.243333,1168.42766 C653.718669,1169.03333 653.956333,1169.81915 653.956333,1170.78516 C653.956333,1171.36783 653.829835,1171.90832 653.576833,1172.40666 C653.323832,1172.90499 652.963502,1173.33815 652.495833,1173.70616 C652.028164,1174.07416 651.46467,1174.36166 650.805333,1174.56866 C650.145997,1174.77566 649.417671,1174.87916 648.620333,1174.87916 Z M649.494333,1165.90916 C649.923669,1165.29582 650.138333,1164.68249 650.138333,1164.06916 C650.138333,1163.56315 650.008001,1163.16832 649.747333,1162.88466 C649.486665,1162.60099 649.126336,1162.45916 648.666333,1162.45916 C648.313665,1162.45916 648.003168,1162.57032 647.734833,1162.79266 C647.466499,1163.01499 647.332333,1163.37915 647.332333,1163.88516 C647.332333,1164.37583 647.520165,1164.76682 647.895833,1165.05816 C648.271502,1165.34949 648.80433,1165.63316 649.494333,1165.90916 Z M648.712333,1172.16516 C649.157002,1172.16516 649.532665,1172.05016 649.839333,1171.82016 C650.146002,1171.59016 650.299333,1171.19916 650.299333,1170.64716 C650.299333,1170.38649 650.238001,1170.15649 650.115333,1169.95716 C649.992666,1169.75782 649.812501,1169.57766 649.574833,1169.41666 C649.337166,1169.25566 649.049668,1169.09849 648.712333,1168.94516 C648.374998,1168.79182 647.991669,1168.62316 647.562333,1168.43916 C647.347666,1168.69982 647.167501,1169.00266 647.021833,1169.34766 C646.876166,1169.69266 646.803333,1170.04915 646.803333,1170.41716 C646.803333,1170.99983 646.994998,1171.43682 647.378333,1171.72816 C647.761669,1172.01949 648.206331,1172.16516 648.712333,1172.16516 Z" id="2008" fill="#D0D0D0" fill-rule="nonzero"></path>
                <path d="M29.1846604,617.876171 L29.1846604,615.622171 C30.0433314,614.824834 30.8444901,614.073508 31.5881604,613.368171 C32.3318308,612.662835 32.9796577,611.999675 33.5316604,611.378671 C34.0836632,610.757668 34.5168255,610.167341 34.8311604,609.607671 C35.1454953,609.048002 35.3026604,608.522841 35.3026604,608.032171 C35.3026604,607.372835 35.1378288,606.886006 34.8081604,606.571671 C34.4784921,606.257337 34.0453298,606.100171 33.5086604,606.100171 C33.0179913,606.100171 32.584829,606.242003 32.2091604,606.525671 C31.8334919,606.80934 31.4693289,607.127503 31.1166604,607.480171 L29.0006604,605.364171 C29.3839957,604.965503 29.7596586,604.616673 30.1276604,604.317671 C30.4956623,604.01867 30.8828251,603.773339 31.2891604,603.581671 C31.6954958,603.390004 32.1248248,603.248172 32.5771604,603.156171 C33.029496,603.064171 33.5239911,603.018171 34.0606604,603.018171 C34.7966641,603.018171 35.471324,603.13317 36.0846604,603.363171 C36.6979968,603.593173 37.2269916,603.915169 37.6716604,604.329171 C38.1163293,604.743174 38.4613259,605.245335 38.7066604,605.835671 C38.951995,606.426008 39.0746604,607.081501 39.0746604,607.802171 C39.0746604,608.384841 38.9481617,608.979002 38.6951604,609.584671 C38.4421592,610.190341 38.1163291,610.792169 37.7176604,611.390171 C37.3189918,611.988174 36.8704963,612.570835 36.3721604,613.138171 C35.8738246,613.705508 35.3793296,614.242169 34.8886604,614.748171 C35.2566623,614.702171 35.6744914,614.660005 36.1421604,614.621671 C36.6098294,614.583338 37.0046588,614.564171 37.3266604,614.564171 L39.7646604,614.564171 L39.7646604,617.876171 L29.1846604,617.876171 Z M45.3854383,618.152171 C44.5727675,618.152171 43.8367749,617.98734 43.1774383,617.657671 C42.5181016,617.328003 41.9469407,616.841175 41.4639383,616.197171 C40.9809358,615.553168 40.6091062,614.755843 40.3484383,613.805171 C40.0877703,612.8545 39.9574383,611.758178 39.9574383,610.516171 C39.9574383,609.274165 40.0877703,608.181676 40.3484383,607.238671 C40.6091062,606.295667 40.9809358,605.513675 41.4639383,604.892671 C41.9469407,604.271668 42.5181016,603.804006 43.1774383,603.489671 C43.8367749,603.175337 44.5727675,603.018171 45.3854383,603.018171 C46.1827756,603.018171 46.9149349,603.175337 47.5819383,603.489671 C48.2489416,603.804006 48.8239358,604.275502 49.3069383,604.904171 C49.7899407,605.532841 50.1617703,606.314833 50.4224383,607.250171 C50.6831062,608.18551 50.8134383,609.274165 50.8134383,610.516171 C50.8134383,611.758178 50.6831062,612.8545 50.4224383,613.805171 C50.1617703,614.755843 49.7899407,615.553168 49.3069383,616.197171 C48.8239358,616.841175 48.2489416,617.328003 47.5819383,617.657671 C46.9149349,617.98734 46.1827756,618.152171 45.3854383,618.152171 Z M45.3854383,615.116171 C45.6154394,615.116171 45.8339372,615.058672 46.0409383,614.943671 C46.2479393,614.828671 46.4281042,614.602507 46.5814383,614.265171 C46.7347724,613.927836 46.8574378,613.460174 46.9494383,612.862171 C47.0414387,612.264169 47.0874383,611.482176 47.0874383,610.516171 C47.0874383,609.550167 47.0414387,608.775841 46.9494383,608.193171 C46.8574378,607.610502 46.7347724,607.158173 46.5814383,606.836171 C46.4281042,606.51417 46.2479393,606.303339 46.0409383,606.203671 C45.8339372,606.104004 45.6154394,606.054171 45.3854383,606.054171 C45.1554371,606.054171 44.9369393,606.104004 44.7299383,606.203671 C44.5229372,606.303339 44.3427724,606.51417 44.1894383,606.836171 C44.0361042,607.158173 43.9134387,607.610502 43.8214383,608.193171 C43.7294378,608.775841 43.6834383,609.550167 43.6834383,610.516171 C43.6834383,611.482176 43.7294378,612.264169 43.8214383,612.862171 C43.9134387,613.460174 44.0361042,613.927836 44.1894383,614.265171 C44.3427724,614.602507 44.5229372,614.828671 44.7299383,614.943671 C44.9369393,615.058672 45.1554371,615.116171 45.3854383,615.116171 Z M56.2042161,618.152171 C55.3915453,618.152171 54.6555527,617.98734 53.9962161,617.657671 C53.3368794,617.328003 52.7657185,616.841175 52.2827161,616.197171 C51.7997137,615.553168 51.427884,614.755843 51.1672161,613.805171 C50.9065481,612.8545 50.7762161,611.758178 50.7762161,610.516171 C50.7762161,609.274165 50.9065481,608.181676 51.1672161,607.238671 C51.427884,606.295667 51.7997137,605.513675 52.2827161,604.892671 C52.7657185,604.271668 53.3368794,603.804006 53.9962161,603.489671 C54.6555527,603.175337 55.3915453,603.018171 56.2042161,603.018171 C57.0015534,603.018171 57.7337127,603.175337 58.4007161,603.489671 C59.0677194,603.804006 59.6427137,604.275502 60.1257161,604.904171 C60.6087185,605.532841 60.9805481,606.314833 61.2412161,607.250171 C61.501884,608.18551 61.6322161,609.274165 61.6322161,610.516171 C61.6322161,611.758178 61.501884,612.8545 61.2412161,613.805171 C60.9805481,614.755843 60.6087185,615.553168 60.1257161,616.197171 C59.6427137,616.841175 59.0677194,617.328003 58.4007161,617.657671 C57.7337127,617.98734 57.0015534,618.152171 56.2042161,618.152171 Z M56.2042161,615.116171 C56.4342172,615.116171 56.652715,615.058672 56.8597161,614.943671 C57.0667171,614.828671 57.246882,614.602507 57.4002161,614.265171 C57.5535502,613.927836 57.6762156,613.460174 57.7682161,612.862171 C57.8602165,612.264169 57.9062161,611.482176 57.9062161,610.516171 C57.9062161,609.550167 57.8602165,608.775841 57.7682161,608.193171 C57.6762156,607.610502 57.5535502,607.158173 57.4002161,606.836171 C57.246882,606.51417 57.0667171,606.303339 56.8597161,606.203671 C56.652715,606.104004 56.4342172,606.054171 56.2042161,606.054171 C55.9742149,606.054171 55.7557171,606.104004 55.5487161,606.203671 C55.341715,606.303339 55.1615502,606.51417 55.0082161,606.836171 C54.854882,607.158173 54.7322165,607.610502 54.6402161,608.193171 C54.5482156,608.775841 54.5022161,609.550167 54.5022161,610.516171 C54.5022161,611.482176 54.5482156,612.264169 54.6402161,612.862171 C54.7322165,613.460174 54.854882,613.927836 55.0082161,614.265171 C55.1615502,614.602507 55.341715,614.828671 55.5487161,614.943671 C55.7557171,615.058672 55.9742149,615.116171 56.2042161,615.116171 Z M64.3089939,617.876171 C64.3703275,616.726166 64.4776598,615.668176 64.6309939,614.702171 C64.784328,613.736167 65.0028258,612.808509 65.2864939,611.919171 C65.570162,611.029834 65.9381583,610.155842 66.3904939,609.297171 C66.8428295,608.438501 67.4063238,607.54151 68.0809939,606.606171 L61.8249939,606.606171 L61.8249939,603.294171 L72.2669939,603.294171 L72.2669939,605.732171 C71.4236563,606.71351 70.756663,607.633501 70.2659939,608.492171 C69.7753248,609.350842 69.3919953,610.236334 69.1159939,611.148671 C68.8399925,612.061009 68.6444945,613.053833 68.5294939,614.127171 C68.4144933,615.20051 68.3263275,616.450164 68.2649939,617.876171 L64.3089939,617.876171 Z" id="2007" fill="#D0D0D0" fill-rule="nonzero"></path>
                <path d="M414.828,4009 L414.828,4006.746 C415.686671,4005.94866 416.48783,4005.19734 417.2315,4004.492 C417.97517,4003.78666 418.622997,4003.1235 419.175,4002.5025 C419.727003,4001.8815 420.160165,4001.29117 420.4745,4000.7315 C420.788835,4000.17183 420.946,3999.64667 420.946,3999.156 C420.946,3998.49666 420.781168,3998.00983 420.4515,3997.6955 C420.121832,3997.38117 419.688669,3997.224 419.152,3997.224 C418.661331,3997.224 418.228169,3997.36583 417.8525,3997.6495 C417.476831,3997.93317 417.112668,3998.25133 416.76,3998.604 L414.644,3996.488 C415.027335,3996.08933 415.402998,3995.7405 415.771,3995.4415 C416.139002,3995.1425 416.526165,3994.89717 416.9325,3994.7055 C417.338835,3994.51383 417.768164,3994.372 418.2205,3994.28 C418.672836,3994.188 419.167331,3994.142 419.704,3994.142 C420.440004,3994.142 421.114664,3994.257 421.728,3994.487 C422.341336,3994.717 422.870331,3995.039 423.315,3995.453 C423.759669,3995.867 424.104665,3996.36916 424.35,3996.9595 C424.595335,3997.54984 424.718,3998.20533 424.718,3998.926 C424.718,3999.50867 424.591501,4000.10283 424.3385,4000.7085 C424.085499,4001.31417 423.759669,4001.916 423.361,4002.514 C422.962331,4003.112 422.513836,4003.69466 422.0155,4004.262 C421.517164,4004.82934 421.022669,4005.366 420.532,4005.872 C420.900002,4005.826 421.317831,4005.78383 421.7855,4005.7455 C422.253169,4005.70717 422.647998,4005.688 422.97,4005.688 L425.408,4005.688 L425.408,4009 L414.828,4009 Z M431.728778,4009.276 C430.916107,4009.276 430.180115,4009.11117 429.520778,4008.7815 C428.861441,4008.45183 428.29028,4007.965 427.807278,4007.321 C427.324276,4006.677 426.952446,4005.87967 426.691778,4004.929 C426.43111,4003.97833 426.300778,4002.88201 426.300778,4001.64 C426.300778,4000.39799 426.43111,3999.3055 426.691778,3998.3625 C426.952446,3997.4195 427.324276,3996.6375 427.807278,3996.0165 C428.29028,3995.3955 428.861441,3994.92783 429.520778,3994.6135 C430.180115,3994.29917 430.916107,3994.142 431.728778,3994.142 C432.526115,3994.142 433.258275,3994.29917 433.925278,3994.6135 C434.592281,3994.92783 435.167276,3995.39933 435.650278,3996.028 C436.13328,3996.65667 436.50511,3997.43866 436.765778,3998.374 C437.026446,3999.30934 437.156778,4000.39799 437.156778,4001.64 C437.156778,4002.88201 437.026446,4003.97833 436.765778,4004.929 C436.50511,4005.87967 436.13328,4006.677 435.650278,4007.321 C435.167276,4007.965 434.592281,4008.45183 433.925278,4008.7815 C433.258275,4009.11117 432.526115,4009.276 431.728778,4009.276 Z M431.728778,4006.24 C431.958779,4006.24 432.177277,4006.1825 432.384278,4006.0675 C432.591279,4005.9525 432.771444,4005.72634 432.924778,4005.389 C433.078112,4005.05166 433.200778,4004.584 433.292778,4003.986 C433.384778,4003.388 433.430778,4002.606 433.430778,4001.64 C433.430778,4000.674 433.384778,3999.89967 433.292778,3999.317 C433.200778,3998.73433 433.078112,3998.282 432.924778,3997.96 C432.771444,3997.638 432.591279,3997.42717 432.384278,3997.3275 C432.177277,3997.22783 431.958779,3997.178 431.728778,3997.178 C431.498777,3997.178 431.280279,3997.22783 431.073278,3997.3275 C430.866277,3997.42717 430.686112,3997.638 430.532778,3997.96 C430.379444,3998.282 430.256778,3998.73433 430.164778,3999.317 C430.072778,3999.89967 430.026778,4000.674 430.026778,4001.64 C430.026778,4002.606 430.072778,4003.388 430.164778,4003.986 C430.256778,4004.584 430.379444,4005.05166 430.532778,4005.389 C430.686112,4005.72634 430.866277,4005.9525 431.073278,4006.0675 C431.280279,4006.1825 431.498777,4006.24 431.728778,4006.24 Z M438.555556,4009 L438.555556,4005.826 L441.683556,4005.826 L441.683556,3998.282 L438.923556,3998.282 L438.923556,3995.844 C439.75156,3995.67533 440.456886,3995.48367 441.039556,3995.269 C441.622226,3995.05433 442.189553,3994.77067 442.741556,3994.418 L445.639556,3994.418 L445.639556,4005.826 L448.261556,4005.826 L448.261556,4009 L438.555556,4009 Z M454.490334,4000.858 C454.843002,4000.858 455.184166,4000.76217 455.513834,4000.5705 C455.843502,4000.37883 456.123333,4000.06067 456.353334,3999.616 C456.276667,3999.11 456.165501,3998.69217 456.019834,3998.3625 C455.874167,3998.03283 455.717002,3997.77217 455.548334,3997.5805 C455.379666,3997.38883 455.199502,3997.2585 455.007834,3997.1895 C454.816166,3997.1205 454.628335,3997.086 454.444334,3997.086 C454.030332,3997.086 453.666169,3997.23167 453.351834,3997.523 C453.037499,3997.81433 452.880334,3998.34333 452.880334,3999.11 C452.880334,3999.46267 452.926334,3999.75017 453.018334,3999.9725 C453.110334,4000.19483 453.229167,4000.37117 453.374834,4000.5015 C453.520501,4000.63183 453.689166,4000.72383 453.880834,4000.7775 C454.072502,4000.83117 454.275666,4000.858 454.490334,4000.858 Z M454.030334,4009.276 C452.987662,4009.276 452.090671,4009.092 451.339334,4008.724 C450.587997,4008.356 449.967003,4007.92667 449.476334,4007.436 L451.546334,4005.09 C451.776335,4005.35067 452.098332,4005.5845 452.512334,4005.7915 C452.926336,4005.9985 453.340332,4006.102 453.754334,4006.102 C454.122336,4006.102 454.459666,4006.03683 454.766334,4005.9065 C455.073002,4005.77617 455.345166,4005.55383 455.582834,4005.2395 C455.820502,4004.92517 456.016,4004.51884 456.169334,4004.0205 C456.322668,4003.52216 456.414667,4002.905 456.445334,4002.169 C456.261333,4002.399 456.054335,4002.606 455.824334,4002.79 C455.594333,4002.974 455.352835,4003.12733 455.099834,4003.25 C454.846833,4003.37267 454.601502,4003.46467 454.363834,4003.526 C454.126166,4003.58733 453.907668,4003.618 453.708334,4003.618 C453.079664,4003.618 452.497003,4003.52983 451.960334,4003.3535 C451.423665,4003.17717 450.959836,4002.905 450.568834,4002.537 C450.177832,4002.169 449.867335,4001.70134 449.637334,4001.134 C449.407333,4000.56666 449.292334,3999.892 449.292334,3999.11 C449.292334,3998.328 449.426499,3997.63034 449.694834,3997.017 C449.963169,3996.40366 450.327332,3995.88234 450.787334,3995.453 C451.247336,3995.02366 451.783998,3994.69783 452.397334,3994.4755 C453.01067,3994.25317 453.662331,3994.142 454.352334,3994.142 C455.057671,3994.142 455.751497,3994.27617 456.433834,3994.5445 C457.116171,3994.81283 457.725665,3995.23833 458.262334,3995.821 C458.799003,3996.40367 459.232166,3997.15883 459.561834,3998.0865 C459.891502,3999.01417 460.056334,4000.13733 460.056334,4001.456 C460.056334,4002.77467 459.887669,4003.92466 459.550334,4004.906 C459.212999,4005.88734 458.768337,4006.7 458.216334,4007.344 C457.664331,4007.988 457.024171,4008.471 456.295834,4008.793 C455.567497,4009.115 454.812338,4009.276 454.030334,4009.276 Z" id="2019" fill="#CCCCCC" fill-rule="nonzero"></path>
                <path d="M529.18466,273.239664 L529.18466,270.985664 C530.043331,270.188327 530.84449,269.437001 531.58816,268.731664 C532.331831,268.026327 532.979658,267.363167 533.53166,266.742164 C534.083663,266.121161 534.516826,265.530834 534.83116,264.971164 C535.145495,264.411495 535.30266,263.886333 535.30266,263.395664 C535.30266,262.736328 535.137829,262.249499 534.80816,261.935164 C534.478492,261.620829 534.04533,261.463664 533.50866,261.463664 C533.017991,261.463664 532.584829,261.605496 532.20916,261.889164 C531.833492,262.172832 531.469329,262.490996 531.11666,262.843664 L529.00066,260.727664 C529.383996,260.328996 529.759659,259.980166 530.12766,259.681164 C530.495662,259.382163 530.882825,259.136832 531.28916,258.945164 C531.695496,258.753497 532.124825,258.611665 532.57716,258.519664 C533.029496,258.427664 533.523991,258.381664 534.06066,258.381664 C534.796664,258.381664 535.471324,258.496663 536.08466,258.726664 C536.697997,258.956665 537.226992,259.278662 537.67166,259.692664 C538.116329,260.106666 538.461326,260.608828 538.70666,261.199164 C538.951995,261.7895 539.07466,262.444994 539.07466,263.165664 C539.07466,263.748334 538.948162,264.342494 538.69516,264.948164 C538.442159,265.553834 538.116329,266.155661 537.71766,266.753664 C537.318992,267.351667 536.870496,267.934328 536.37216,268.501664 C535.873825,269.069 535.37933,269.605662 534.88866,270.111664 C535.256662,270.065664 535.674491,270.023498 536.14216,269.985164 C536.609829,269.946831 537.004659,269.927664 537.32666,269.927664 L539.76466,269.927664 L539.76466,273.239664 L529.18466,273.239664 Z M545.385438,273.515664 C544.572768,273.515664 543.836775,273.350832 543.177438,273.021164 C542.518102,272.691496 541.946941,272.204667 541.463938,271.560664 C540.980936,270.916661 540.609106,270.119336 540.348438,269.168664 C540.08777,268.217993 539.957438,267.12167 539.957438,265.879664 C539.957438,264.637658 540.08777,263.545169 540.348438,262.602164 C540.609106,261.659159 540.980936,260.877167 541.463938,260.256164 C541.946941,259.635161 542.518102,259.167499 543.177438,258.853164 C543.836775,258.538829 544.572768,258.381664 545.385438,258.381664 C546.182776,258.381664 546.914935,258.538829 547.581938,258.853164 C548.248942,259.167499 548.823936,259.638994 549.306938,260.267664 C549.789941,260.896334 550.16177,261.678326 550.422438,262.613664 C550.683106,263.549002 550.813438,264.637658 550.813438,265.879664 C550.813438,267.12167 550.683106,268.217993 550.422438,269.168664 C550.16177,270.119336 549.789941,270.916661 549.306938,271.560664 C548.823936,272.204667 548.248942,272.691496 547.581938,273.021164 C546.914935,273.350832 546.182776,273.515664 545.385438,273.515664 Z M545.385438,270.479664 C545.615439,270.479664 545.833937,270.422165 546.040938,270.307164 C546.247939,270.192164 546.428104,269.965999 546.581438,269.628664 C546.734772,269.291329 546.857438,268.823667 546.949438,268.225664 C547.041439,267.627661 547.087438,266.845669 547.087438,265.879664 C547.087438,264.913659 547.041439,264.139334 546.949438,263.556664 C546.857438,262.973995 546.734772,262.521666 546.581438,262.199664 C546.428104,261.877663 546.247939,261.666831 546.040938,261.567164 C545.833937,261.467497 545.615439,261.417664 545.385438,261.417664 C545.155437,261.417664 544.936939,261.467497 544.729938,261.567164 C544.522937,261.666831 544.342772,261.877663 544.189438,262.199664 C544.036104,262.521666 543.913439,262.973995 543.821438,263.556664 C543.729438,264.139334 543.683438,264.913659 543.683438,265.879664 C543.683438,266.845669 543.729438,267.627661 543.821438,268.225664 C543.913439,268.823667 544.036104,269.291329 544.189438,269.628664 C544.342772,269.965999 544.522937,270.192164 544.729938,270.307164 C544.936939,270.422165 545.155437,270.479664 545.385438,270.479664 Z M556.204216,273.515664 C555.391545,273.515664 554.655553,273.350832 553.996216,273.021164 C553.336879,272.691496 552.765718,272.204667 552.282716,271.560664 C551.799714,270.916661 551.427884,270.119336 551.167216,269.168664 C550.906548,268.217993 550.776216,267.12167 550.776216,265.879664 C550.776216,264.637658 550.906548,263.545169 551.167216,262.602164 C551.427884,261.659159 551.799714,260.877167 552.282716,260.256164 C552.765718,259.635161 553.336879,259.167499 553.996216,258.853164 C554.655553,258.538829 555.391545,258.381664 556.204216,258.381664 C557.001553,258.381664 557.733713,258.538829 558.400716,258.853164 C559.067719,259.167499 559.642714,259.638994 560.125716,260.267664 C560.608718,260.896334 560.980548,261.678326 561.241216,262.613664 C561.501884,263.549002 561.632216,264.637658 561.632216,265.879664 C561.632216,267.12167 561.501884,268.217993 561.241216,269.168664 C560.980548,270.119336 560.608718,270.916661 560.125716,271.560664 C559.642714,272.204667 559.067719,272.691496 558.400716,273.021164 C557.733713,273.350832 557.001553,273.515664 556.204216,273.515664 Z M556.204216,270.479664 C556.434217,270.479664 556.652715,270.422165 556.859716,270.307164 C557.066717,270.192164 557.246882,269.965999 557.400216,269.628664 C557.55355,269.291329 557.676216,268.823667 557.768216,268.225664 C557.860217,267.627661 557.906216,266.845669 557.906216,265.879664 C557.906216,264.913659 557.860217,264.139334 557.768216,263.556664 C557.676216,262.973995 557.55355,262.521666 557.400216,262.199664 C557.246882,261.877663 557.066717,261.666831 556.859716,261.567164 C556.652715,261.467497 556.434217,261.417664 556.204216,261.417664 C555.974215,261.417664 555.755717,261.467497 555.548716,261.567164 C555.341715,261.666831 555.16155,261.877663 555.008216,262.199664 C554.854882,262.521666 554.732217,262.973995 554.640216,263.556664 C554.548216,264.139334 554.502216,264.913659 554.502216,265.879664 C554.502216,266.845669 554.548216,267.627661 554.640216,268.225664 C554.732217,268.823667 554.854882,269.291329 555.008216,269.628664 C555.16155,269.965999 555.341715,270.192164 555.548716,270.307164 C555.755717,270.422165 555.974215,270.479664 556.204216,270.479664 Z M567.390994,273.515664 C566.685657,273.515664 565.991831,273.381499 565.309494,273.113164 C564.627157,272.844829 564.017663,272.419334 563.480994,271.836664 C562.944325,271.253995 562.511162,270.498835 562.181494,269.571164 C561.851826,268.643493 561.686994,267.520337 561.686994,266.201664 C561.686994,264.882991 561.855659,263.733002 562.192994,262.751664 C562.530329,261.770326 562.974991,260.957667 563.526994,260.313664 C564.078997,259.669661 564.719157,259.186666 565.447494,258.864664 C566.175831,258.542663 566.93099,258.381664 567.712994,258.381664 C568.755666,258.381664 569.652657,258.565662 570.403994,258.933664 C571.155331,259.301666 571.776325,259.730995 572.266994,260.221664 L570.196994,262.567664 C569.966993,262.306996 569.644996,262.073165 569.230994,261.866164 C568.816992,261.659163 568.402996,261.555664 567.988994,261.555664 C567.636325,261.555664 567.302829,261.62083 566.988494,261.751164 C566.674159,261.881498 566.398162,262.103829 566.160494,262.418164 C565.922826,262.732499 565.731161,263.138828 565.585494,263.637164 C565.439826,264.1355 565.343994,264.75266 565.297994,265.488664 C565.481995,265.258663 565.688993,265.051665 565.918994,264.867664 C566.148995,264.683663 566.390493,264.530331 566.643494,264.407664 C566.896495,264.284997 567.141826,264.192998 567.379494,264.131664 C567.617162,264.070331 567.83566,264.039664 568.034994,264.039664 C568.64833,264.039664 569.227158,264.12783 569.771494,264.304164 C570.31583,264.480498 570.783492,264.752662 571.174494,265.120664 C571.565496,265.488666 571.875993,265.956328 572.105994,266.523664 C572.335995,267.091 572.450994,267.76566 572.450994,268.547664 C572.450994,269.329668 572.316829,270.027328 572.048494,270.640664 C571.780159,271.254001 571.415996,271.775329 570.955994,272.204664 C570.495992,272.634 569.95933,272.95983 569.345994,273.182164 C568.732657,273.404499 568.080997,273.515664 567.390994,273.515664 Z M567.298994,270.571664 C567.712996,270.571664 568.077159,270.425999 568.391494,270.134664 C568.705829,269.843329 568.862994,269.314335 568.862994,268.547664 C568.862994,268.194996 568.816994,267.907499 568.724994,267.685164 C568.632993,267.46283 568.514161,267.286498 568.368494,267.156164 C568.222826,267.02583 568.050328,266.933831 567.850994,266.880164 C567.65166,266.826497 567.452328,266.799664 567.252994,266.799664 C566.900325,266.799664 566.559162,266.895497 566.229494,267.087164 C565.899826,267.278832 565.619995,267.596995 565.389994,268.041664 C565.466661,268.547667 565.577826,268.965496 565.723494,269.295164 C565.869161,269.624832 566.026326,269.885497 566.194994,270.077164 C566.363661,270.268832 566.543826,270.399164 566.735494,270.468164 C566.927162,270.537165 567.114993,270.571664 567.298994,270.571664 Z" id="2006" fill="#D0D0D0" fill-rule="nonzero"></path>
            </g>
        </g>
    </g>
</svg>