<?xml version="1.0" encoding="UTF-8"?>
<svg width="100%" height="100%" viewBox="0 0 167 45" version="1.1" xmlns="http://www.w3.org/2000/svg" xmlns:xlink="http://www.w3.org/1999/xlink">
    <!-- Generator: Sketch 43 (38999) - http://www.bohemiancoding.com/sketch -->
    <title>Strow Logo</title>
    <desc>Created with Sketch.</desc>
    <defs>
        <linearGradient x1="0%" y1="27.7804689%" x2="94.5434167%" y2="78.8432196%" id="linearGradient-1">
            <stop stop-color="#F074AF" offset="0%"></stop>
            <stop stop-color="#FE8589" offset="100%"></stop>
        </linearGradient>
        <linearGradient x1="1.97077025%" y1="9.43894916%" x2="98.301683%" y2="93.0369138%" id="linearGradient-2">
            <stop stop-color="#EF73B1" offset="0%"></stop>
            <stop stop-color="#FF8484" offset="100%"></stop>
        </linearGradient>
        <path d="M82.59375,42.9923954 C80.1562378,41.6539857 78.2812566,39.7405067 76.96875,37.2519011 C75.6562434,34.7632955 75,31.8460243 75,28.5 C75,25.1539757 75.6562434,22.2367045 76.96875,19.7480989 C78.2812566,17.2594933 80.1562378,15.3460143 82.59375,14.0076046 C85.0312622,12.6691948 87.8541506,12 91.0625,12 C94.2291825,12 97.0208213,12.6691948 99.4375,14.0076046 C101.854179,15.3460143 103.718743,17.2594933 105.03125,19.7480989 C106.343757,22.2367045 107,25.1539757 107,28.5 C107,31.8460243 106.343757,34.7632955 105.03125,37.2519011 C103.718743,39.7405067 101.854179,41.6539857 99.4375,42.9923954 C97.0208213,44.3308052 94.2291825,45 91.0625,45 C87.8541506,45 85.0312622,44.3308052 82.59375,42.9923954 Z" id="path-3"></path>
    </defs>
    <g id="Projects" stroke="none" stroke-width="1" fill="none" fill-rule="evenodd">
        <g id="Artboard" transform="translate(-100.000000, -257.000000)">
            <g id="Strow-Logo" transform="translate(100.000000, 257.000000)">
                <path d="M7.24217316,42.6739726 C4.4009223,41.7899499 1.98688872,40.5242092 0,38.8767123 L2.62267999,33.2109589 C4.68904426,34.77809 6.84478618,35.9333296 9.08997043,36.6767123 C11.3351547,37.420095 13.7889254,37.7917808 16.4513563,37.7917808 C19.3919516,37.7917808 21.6669051,37.2694116 23.2762849,36.2246575 C24.8856648,35.1799035 25.6903426,33.7132515 25.6903426,31.8246575 C25.6903426,30.2173436 24.9452706,28.9817395 23.455104,28.1178082 C21.9649375,27.253877 19.5111667,26.4401865 16.0937181,25.6767123 C10.7688564,24.5114097 6.89448149,23.0045755 4.47047726,21.1561644 C2.04647303,19.3077533 0.834489088,16.6155428 0.834489088,13.0794521 C0.834489088,10.5479325 1.51002112,8.29772674 2.86110545,6.32876712 C4.21218977,4.35980751 6.12950862,2.81279101 8.61311952,1.68767123 C11.0967304,0.562551452 13.9677415,0 17.226239,0 C20.2065721,0 23.0378461,0.452050274 25.7201458,1.35616438 C28.4024456,2.26027849 30.5979247,3.5159737 32.306649,5.12328767 L29.7435754,10.7890411 C25.9684868,7.73514455 21.7960831,6.20821918 17.226239,6.20821918 C14.4843326,6.20821918 12.3186564,6.78081619 10.7291454,7.9260274 C9.13963445,9.0712386 8.34489088,10.6283007 8.34489088,12.5972603 C8.34489088,14.2849399 9.0502258,15.5707718 10.4609168,16.4547945 C11.8716078,17.3388172 14.2856414,18.1625533 17.7030899,18.9260274 C21.2397519,19.7698672 24.1206973,20.6840133 26.3460126,21.6684932 C28.571328,22.652973 30.2800267,23.9187137 31.4721599,25.4657534 C32.6642931,27.0127931 33.2603508,28.9515865 33.2603508,31.2821918 C33.2603508,33.8538941 32.5848188,36.0940544 31.2337344,38.0027397 C29.8826501,39.9114251 27.9355284,41.3881226 25.3923108,42.4328767 C22.8490933,43.4776308 19.8489363,44 16.3917499,44 C13.1332525,44 10.083424,43.5579953 7.24217316,42.6739726 Z M46.382266,18.6849315 L46.382266,32.3068493 C46.382266,35.8831229 48.0313589,37.6712329 51.3295941,37.6712329 C52.2435629,37.6712329 53.2369924,37.5105039 54.3099123,37.1890411 L54.3099123,43.1561644 C52.9985657,43.6383586 51.4090786,43.8794521 49.5414032,43.8794521 C46.1239546,43.8794521 43.5013009,42.9150781 41.6733632,40.9863014 C39.8454256,39.0575246 38.9314705,36.2849496 38.9314705,32.6684932 L38.9314705,18.6849315 L33.1496533,18.6849315 L33.1496533,13.0191781 L38.9314705,13.0191781 L38.9314705,5.60547945 L46.382266,3.0739726 L46.382266,13.0191781 L54.3695187,13.0191781 L54.3695187,18.6849315 L46.382266,18.6849315 Z M76.1343565,12.7780822 L76.0747502,19.6493151 C74.8031414,19.126938 73.4918145,18.8657534 72.1407302,18.8657534 C69.5975126,18.8657534 67.6603252,19.609125 66.3291097,21.0958904 C64.9978943,22.5826558 64.3322966,24.5515859 64.3322966,27.0027397 L64.3322966,43.4575342 L56.9411075,43.4575342 L56.9411075,21.6383562 C56.9411075,18.4237282 56.7821588,15.5506976 56.4642566,13.0191781 L63.4382011,13.0191781 L64.0342647,18.3835616 C64.7892824,16.414602 65.9813978,14.9077678 67.6106465,13.8630137 C69.2398953,12.8182596 71.0876741,12.2958904 73.1540383,12.2958904 C74.3064338,12.2958904 75.2998633,12.4566194 76.1343565,12.7780822 Z M82.7293749,42.0109589 C80.4047151,40.7251077 78.6165421,38.8867699 77.3648022,36.4958904 C76.1130623,34.1050109 75.4872017,31.3022992 75.4872017,28.0876712 C75.4872017,24.8730433 76.1130623,22.0703316 77.3648022,19.6794521 C78.6165421,17.2885725 80.4047151,15.4502347 82.7293749,14.1643836 C85.0540347,12.8785324 87.7462285,12.2356164 90.8060371,12.2356164 C93.826108,12.2356164 96.4884989,12.8785324 98.7932898,14.1643836 C101.098081,15.4502347 102.876319,17.2885725 104.128059,19.6794521 C105.379799,22.0703316 106.00566,24.8730433 106.00566,28.0876712 C106.00566,31.3022992 105.379799,34.1050109 104.128059,36.4958904 C102.876319,38.8867699 101.098081,40.7251077 98.7932898,42.0109589 C96.4884989,43.2968101 93.826108,43.939726 90.8060371,43.939726 C87.7462285,43.939726 85.0540347,43.2968101 82.7293749,42.0109589 Z M96.5580512,35.5315068 C97.8892666,33.8639186 98.5548644,31.3826649 98.5548644,28.0876712 C98.5548644,24.8328604 97.8793323,22.3516067 96.528248,20.6438356 C95.1771637,18.9360645 93.2697791,18.0821918 90.8060371,18.0821918 C88.3025573,18.0821918 86.3753042,18.9360645 85.0242199,20.6438356 C83.6731355,22.3516067 82.9976035,24.8328604 82.9976035,28.0876712 C82.9976035,31.3826649 83.6632012,33.8639186 84.9944167,35.5315068 C86.3256321,37.1990951 88.242951,38.0328767 90.7464308,38.0328767 C93.2896483,38.0328767 95.2268358,37.1990951 96.5580512,35.5315068 Z M150.003671,13.0191781 L157.275648,13.0191781 L145.473588,43.4575342 L138.976494,43.4575342 L131.525699,23.5068493 L124.253722,43.4575342 L117.697022,43.4575342 L105.894962,13.0191781 L113.524577,13.0191781 L121.273404,34.4767123 L129.081838,13.0191781 L134.44641,13.0191781 L142.254844,34.6575342 L150.003671,13.0191781 Z M158.655109,35.0191781 L167,35.0191781 L167,43.4575342 L158.655109,43.4575342 L158.655109,35.0191781 Z" id="Strow." fill="url(#linearGradient-1)"></path>
                <g id="o">
                    <use fill="url(#linearGradient-2)" fill-rule="evenodd" xlink:href="#path-3"></use>
                    <path stroke-opacity="0.296591938" stroke="#FFFFFF" stroke-width="2" d="M83.0750552,42.1158423 C80.8097373,40.8719825 79.0747046,39.1013256 77.8532703,36.7853995 C76.6203053,34.4476103 76,31.6900988 76,28.5 C76,25.3099012 76.6203053,22.5523897 77.8532703,20.2146005 C79.0747046,17.8986744 80.8097373,16.1280175 83.0750552,14.8841577 C85.3591849,13.6299684 88.0166033,13 91.0625,13 C94.0653046,13 96.6902529,13.6292368 98.9530164,14.8824049 C101.198627,16.1260735 102.924564,17.897288 104.14673,20.2146005 C105.379695,22.5523897 106,25.3099012 106,28.5 C106,31.6900988 105.379695,34.4476103 104.14673,36.7853995 C102.924564,39.102712 101.198627,40.8739265 98.9530164,42.1175951 C96.6902529,43.3707632 94.0653046,44 91.0625,44 C88.0166033,44 85.3591849,43.3700316 83.0750552,42.1158423 L83.0750552,42.1158423 Z"></path>
                </g>
            </g>
        </g>
    </g>
</svg>