<?xml version="1.0" encoding="UTF-8"?>
<svg width="74px" height="74px" viewBox="0 0 74 74" version="1.1" xmlns="http://www.w3.org/2000/svg" xmlns:xlink="http://www.w3.org/1999/xlink">
    <!-- Generator: Sketch 43 (38999) - http://www.bohemiancoding.com/sketch -->
    <title>Rocket Icon</title>
    <desc>Created with Sketch.</desc>
    <defs>
        <linearGradient x1="-115.539598%" y1="50%" x2="240.833138%" y2="50%" id="linearGradient-1">
            <stop stop-color="#FFD900" offset="0%"></stop>
            <stop stop-color="#FF9C00" offset="23.0689008%"></stop>
            <stop stop-color="#FE448B" offset="53.1185082%"></stop>
            <stop stop-color="#CA4ADF" offset="77.7239354%"></stop>
            <stop stop-color="#65C9FE" offset="100%"></stop>
        </linearGradient>
        <linearGradient x1="-32.6389309%" y1="50%" x2="137.913651%" y2="50%" id="linearGradient-2">
            <stop stop-color="#FFD900" offset="0%"></stop>
            <stop stop-color="#FF9C00" offset="23.0689008%"></stop>
            <stop stop-color="#FE448B" offset="53.1185082%"></stop>
            <stop stop-color="#CA4ADF" offset="77.7239354%"></stop>
            <stop stop-color="#65C9FE" offset="100%"></stop>
        </linearGradient>
    </defs>
    <g id="Final-Slide" stroke="none" stroke-width="1" fill="none" fill-rule="evenodd">
        <g id="Artboard" transform="translate(-141.000000, -63.000000)">
            <g id="Top-Icons" transform="translate(22.000000, 29.000000)">
                <g id="Startups" transform="translate(120.914062, 35.804688)">
                    <g id="Rocket-Icon" transform="translate(0.824875, 0.358716)">
                        <path d="M48.4663613,17.43738 C47.5131947,17.4369193 46.1920358,17.4782691 44.7914425,17.6083065 C41.9902574,17.8683809 38.76295,18.339012 36.7578993,20.3431297 C35.0736488,22.0265968 31.6000007,26.4893742 28.3825031,30.6841801 C27.746684,31.5131283 27.7740022,31.4936646 27.1860179,32.2652498 L24.8357792,32.137055 C23.0878338,32.0440983 21.4073089,32.7854966 20.3062282,34.1454408 L17.4432101,37.6494331 L16.0330668,39.4441608 L18.2551107,39.871477 L22.7419301,40.7688408 L27.9979185,46.0248293 L28.8952824,50.5116486 L29.3653302,52.7336925 L31.1173263,51.3235493 L34.6213186,48.4605312 C35.982972,47.3595433 36.7226611,45.6789261 36.6297044,43.9309802 L36.5015096,41.6234731 C37.2948257,41.0212828 37.2721923,41.0381963 38.1253109,40.3842563 C42.3301481,37.1611249 46.8080793,33.7090861 48.4663613,32.0515917 C50.4540076,30.064889 50.895125,26.7842634 51.1584529,23.9753168 C51.4217808,21.1663709 51.2866477,18.76206 51.2866477,18.76206 L51.2439161,17.5228433 L50.0046993,17.4801116 C50.0046993,17.4801116 49.4195278,17.4378407 48.4663613,17.43738 Z M47.2271445,20.1722033 C47.770852,20.170162 48.1580674,20.2053863 48.5518245,20.2149349 C48.5677412,21.0092389 48.5999437,21.8381846 48.4236297,23.7189272 C48.1806734,26.3105728 47.3914622,29.1956063 46.5007071,30.0859375 C45.2805876,31.3054773 40.645404,34.9957712 36.458778,38.204944 C32.7570853,41.0424011 30.1513143,43.0345544 29.4080618,43.5891273 L25.2203637,39.4014292 C25.7834884,38.646685 27.6961349,36.0311274 30.5190837,32.350713 C33.7222673,28.1745668 37.4251373,23.5211528 38.6808218,22.2660523 C39.6157061,21.3316025 42.46962,20.5397708 45.0478322,20.3003981 C45.9832361,20.2135511 46.683437,20.1742445 47.2271445,20.1722033 Z M40.988329,25.0008756 C39.4613131,25.0008756 38.2535057,26.2514145 38.2535057,27.7784304 C38.2535057,29.3054463 39.4613131,30.5559853 40.988329,30.5559853 C42.5153449,30.5559853 43.7658838,29.3054463 43.7658838,27.7784304 C43.7658838,26.2514145 42.5153449,25.0008756 40.988329,25.0008756 Z M24.6648527,34.8718782 L25.1776321,34.9146098 C24.3540693,36.0036752 23.0078066,37.7512724 22.8273933,37.991286 L20.989934,37.6067015 L22.4000772,35.8974369 C22.9508297,35.217203 23.7901025,34.8253589 24.6648527,34.8718782 Z M21.545445,41.965326 C20.377062,43.1346421 19.7101175,44.7533457 19.2379378,46.1102925 C18.7657582,47.4672393 18.554232,48.5887261 18.554232,48.5887261 L18.1269159,50.5971119 L20.1353017,50.2125274 C20.1353017,50.2125274 21.2263288,50.0282454 22.5710037,49.5715532 C23.9156785,49.1148609 25.5368738,48.4431418 26.7587018,47.2213144 L24.8357792,45.2983918 C24.2262843,45.9078869 23.0214274,46.4405798 21.9300295,46.8367299 C22.3467854,45.6973492 22.9529946,44.4040335 23.4683675,43.8882486 L21.545445,41.965326 Z M33.8521496,43.5891273 L33.8948812,44.1019067 C33.9414005,44.9766563 33.5933136,45.8158368 32.9120541,46.3666822 L31.1600579,47.7768254 L30.7754734,45.939366 C31.015878,45.7604689 32.7623662,44.4072264 33.8521496,43.5891273 Z" id="Shape" fill="url(#linearGradient-1)" fill-rule="nonzero"></path>
                        <circle id="Oval" stroke="url(#linearGradient-2)" stroke-width="4" cx="34.4750981" cy="34.8891908" r="34.4481287"></circle>
                    </g>
                </g>
            </g>
        </g>
    </g>
</svg>