<?xml version="1.0" encoding="UTF-8"?>
<svg width="41px" height="42px" viewBox="0 0 41 42" version="1.1" xmlns="http://www.w3.org/2000/svg" xmlns:xlink="http://www.w3.org/1999/xlink">
    <!-- Generator: Sketch 43 (38999) - http://www.bohemiancoding.com/sketch -->
    <title>wordpress-logo</title>
    <desc>Created with Sketch.</desc>
    <defs></defs>
    <g id="Final-Slide" stroke="none" stroke-width="1" fill="none" fill-rule="evenodd">
        <g id="Artboard" transform="translate(-57.000000, -324.000000)" fill-rule="nonzero" fill="#000000">
            <g id="Group-2" transform="translate(-3.755980, 282.800134)">
                <g id="Wordpress" transform="translate(49.687770, 29.614138)">
                    <g id="wordpress-logo" transform="translate(11.251697, 12.278205)">
                        <path d="M37.7031427,20.465366 C37.7031427,18.6735648 37.4260393,16.9391286 36.9237675,15.3139924 L29.2012175,35.355208 C34.2880445,32.3455181 37.7030551,26.8058144 37.7030551,20.465366 L37.7031427,20.465366 Z" id="Shape"></path>
                        <path d="M14.9436162,36.8610601 C16.6628134,37.4385633 18.5030464,37.7488595 20.4196491,37.7488595 C22.4222556,37.7488595 24.3405224,37.4099246 26.1288203,36.7829387 L20.8528203,23.1046797 L14.9437038,36.8610601 L14.9436162,36.8610601 Z" id="Shape"></path>
                        <path d="M3.83924856,15.5794477 C3.38278112,17.1282141 3.13344059,18.7676258 3.13344059,20.4652784 C3.13344059,26.9421766 6.69917652,32.5857503 11.9697466,35.5426294 L3.89214694,15.6879594 L3.83924856,15.5794477 L3.83924856,15.5794477 Z" id="Shape"></path>
                        <path d="M12.6450767,14.4647283 L11.9025726,14.4315354 C10.2828664,14.4046483 10.4622304,16.0861861 10.4622304,16.0861861 L16.209061,30.4998552 L20.0725692,21.2715407 L17.9157343,15.7802688 C17.052107,14.3283661 14.9445796,14.343605 14.9445796,14.343605 L14.9445796,13.5786805 L27.0283554,13.5786805 L27.0104015,14.4270688 L25.7531017,14.5051027 C24.1872572,14.5051027 24.5038592,15.9946649 24.5038592,15.9946649 L29.7475422,30.0021375 L31.2505917,26.1233903 C33.9167925,20.078875 32.2720384,15.6055466 32.2720384,15.6055466 C29.6021592,10.1125231 32.9760072,9.32421467 32.9760072,9.32421467 C33.1894399,9.29373679 33.3894728,9.27674625 33.5858274,9.2677255 C30.4155155,5.54233106 25.6929342,3.17924498 20.4205249,3.17924498 C13.2916805,3.17924498 7.1682555,7.49922067 4.52701504,13.6631077 L12.6163504,13.5797314 L12.6449891,14.4649034 L12.6450767,14.4647283 Z" id="Shape"></path>
                        <path d="M39.8348422,20.408001 C39.8348422,31.1195719 31.1186961,39.8366814 20.4097526,39.8366814 C9.6953791,39.8366814 0.979233027,31.1195719 0.979233027,20.408001 C0.979233027,9.6936275 9.6953791,0.980196408 20.4097526,0.980196408 C31.1186961,0.981072209 39.8348422,9.69371508 39.8348422,20.408001 Z M20.4097526,0.085127851 C9.204843,0.085127851 0.0869670329,9.2030914 0.0869670329,20.4088768 C0.0869670329,31.6146622 9.20493058,40.7280716 20.4097526,40.7280716 C31.612823,40.7280716 40.7245684,31.6145746 40.7245684,20.4088768 C40.7245684,9.2030914 31.6129106,0.085127851 20.4097526,0.085127851 L20.4097526,0.085127851 Z" id="Shape"></path>
                    </g>
                </g>
            </g>
        </g>
    </g>
</svg>