<?xml version="1.0" encoding="UTF-8"?>
<svg width="100%" height="100%" viewBox="0 0 22 22" version="1.1" xmlns="http://www.w3.org/2000/svg" xmlns:xlink="http://www.w3.org/1999/xlink">
    <!-- Generator: Sketch 43 (38999) - http://www.bohemiancoding.com/sketch -->
    <title>hot-coffee-rounded-cup-on-a-plate-from-side-view</title>
    <desc>Created with Sketch.</desc>
    <defs>
        <linearGradient x1="-61.8368414%" y1="50%" x2="154.585786%" y2="50%" id="linearGradient-1">
            <stop stop-color="#FFD900" offset="0%"></stop>
            <stop stop-color="#FF9C00" offset="23.0689008%"></stop>
            <stop stop-color="#FE448B" offset="53.1185082%"></stop>
            <stop stop-color="#CA4ADF" offset="77.7239354%"></stop>
            <stop stop-color="#65C9FE" offset="100%"></stop>
        </linearGradient>
    </defs>
    <g id="Introduction" stroke="none" stroke-width="1" fill="none" fill-rule="evenodd">
        <g id="Artboard" transform="translate(-211.000000, -246.000000)" fill-rule="nonzero" fill="url(#linearGradient-1)">
            <g id="hot-coffee-rounded-cup-on-a-plate-from-side-view" transform="translate(211.000000, 246.000000)">
                <path d="M2.756,20.725 L5.706,20.725 C5.747,20.982 5.96,21.183 6.229,21.183 L12.936,21.183 C13.206,21.183 13.418,20.983 13.459,20.725 L16.409,20.725 C16.908,20.725 17.312,20.321 17.312,19.822 L1.854,19.822 C1.854,20.321 2.258,20.725 2.756,20.725 Z" id="Shape"></path>
                <path d="M20.865,11.444 C20.113,10.835 19.054,10.825 18.357,10.902 C18.377,10.416 18.388,9.919 18.388,9.402 L0,9.402 C0,14.372 0.752,17.958 5.511,19.296 L12.877,19.296 C14.762,18.767 16.012,17.878 16.841,16.696 C18.647,16.661 21.552,15.95 21.661,13.456 C21.708,12.364 21.254,11.758 20.865,11.444 Z M17.598,15.27 C17.944,14.381 18.149,13.381 18.262,12.282 C18.75,12.202 19.591,12.151 20.016,12.497 C20.094,12.561 20.337,12.759 20.309,13.398 C20.252,14.69 18.648,15.124 17.598,15.27 Z" id="Shape"></path>
                <path d="M7.491,8.704 C7.491,8.704 8.946,7.965 7.791,6.111 C4.643,1.856 10.041,0.481 10.041,0.481 C8.393,1.737 8.099,3.127 9.387,5.496 C10.991,8.447 7.491,8.704 7.491,8.704 Z M9.85,8.468 C10.724,7.858 10.905,7.15 10.295,5.903 C9.533,4.352 11.338,4.295 11.338,4.295 C11.338,4.295 10.574,4.644 11.128,5.622 C12.654,7.877 9.85,8.468 9.85,8.468 Z" id="Combined-Shape"></path>
            </g>
        </g>
    </g>
</svg>