<?xml version="1.0" encoding="UTF-8"?>
<svg width="100%" height="100%" viewBox="0 0 139 139" version="1.1" xmlns="http://www.w3.org/2000/svg" xmlns:xlink="http://www.w3.org/1999/xlink">
    <!-- Generator: Sketch 43 (38999) - http://www.bohemiancoding.com/sketch -->
    <title>Group 6</title>
    <desc>Created with Sketch.</desc>
    <defs>
        <linearGradient x1="1.97077025%" y1="9.43894916%" x2="98.301683%" y2="93.0369138%" id="linearGradient-1">
            <stop stop-color="#FF7677" offset="0%"></stop>
            <stop stop-color="#E6AA67" offset="100%"></stop>
        </linearGradient>
        <linearGradient x1="0%" y1="50%" x2="100%" y2="50%" id="linearGradient-2">
            <stop stop-color="#C34BEA" offset="0%"></stop>
            <stop stop-color="#62CCFE" offset="100%"></stop>
        </linearGradient>
    </defs>
    <g id="Introduction" stroke="none" stroke-width="1" fill="none" fill-rule="evenodd">
        <g id="Artboard" transform="translate(-113.000000, -161.000000)">
            <g id="Group-6" transform="translate(117.000000, 165.000000)">
                <g id="networking" transform="translate(35.945122, 32.750000)" fill-rule="nonzero" fill="url(#linearGradient-2)">
                    <path d="M44.2258656,25.6878847 L44.2258656,29.554878 L30.6101368,29.554878 L16.9944079,29.554878 L16.9944079,25.7041325 C16.9944079,24.8754911 17.3501633,24.1118411 17.9808206,23.5919093 C21.457521,20.7322839 25.1929525,18.8312829 25.9529754,18.4575819 C26.0499996,18.4088383 26.0985117,18.3275989 26.0985117,18.2301117 L26.0985117,12.8033227 C25.4193423,12.3483823 24.9665627,11.5684844 24.9665627,10.6910994 L24.9665627,5.06933587 C24.9665627,2.27470199 27.2304606,0 30.0118209,0 L30.6101368,0 L31.2084527,0 C33.9898129,0 36.2537109,2.27470199 36.2537109,5.06933587 L36.2537109,10.6910994 C36.2537109,11.5684844 35.8009313,12.3483823 35.1217619,12.8033227 L35.1217619,18.2138638 C35.1217619,18.3113511 35.1864447,18.3925904 35.2672982,18.441334 C36.0273211,18.8150351 39.7789233,20.716036 43.239453,23.5756614 C43.8701102,24.0955933 44.2258656,24.8754911 44.2258656,25.6878847 Z M59.8682181,54.0373141 C60.4046912,54.4795978 60.7073171,55.1430235 60.7073171,55.8340919 L60.7073171,59.1097561 L49.125,59.1097561 L37.5426829,59.1097561 L37.5426829,55.8340919 C37.5426829,55.1292021 37.8453088,54.4795978 38.3817819,54.0373141 C41.3392619,51.6047533 44.5168335,49.9876533 45.1633524,49.6697618 C45.2458867,49.6282977 45.2871538,49.5591908 45.2871538,49.4762626 L45.2871538,44.8599257 C44.7094136,44.4729274 44.3242534,43.8095018 44.3242534,43.0631479 L44.3242534,38.2809546 C44.3242534,35.9036793 46.2500543,33.9686878 48.6160383,33.9686878 L49.125,33.9686878 L49.6339617,33.9686878 C51.9999457,33.9686878 53.9257466,35.9036793 53.9257466,38.2809546 L53.9257466,43.0631479 C53.9257466,43.8095018 53.5405864,44.4729274 52.9628462,44.8599257 L52.9628462,49.4762626 C52.9628462,49.5591908 53.017869,49.6282977 53.0866476,49.6697618 C53.7331665,49.9876533 56.9244938,51.6047533 59.8682181,54.0373141 Z M22.6984173,53.9525939 C23.2438506,54.4022647 23.551531,55.0767709 23.551531,55.7793816 L23.551531,59.1097561 L11.7757655,59.1097561 L0,59.1097561 L0,55.7793816 C0,55.0627187 0.307680333,54.4022647 0.853113651,53.9525939 C3.85998964,51.4794044 7.09063313,49.8352955 7.74795021,49.5120946 C7.83186303,49.4699379 7.87381944,49.3996769 7.87381944,49.3153636 L7.87381944,44.6219244 C7.28642971,44.2284624 6.89483656,43.5539562 6.89483656,42.7951367 L6.89483656,37.933071 C6.89483656,35.5160903 8.85280232,33.5487805 11.2583031,33.5487805 L11.7757655,33.5487805 L12.2932279,33.5487805 C14.6987286,33.5487805 16.6566944,35.5160903 16.6566944,37.933071 L16.6566944,42.7951367 C16.6566944,43.5539562 16.2651013,44.2284624 15.6777115,44.6219244 L15.6777115,49.3153636 C15.6777115,49.3996769 15.7336534,49.4699379 15.8035808,49.5120946 C16.4608978,49.8352955 19.7055268,51.4794044 22.6984173,53.9525939 Z" id="Combined-Shape"></path>
                </g>
                <circle id="Oval-7" stroke="url(#linearGradient-2)" stroke-width="7.19999957" cx="65.5" cy="65.5" r="65.5"></circle>
            </g>
        </g>
    </g>
</svg>