<?xml version="1.0" encoding="UTF-8"?>
<svg width="78px" height="78px" viewBox="0 0 78 78" version="1.1" xmlns="http://www.w3.org/2000/svg" xmlns:xlink="http://www.w3.org/1999/xlink">
    <!-- Generator: Sketch 43 (38999) - http://www.bohemiancoding.com/sketch -->
    <title>Usability Icon</title>
    <desc>Created with Sketch.</desc>
    <defs>
        <linearGradient x1="-201.439282%" y1="50%" x2="141.992052%" y2="50%" id="linearGradient-1">
            <stop stop-color="#FFD900" offset="0%"></stop>
            <stop stop-color="#FF9C00" offset="23.0689008%"></stop>
            <stop stop-color="#FE448B" offset="53.1185082%"></stop>
            <stop stop-color="#CA4ADF" offset="77.7239354%"></stop>
            <stop stop-color="#65C9FE" offset="100%"></stop>
        </linearGradient>
        <linearGradient x1="-120.025426%" y1="49.8205334%" x2="122.335594%" y2="49.8205334%" id="linearGradient-2">
            <stop stop-color="#FFD900" offset="0%"></stop>
            <stop stop-color="#FF9C00" offset="23.0689008%"></stop>
            <stop stop-color="#FE448B" offset="53.1185082%"></stop>
            <stop stop-color="#CA4ADF" offset="77.7239354%"></stop>
            <stop stop-color="#65C9FE" offset="100%"></stop>
        </linearGradient>
    </defs>
    <g id="Final-Slide" stroke="none" stroke-width="1" fill="none" fill-rule="evenodd">
        <g id="Artboard" transform="translate(-265.000000, -63.000000)">
            <g id="Top-Icons" transform="translate(22.000000, 29.000000)">
                <g id="Usability" transform="translate(243.914062, 35.804688)">
                    <g id="Usability-Icon" transform="translate(0.787410, 0.358716)">
                        <path d="M35.8442594,18.8544316 C35.3108949,18.9013517 34.9482218,19.5143874 35.3077099,20.28523 C36.6125981,23.1096262 41.203315,32.8082937 45.0550245,39.3327348 L48.5425958,37.6336616 C44.8826133,31.1292517 38.5992618,22.0243656 36.8279333,19.4804059 C36.4963458,18.9803418 36.1642775,18.8262795 35.8442594,18.8544316 Z M34.8605854,24.7564753 C34.1861413,24.8507738 33.528512,25.241516 33.1615122,25.8295741 L37.2750578,28.0651968 C37.9303635,27.0178523 37.5140012,25.6256854 36.3808088,25.02475 C36.0946491,24.8673622 35.8821755,24.7908144 35.5759846,24.7564753 C35.3463415,24.7300055 35.085401,24.7250424 34.8605854,24.7564753 Z M32.8038126,26.3661236 L30.6576149,29.8536948 L34.8605854,31.9998926 L36.9173582,28.6017462 L32.8038126,26.3661236 Z M30.3893402,30.2113945 L21.7151244,44.1616796 L25.82867,46.3078773 L34.5028858,32.4470171 L30.3893402,30.2113945 Z M17.422729,35.0403393 L17.422729,40.7635332 L22.7882233,40.7635332 L26.4546444,35.1297642 L17.422729,35.0403393 Z M33.9663364,35.0403393 L30.4787651,40.7635332 L44.7867498,40.7635332 C44.7867498,40.7635332 42.4431019,36.6800344 41.5674533,35.0403393 L33.9663364,35.0403393 Z M57.4850863,35.0403393 L48.1848962,35.1297642 C48.6341669,35.8795026 51.3147679,40.8529581 51.3147679,40.8529581 L57.4850863,40.7635332 L57.4850863,35.0403393 Z M48.8108705,38.0807861 L45.2338744,39.8692842 L48.0060464,43.7145551 L50.7782184,42.2837566 L48.8108705,38.0807861 Z M51.0464932,42.9097309 L48.4531709,44.1616796 L51.225343,50.2425731 C51.7118145,51.315672 53.060342,51.862237 54.1763648,51.315672 C55.2923876,50.769107 55.5899937,49.4241564 54.8917641,48.454075 L51.0464932,42.9097309 Z M21.3574248,44.6088041 L20.194901,51.315672 L25.5603953,46.9338517 L21.3574248,44.6088041 Z" id="Shape" fill="url(#linearGradient-1)" fill-rule="nonzero"></path>
                        <circle id="Oval" stroke="url(#linearGradient-2)" stroke-width="4" cx="37.2391058" cy="37.2703319" r="36.5368455"></circle>
                    </g>
                </g>
            </g>
        </g>
    </g>
</svg>