<?xml version="1.0" encoding="UTF-8"?>
<svg width="49px" height="40px" viewBox="0 0 49 40" version="1.1" xmlns="http://www.w3.org/2000/svg" xmlns:xlink="http://www.w3.org/1999/xlink">
    <!-- Generator: Sketch 55.2 (78181) - https://sketchapp.com -->
    <title>icon-twitter-color</title>
    <desc>Created with Sketch.</desc>
    <g id="Page-2" stroke="none" stroke-width="1" fill="none" fill-rule="evenodd">
        <g id="Artboard-Copy-4" transform="translate(-757.000000, -5914.000000)" fill="#00B8FF">
            <g id="Group-19" transform="translate(695.500000, 5872.000000)">
                <path d="M110,46.7352835 C108.236309,47.5384615 106.337383,48.0816179 104.345483,48.3243048 C106.379644,47.0762008 107.940482,45.097147 108.675823,42.7396172 C106.771263,43.8952691 104.666667,44.7360058 102.418384,45.18671 C100.626519,43.224991 98.0655045,42 95.2312027,42 C89.796443,42 85.3872161,46.5214879 85.3872161,52.0975081 C85.3872161,52.8891296 85.471738,53.6576381 85.6407818,54.3972553 C77.4562423,53.9754424 70.2014439,49.9595522 65.3414334,43.8432647 C64.4933967,45.3398339 64.0088044,47.0762008 64.0088044,48.9252438 C64.0088044,52.4268689 65.7471386,55.5182376 68.3898574,57.3297219 C66.778306,57.2806067 65.2569114,56.8212351 63.9270998,56.0700614 L63.9270998,56.194294 C63.9270998,61.0884796 67.3220637,65.1708198 71.8298996,66.0953413 C71.0044022,66.3322499 70.1338264,66.4507042 69.2350766,66.4507042 C68.6011622,66.4507042 67.9813347,66.3900325 67.3812291,66.2715782 C68.6349709,70.2816901 72.2694136,73.2026002 76.5800317,73.2806067 C73.2104244,75.9906103 68.961789,77.6056338 64.3497095,77.6056338 C63.5552034,77.6056338 62.7691495,77.5594077 62,77.4669556 C66.3585138,80.3271939 71.5368903,82 77.0956154,82 C95.2114809,82 105.114633,66.6153846 105.114633,53.2704948 C105.114633,52.8313471 105.106181,52.3921993 105.089276,51.961719 C107.013559,50.5373781 108.684275,48.7605634 110,46.7352835" id="icon-twitter"></path>
            </g>
        </g>
    </g>
</svg>