<?xml version="1.0" encoding="UTF-8"?>
<svg width="24px" height="30px" viewBox="0 0 24 30" version="1.1" xmlns="http://www.w3.org/2000/svg" xmlns:xlink="http://www.w3.org/1999/xlink">
    <!-- Generator: Sketch 43 (38999) - http://www.bohemiancoding.com/sketch -->
    <title>coffee</title>
    <desc>Created with Sketch.</desc>
    <defs></defs>
    <g id="Final-Slide" stroke="none" stroke-width="1" fill="none" fill-rule="evenodd">
        <g id="Artboard" transform="translate(-263.000000, -286.000000)" fill-rule="nonzero">
            <g id="Group-2" transform="translate(262.482498, 286.103644)">
                <g id="coffee" transform="translate(0.541109, 0.039209)">
                    <polygon id="Shape" fill="#E4E7E7" points="21.7497727 5.43019905 19.0038981 28.9705206 4.57389305 28.9705206 1.82532065 5.43019905"></polygon>
                    <g id="Group" transform="translate(1.898461, 6.294898)" fill="#C8CBCB">
                        <polygon id="Shape" points="2.46450262 20.8703854 2.67543167 22.6755224 17.1054367 22.6755224 17.3154665 20.8703854"></polygon>
                        <polygon id="Shape" points="0.0327734385 0.0423656644 2.19192354 18.5381756 19.7309089 0.163667354 19.7461965 0.0423656644"></polygon>
                    </g>
                    <path d="M11.7875467,10.8638953 C8.78817754,10.8638953 6.35554909,13.2965237 6.35554909,16.2958928 C6.35554909,19.2961613 8.78817754,21.7278904 11.7875467,21.7278904 C14.7878151,21.7278904 17.2195443,19.2961613 17.2195443,16.2958928 C17.2195443,13.2956244 14.7877152,10.8638953 11.7875467,10.8638953 Z M14.4698728,18.7095367 C13.9873638,18.4424531 13.3490811,18.2478109 12.6275659,18.1599821 L12.6646358,17.8703168 C13.2195861,17.5606678 13.5979794,16.9749425 13.5979794,16.2959928 C13.5979794,15.2956035 12.7877361,14.4853602 11.7873468,14.4853602 C10.7878569,14.4853602 9.97671428,15.2956035 9.97671428,16.2959928 C9.97671428,16.9749425 10.3560069,17.5598684 10.9100578,17.8694176 L10.948127,18.1590828 C10.2257125,18.2478109 9.58832905,18.4415539 9.10582011,18.7086374 C8.52818825,18.0676569 8.16608172,17.2275378 8.16608172,16.2958928 C8.16608172,14.2960137 9.78756758,12.6746277 11.7873468,12.6746277 C13.7863267,12.6746277 15.408612,14.2961136 15.408612,16.2958928 C15.4088118,17.2274379 15.0485038,18.0676569 14.4698728,18.7095367 Z" id="Shape" fill="#349886"></path>
                    <path d="M1.82891774,2.71599879 L21.7460757,2.71599879 C22.7464649,2.71599879 23.5567083,3.5271414 23.5567083,4.52663135 L23.5567083,6.33726391 L0.0182851806,6.33726391 L0.0182851806,4.52663135 C0.0182851806,3.52624213 0.829427783,2.71599879 1.82891774,2.71599879 Z" id="Shape" fill="#2B414D"></path>
                    <path d="M4.54491653,0 L19.0301768,0 C20.030566,0 20.8408094,0.811142602 20.8408094,1.81063256 L20.8408094,2.71599879 L2.73428397,2.71599879 L2.73428397,1.81063256 C2.73428397,0.810243331 3.54542658,0 4.54491653,0 Z" id="Shape" fill="#475F6C"></path>
                    <path d="M11.7875467,14.4852603 C10.7880567,14.4852603 9.97691412,15.2955036 9.97691412,16.2958928 C9.97691412,16.9304785 10.3146404,17.4719397 10.8089398,17.7950778 L13.2515602,15.2366513 C12.9228266,14.7831189 12.3913573,14.4852603 11.7875467,14.4852603 Z M11.7875467,10.8638953 C8.78817754,10.8638953 6.35554909,13.2965237 6.35554909,16.2958928 C6.35554909,17.9598443 7.10514157,19.4455402 8.28208771,20.4423323 L10.3651994,18.2605006 C9.88358975,18.3646162 9.45353829,18.516693 9.10592002,18.7095367 C8.52828817,18.0676569 8.16618164,17.2275378 8.16618164,16.2958928 C8.16618164,14.2960137 9.7876675,12.6746277 11.7874468,12.6746277 C12.8756648,12.6746277 13.8397834,13.1644308 14.5034456,13.9240152 L15.7636242,12.6040849 C14.7724276,11.5356508 13.3608716,10.8638953 11.7875467,10.8638953 Z" id="Shape" fill="#2E8676"></path>
                </g>
            </g>
        </g>
    </g>
</svg>